<?xml version="1.0" encoding="UTF-8"?>
<svg id="Camada_1" xmlns="http://www.w3.org/2000/svg" version="1.1" viewBox="0 0 100 100">
  <!-- Generator: Adobe Illustrator 30.1.0, SVG Export Plug-In . SVG Version: 2.1.1 Build 136)  -->
  <defs>
    <style>
      .st0 {
        fill: #d87b7b;
      }

      .st1 {
        fill: #ddf6f6;
      }

      .st2 {
        fill: #3d352d;
      }

      .st3 {
        fill: #d1d1d1;
      }
    </style>
  </defs>
  <rect class="st3" x="11.2" y="13.2" width="78.4" height="59.9"/>
  <rect class="st1" x="14.5" y="18.9" width="69.7" height="39.6"/>
  <rect class="st0" x="46" y="27.5" width="8.1" height="22.5"/>
  <rect class="st0" x="39.1" y="36.6" width="23.2" height="5.9"/>
  <rect class="st3" x="37.7" y="73" width="25.3" height="7.3"/>
  <polygon class="st3" points="77.3 92.6 23.8 92 29.9 82.7 71 82.7 77.3 92.6"/>
  <g id="outline">
    <path class="st2" d="M85.5,12H14.5c-3,0-5.5,2.4-5.5,5.5v2.7c0,.8.6,1.4,1.4,1.4s1.4-.6,1.4-1.4v-2.7c0-1.5,1.2-2.7,2.7-2.7h71c1.5,0,2.7,1.2,2.7,2.7v39.6c0,.8.6,1.4,1.4,1.4s1.4-.6,1.4-1.4V17.5c0-3-2.4-5.5-5.5-5.5Z"/>
    <path class="st2" d="M89.6,62.6c-.8,0-1.4.6-1.4,1.4v5.5c0,1.5-1.2,2.7-2.7,2.7H14.5c-1.5,0-2.7-1.2-2.7-2.7V25.8c0-.8-.6-1.4-1.4-1.4s-1.4.6-1.4,1.4v43.6c0,3,2.4,5.5,5.5,5.5h20.5v5.5c-6.8,0-12.3,5.5-12.3,12.3,0,.8.6,1.4,1.4,1.4h8.2c.8,0,1.4-.6,1.4-1.4s-.6-1.4-1.4-1.4h-6.7c.7-4.7,4.7-8.2,9.5-8.2h30.1c4.8,0,8.8,3.5,9.5,8.2h-36.8c-.8,0-1.4.6-1.4,1.4s.6,1.4,1.4,1.4h38.2c.8,0,1.4-.6,1.4-1.4,0-6.8-5.5-12.3-12.3-12.3v-5.5h20.5c3,0,5.5-2.4,5.5-5.5v-5.5c0-.8-.6-1.4-1.4-1.4ZM62.3,80.3h-24.6v-5.5h24.6v5.5Z"/>
    <path class="st2" d="M85.5,59.8V18.9c0-.8-.6-1.4-1.4-1.4H15.9c-.8,0-1.4.6-1.4,1.4v41c0,.8.6,1.4,1.4,1.4h68.3c.8,0,1.4-.6,1.4-1.4ZM82.8,58.5H17.2V20.2h65.6v38.2Z"/>
    <circle class="st2" cx="50" cy="66.7" r="2.7"/>
    <path class="st2" d="M44.5,51.6c0,.8.6,1.4,1.4,1.4h8.2c.8,0,1.4-.6,1.4-1.4v-6.8h6.8c.8,0,1.4-.6,1.4-1.4v-8.2c0-.8-.6-1.4-1.4-1.4h-6.8v-6.8c0-.8-.6-1.4-1.4-1.4h-8.2c-.8,0-1.4.6-1.4,1.4v6.8h-6.8c-.8,0-1.4.6-1.4,1.4v8.2c0,.8.6,1.4,1.4,1.4h6.8v6.8ZM39.1,42.1v-5.5h6.8c.8,0,1.4-.6,1.4-1.4v-6.8h5.5v6.8c0,.8.6,1.4,1.4,1.4h6.8v5.5h-6.8c-.8,0-1.4.6-1.4,1.4v6.8h-5.5v-6.8c0-.8-.6-1.4-1.4-1.4h-6.8Z"/>
    <path class="st2" d="M50,57.4c10,0,18-8.1,18-18s-8.1-18-18-18c-10,0-18,8.1-18,18,0,9.9,8.1,18,18,18ZM50,24.1c8.4,0,15.3,6.8,15.3,15.3s-6.8,15.3-15.3,15.3-15.3-6.8-15.3-15.3c0-8.4,6.8-15.3,15.3-15.3Z"/>
  </g>
</svg>