<?xml version="1.0" encoding="UTF-8"?>
<svg id="Layer_2" data-name="Layer 2" xmlns="http://www.w3.org/2000/svg" viewBox="0 0 99.94 99.8">
  <defs>
    <style>
      .cls-1 {
        fill: none;
      }

      .cls-2 {
        fill: #e7c47e;
      }

      .cls-2, .cls-3, .cls-4, .cls-5, .cls-6, .cls-7, .cls-8, .cls-9, .cls-10 {
        fill-rule: evenodd;
      }

      .cls-3 {
        fill: #a8f0ef;
      }

      .cls-4 {
        fill: #b1dbfc;
      }

      .cls-5 {
        fill: #3e3228;
      }

      .cls-6 {
        fill: #999;
      }

      .cls-7 {
        fill: #d4f7f7;
      }

      .cls-8 {
        fill: #f47c7c;
      }

      .cls-9 {
        fill: #b3b3b7;
      }

      .cls-10 {
        fill: #5eb5c1;
      }
    </style>
  </defs>
  <g id="info1">
    <g>
      <rect class="cls-1" width="99.94" height="99.8"/>
      <g id="ICON">
        <path class="cls-5" d="M67.84,51.77c-4.97-2.19-10.47-3.41-16.25-3.41-3.48,0-6.86.44-10.08,1.27,0,0,0,0-.02,0-.56.14-1.11.3-1.65.46.84-.87,1.25-1.83,1.25-2.8,0-1.24-.68-2.48-2.08-3.51-2.41-1.79-7.26-3.09-12.86-3.09s-10.44,1.3-12.86,3.09c-1.39,1.03-2.08,2.27-2.08,3.51s.68,2.48,2.08,3.51c.3.22.63.43,1,.64-.66.82-.99,1.72-.99,2.64,0,1.56.99,3.09,2.87,4.26.05.03.1.06.14.09-.61.81-.93,1.71-.93,2.63,0,1.48.83,2.91,2.4,4.02.24.17.49.33.75.48-4.61,6.56-7.32,14.55-7.32,23.17,0,.77.62,1.39,1.39,1.39,4.87,0,6.27-1.49,7.6-3.07.98-1.16,1.9-2.45,5.22-2.92,2.44-.35,4.99.37,7.37.87,1.79.38,4.1,1.61,6.53,2.73,2.72,1.26,5.58,2.37,8.07,2.39.39,0,.78,0,1.17-.02.08.01.15.02.23.02h41.76c.77,0,1.39-.62,1.39-1.39h0c0-9.4-3.22-18.06-8.62-24.92,6.37-2.17,8.31-7.58,8.58-12.52.26-4.73-1.03-8.96-1.03-8.96-.19-.61-.76-1.02-1.4-.99-.64.03-1.17.49-1.3,1.12-.48,2.4-1.23,4.22-1.98,5.56-.11-4.34-1.34-6.66-2.5-8.21-.69-.92-.98-2.16-1.12-3.3-.23-1.87,0-3.54,0-3.54.06-.46-.11-.92-.45-1.23-.35-.31-.82-.42-1.27-.31-4.68,1.2-5.98,5.8-5.21,9.09.55,2.32.25,4.31-.26,5.8-1.45-3.93-4.11-4.89-4.11-4.89-.5-.2-1.06-.1-1.46.26-.39.36-.55.92-.39,1.43.46,1.54.04,2.68-.42,4-.46,1.31-.98,2.75-1.18,4.64Z"/>
        <path class="cls-4" d="M59.32,51.94c-2.49-.52-5.08-.8-7.72-.8-1.65,0-3.28.11-4.87.31.46.67.78,1.49.97,2.4.48,2.32.1,5.3-.39,7.35-.18.76-.54,1.24-.96,1.56-.55.42-1.29.58-2.13.54-.45-.02-.93-.1-1.42-.13-.31-.02-.64-.08-.86.17-.16.17-.26.45-.34.82-.13.59-.18,1.37-.13,2.39.11,2.52-1.74,4.87-3.45,6.71-.41.44-.89,1-1.23,1.42.51.07,1.21.15,1.93.15,2.18.01,4.6-.19,6.88.06,2.58.28,4.97,1.13,6.79,3.22,1.01,1.16,1.87,3.23,1.99,5.27.09,1.43-.18,2.82-.88,3.93h26.56c-2.47-1.58-4.48-3.92-5.44-7.27-.39-1.36-.37-3.06-.47-4.85-.12-2.16-.41-4.5-2.57-6.3-.97-.81-2.21-1.22-3.53-1.5-1.52-.33-3.14-.49-4.68-.73-3.7-.59-6.86-1.76-7.88-5.68-.87-3.37.49-7.04,3.82-9.06Z"/>
        <path class="cls-10" d="M42.47,63.17c-.2,0-.39.03-.53.19-.16.17-.26.45-.34.82-.06.25-.1.54-.12.87.4-.32.74-.79.91-1.52.03-.12.05-.23.08-.35Z"/>
        <path class="cls-2" d="M14.05,87.27c.98-.09,1.71-.27,2.29-.54,1.24-.57,1.74-1.49,2.5-2.34,1.14-1.27,2.63-2.52,6.23-3.03,2.75-.39,5.65.34,8.33.9,1.95.41,4.48,1.71,7.12,2.93,2.34,1.08,4.78,2.12,6.92,2.13,1.27,0,2.66.1,3.7-1.47.42-.63.52-1.45.47-2.28-.09-1.39-.63-2.82-1.32-3.61-1.33-1.53-3.12-2.08-5-2.29-2.18-.24-4.5-.03-6.59-.05-1.92,0-3.11-.22-3.77-.5-.57-.25-.91-.59-1.12-.93-.33-.54-.4-1.18-.12-1.91.2-.5.63-1.11,1.23-1.78.75-.83,1.77-1.83,2.6-2.94.66-.89,1.21-1.85,1.16-2.89-.14-3.18.6-4.69,1.43-5.44.71-.63,1.57-.85,2.48-.85.47,0,.96.06,1.42.11.15.02.31.03.45.03.04,0,.09,0,.14,0,.41-1.71.76-4.18.36-6.11-.15-.73-.39-1.37-.88-1.77-.44-.36-1.08-.46-1.94-.31-1.09.28-2.16.61-3.21.99.05.25.08.5.08.76,0,1.56-.99,3.09-2.87,4.26l-.15.09c.61.81.93,1.71.93,2.63,0,1.48-.83,2.91-2.4,4.02-.61.44-1.35.83-2.18,1.16.27.55.41,1.13.41,1.74,0,1.16-.51,2.25-1.45,3.12-.23.21-.48.41-.76.6.41.62.63,1.33.63,2.08,0,2.25-2.17,4.26-5.02,4.26s-5.02-2.01-5.02-4.26c0-.75.22-1.46.63-2.08-.28-.18-.53-.38-.76-.6-.68-.63-1.14-1.39-1.34-2.2-3.35,5.37-5.38,11.65-5.63,18.38Z"/>
        <path class="cls-2" d="M64.04,53.25c-4.42.53-6.67,3.89-5.85,7.04.7,2.7,3.07,3.22,5.62,3.63,3.37.54,7.1.79,9.56,2.84,2.41,2.01,3.19,4.49,3.46,6.94.23,2.04.03,4.05.47,5.57,1.63,5.71,7.1,7.68,11.86,7.99-.59-15.76-10.91-29.04-25.11-34.03Z"/>
        <path class="cls-8" d="M81.4,61.51l.88-.29c5.2-1.69,6.65-6.13,6.87-10.1.05-.92.04-1.82-.02-2.66-1.71,3.51-3.71,4.87-3.71,4.87-.45.32-1.04.34-1.51.06-.47-.28-.74-.81-.67-1.36.71-6.11-.48-8.89-1.74-10.57-.98-1.3-1.46-3.03-1.66-4.64-.08-.61-.11-1.21-.12-1.75-1.39,1.24-1.7,3.26-1.34,4.8,1.59,6.75-2.48,11.27-2.48,11.27-.37.41-.95.57-1.47.4-.52-.17-.9-.64-.95-1.19-.19-1.91-.68-3.28-1.23-4.25-.07.31-.16.62-.25.94-.5,1.63-1.38,3.34-1.43,6.03,4.09,2.18,7.75,5.04,10.85,8.43h0Z"/>
        <path class="cls-7" d="M24.43,72.76c-.05.1-.12.2-.2.29-.18.21-.31.45-.31.72,0,.37.23.69.53.94.44.34,1.04.54,1.71.54s1.27-.2,1.71-.54c.31-.24.53-.56.53-.94,0-.27-.12-.51-.31-.72-.08-.09-.15-.19-.2-.29-.55.11-1.13.17-1.73.17s-1.18-.06-1.73-.17ZM22.77,67.02c-.25.28-.42.59-.42.95,0,.55.39,1.01.92,1.37.74.51,1.77.8,2.9.8s2.16-.3,2.9-.8c.53-.36.92-.82.92-1.37,0-.35-.17-.67-.42-.95-1.06.2-2.2.31-3.39.31s-2.33-.11-3.39-.31ZM19.01,59.62c-.5.43-.83.9-.83,1.44,0,.68.51,1.24,1.22,1.75,1.52,1.08,3.99,1.74,6.76,1.74s5.24-.66,6.76-1.74c.71-.51,1.22-1.07,1.22-1.75,0-.54-.33-1.01-.83-1.44-2.02.66-4.49,1.06-7.16,1.06s-5.14-.4-7.16-1.06ZM17.06,52.61c-.57.44-.95.92-.95,1.48,0,.74.65,1.33,1.55,1.89,1.92,1.19,5.02,1.92,8.51,1.92s6.59-.73,8.51-1.92c.9-.56,1.55-1.15,1.55-1.89,0-.56-.38-1.04-.95-1.48-2.49.8-5.66,1.29-9.11,1.29s-6.62-.49-9.11-1.29Z"/>
        <path class="cls-6" d="M24.38,72.86c.11-.01.23-.03.34-.05-.09-.02-.19-.03-.28-.05-.02.03-.04.07-.06.1ZM22.55,67.32c.24,0,.47.01.71.01.49,0,.98-.02,1.45-.06-.67-.05-1.32-.14-1.94-.25-.09.09-.16.19-.23.29Z"/>
        <path class="cls-3" d="M37.38,48.57c.23-.17.42-.35.58-.53.2-.24.35-.47.35-.73s-.15-.5-.35-.73c-.35-.41-.87-.77-1.52-1.11-2.32-1.22-6.06-1.97-10.28-1.97s-7.96.76-10.28,1.97c-.64.34-1.17.7-1.52,1.11-.2.24-.35.47-.35.73s.15.5.35.73c.35.41.87.77,1.52,1.11,2.32,1.22,6.06,1.97,10.28,1.97,3.11,0,5.97-.41,8.19-1.12-2.13-1.05-6.31-2.38-12.8-1.32-.76.12-1.47-.39-1.6-1.15-.12-.76.39-1.47,1.15-1.6,9.46-1.54,14.68,1.47,16.28,2.64Z"/>
        <path class="cls-5" d="M50.28,38.62l-1.67,5.01c-.24.73.15,1.52.88,1.76s1.52-.15,1.76-.88l1.96-5.89h11.5c5.25,0,9.52-4.28,9.52-9.55s-4.26-9.55-9.52-9.55c-1.17,0-2.28.21-3.31.6,0-.06,0-.13,0-.19,0-5.82-4.71-10.54-10.5-10.54s-10.5,4.72-10.5,10.54v.19c-1.03-.39-2.15-.6-3.31-.6-5.25,0-9.52,4.28-9.52,9.55s4.26,9.55,9.52,9.55h13.19Z"/>
        <path class="cls-5" d="M18.2,34.26l5.54,3.14c.67.38,1.52.14,1.9-.52.38-.67.14-1.52-.52-1.9l-5.54-3.15c-.67-.38-1.52-.14-1.9.52-.38.67-.14,1.52.52,1.9Z"/>
        <path class="cls-9" d="M54.14,35.83h10.57c3.72,0,6.73-3.03,6.73-6.76s-3.01-6.77-6.73-6.77c-1.62,0-3.1.57-4.27,1.53-.48.39-1.16.42-1.67.08-.51-.35-.73-.99-.54-1.58.25-.76.38-1.57.38-2.41,0-4.28-3.46-7.75-7.72-7.75s-7.72,3.48-7.72,7.75c0,.84.13,1.65.38,2.41.19.59-.03,1.23-.54,1.58-.51.35-1.19.32-1.67-.08-1.16-.96-2.65-1.53-4.27-1.53-3.72,0-6.73,3.03-6.73,6.77s3.01,6.76,6.73,6.76h14.12l1.22-3.66-5.11.85c-.48.08-.98-.1-1.29-.48-.32-.38-.41-.89-.25-1.36l3.58-10.28c.25-.73,1.05-1.11,1.77-.86.73.25,1.11,1.05.86,1.77l-2.81,8.06,5.08-.85c.48-.08.97.1,1.29.47.32.37.42.88.26,1.34l-1.66,4.98Z"/>
        <path class="cls-5" d="M81.85,21.21l-4.32,5.19c-.49.59-.41,1.47.18,1.96s1.47.41,1.96-.18l4.32-5.19c.49-.59.41-1.47-.18-1.96s-1.47-.41-1.96.18Z"/>
      </g>
    </g>
  </g>
</svg>