<?xml version="1.0" encoding="UTF-8"?>
<svg id="Layer_2" data-name="Layer 2" xmlns="http://www.w3.org/2000/svg" viewBox="0 0 99.94 99.8">
  <defs>
    <style>
      .cls-1 {
        fill: none;
      }

      .cls-2 {
        fill: #e7c47e;
      }

      .cls-2, .cls-3, .cls-4, .cls-5 {
        fill-rule: evenodd;
      }

      .cls-3 {
        fill: #feb4b4;
      }

      .cls-4 {
        fill: #b1dbfc;
      }

      .cls-6 {
        fill: #3e3228;
      }

      .cls-5 {
        fill: #f47c7c;
      }
    </style>
  </defs>
  <g id="info1">
    <g>
      <rect class="cls-1" width="99.94" height="99.8"/>
      <g id="Layer_35" data-name="Layer 35">
        <g>
          <path class="cls-4" d="M78.82,60.28c1.08-10.25-2.46-20.71-9.86-28.2.1,4.54-2.56,11.54-9.27,7.79-2.86-1.68-4.73-1.18-6.8,1.48-2.46,3.25-4.44,2.66-7.89,0-3.16-2.37-5.23-3.65-10.06-.89-3.65,2.07-7.99,3.65-15.28-8.58-1.97,1.97-3.65,4.14-5.13,6.61-3.35,5.52-4.93,11.54-5.03,17.45v1.18c.2,11.54,6.11,22.78,16.76,29.18,4.24,2.56,8.78,4.14,13.31,4.73-.39-5.62,2.76-8.08,5.52-8.68,3.45-.69,5.42-3.75,2.37-7.69-2.56-3.35,2.96-6.11.99-11.93-1.58-4.44,2.86-7.49,8.97-5.72,4.24,1.28,9.17,6.8,12.62,2.96,2.96-3.35,4.93-2.07,8.78.3ZM35.24,54.86c1.48,1.38,2.37,3.45,2.37,5.62s-.89,4.14-2.37,5.62c-1.48,1.38-3.45,2.27-5.62,2.27-.89,0-1.77-.2-2.56-.39-1.18-.39-2.17-1.08-2.96-1.87-1.48-1.48-2.37-3.45-2.37-5.62s.89-4.14,2.37-5.62c.79-.89,1.87-1.48,2.96-1.87.79-.3,1.68-.39,2.56-.39,2.17,0,4.14.89,5.62,2.27h0Z"/>
          <path class="cls-2" d="M59.69,39.77c6.8,3.85,9.47-3.25,9.27-7.79-1.97-1.97-4.14-3.75-6.7-5.23-14-8.48-31.65-6.01-42.69,5.13,7.39,12.32,11.63,10.75,15.38,8.58,4.83-2.76,7-1.48,10.06.89,3.45,2.56,5.42,3.25,7.89,0,2.07-2.66,3.94-3.16,6.8-1.58h0Z"/>
          <path class="cls-2" d="M44.81,91.44c11.54-.2,22.78-6.11,29.18-16.76,2.76-4.54,4.34-9.47,4.93-14.4-3.94-2.37-5.92-3.65-8.97-.2-3.45,3.85-8.38-1.68-12.62-2.96-6.11-1.77-10.55,1.28-8.97,5.72,2.07,5.82-3.55,8.58-.99,11.93,2.96,3.94,1.08,7-2.37,7.69-2.66.59-5.92,3.06-5.52,8.68,1.38.2,2.76.3,4.14.3h1.18Z"/>
          <path class="cls-5" d="M35.24,54.86c-1.48-1.48-3.45-2.37-5.62-2.37-4.34,0-7.89,3.55-7.89,7.89,0,2.17.89,4.14,2.37,5.62,1.38,1.48,3.45,2.37,5.62,2.37s4.14-.89,5.62-2.27c1.48-1.48,2.37-3.45,2.37-5.62-.2-2.17-1.08-4.14-2.46-5.62h0Z"/>
          <path class="cls-5" d="M88.68,11.37c-1.48-1.48-3.45-2.37-5.62-2.37-4.34,0-7.89,3.55-7.89,7.89,0,2.17.89,4.14,2.37,5.62s3.45,2.37,5.62,2.37,4.14-.89,5.62-2.27c1.48-1.48,2.37-3.45,2.37-5.62s-.99-4.14-2.46-5.62Z"/>
          <path class="cls-3" d="M70.34,84.73c2.76,0,5.03-2.27,5.03-5.13s-2.27-5.13-5.03-5.13-5.03,2.27-5.03,5.13,2.27,5.13,5.03,5.13Z"/>
          <path class="cls-3" d="M32.88,28.14c2.76,0,5.03-2.27,5.03-5.13s-2.27-5.03-5.03-5.03-5.03,2.27-5.03,5.13,2.27,5.03,5.03,5.03Z"/>
          <g>
            <path class="cls-6" d="M79.51,47.95c-2.27-9.47-8.08-17.35-16.47-22.48-7.3-4.44-15.78-6.11-24.16-4.93-.99-2.46-3.25-4.14-6.01-4.14-3.55,0-6.51,2.96-6.51,6.61,0,.59.1,1.18.2,1.77-5.52,3.06-10.16,7.49-13.41,12.92-10.45,17.16-4.93,39.54,12.13,49.89,5.92,3.55,12.42,5.32,18.93,5.32,7.99,0,15.97-2.66,22.48-7.79.99.69,2.27,1.08,3.65,1.08,3.55,0,6.51-2.96,6.51-6.61,0-1.58-.59-3.06-1.58-4.24,5.03-8.18,6.51-17.94,4.24-27.41h0ZM32.88,19.46c1.97,0,3.55,1.58,3.55,3.65s-1.58,3.65-3.55,3.65-3.55-1.58-3.55-3.65,1.58-3.65,3.55-3.65ZM32.88,29.61c3.45,0,6.21-2.66,6.41-6.11,7.69-1.18,15.58.39,22.18,4.44,2.17,1.28,4.14,2.86,5.92,4.63-.1,2.46-.99,5.32-2.66,6.31-1.08.69-2.56.49-4.44-.49-3.45-1.97-6.21-1.28-8.68,1.97-1.58,2.07-2.37,2.37-5.82-.3-3.55-2.66-6.21-4.14-11.73-.99-2.76,1.58-6.11,3.45-12.72-7.1,1.97-1.87,4.14-3.45,6.51-4.73,1.38,1.48,3.06,2.37,5.03,2.37h0ZM15.72,39.28c1.08-1.77,2.27-3.35,3.65-4.93,6.51,10.06,11.24,10.35,16.27,7.49,4.24-2.37,5.62-1.28,8.48.79,1.77,1.28,3.55,2.46,5.42,2.46,1.48,0,3.06-.79,4.54-2.76,1.58-2.07,2.76-2.37,4.83-1.18,3.45,1.97,5.92,1.28,7.39.39,1.97-1.18,3.25-3.55,3.75-6.01,3.06,3.85,5.32,8.28,6.51,13.21.69,3.06,1.08,6.11.89,9.07-2.96-1.58-5.62-2.27-8.78,1.28-1.48,1.58-3.16.89-6.7-1.18-1.48-.89-2.96-1.77-4.54-2.17-3.94-1.18-7.59-.49-9.66,1.68-1.48,1.58-1.87,3.75-1.08,6.01.89,2.46.1,4.14-.69,5.92s-1.77,4.04,0,6.41c.99,1.38,1.38,2.66,1.08,3.55s-1.28,1.48-2.56,1.77c-3.06.59-6.31,3.16-6.7,8.28-3.85-.69-7.59-2.17-11.04-4.24-15.58-9.56-20.61-30.17-11.04-45.85h0ZM40.86,89.76c.1-3.65,2.27-5.42,4.34-5.82,2.27-.49,4.04-1.77,4.73-3.65.69-1.97.2-4.24-1.48-6.41-.69-.89-.49-1.58.39-3.35.89-1.97,2.07-4.63.79-8.18-.3-.79-.49-1.97.49-2.96,1.28-1.28,3.85-1.68,6.7-.79,1.18.3,2.56,1.08,3.85,1.87,3.16,1.87,7.1,4.14,10.35.59,2.07-2.27,2.86-2.07,6.31,0-.59,4.44-2.07,8.68-4.44,12.62-.79-.3-1.68-.49-2.56-.49-3.55,0-6.51,2.96-6.51,6.61,0,1.18.3,2.27.89,3.25-6.9,5.23-15.48,7.59-23.86,6.7h0ZM70.34,83.25c-1.97,0-3.55-1.58-3.55-3.65s1.58-3.65,3.55-3.65,3.55,1.58,3.55,3.65c-.1,2.07-1.68,3.65-3.55,3.65Z"/>
            <path class="cls-6" d="M28.64,60.38c-.79,0-1.48.69-1.48,1.48s.69,1.48,1.48,1.48,1.48-.69,1.48-1.48-.69-1.48-1.48-1.48Z"/>
            <path class="cls-6" d="M38.89,71.91l2.17-2.17c.59-.59.59-1.48,0-2.07s-1.48-.59-2.07,0l-1.68-1.68c.89-1.18,1.48-2.56,1.68-4.04h2.07c.79,0,1.48-.69,1.48-1.48s-.69-1.48-1.48-1.48h-2.07c-.2-1.48-.79-2.86-1.68-4.04l1.68-1.68c.59.59,1.48.59,2.07,0s.59-1.48,0-2.07l-2.17-2.17c-.59-.59-1.48-.59-2.07,0s-.59,1.48,0,2.07l.1.1-1.77,1.68c-1.18-.89-2.56-1.48-4.04-1.68v-2.07c0-.79-.69-1.48-1.48-1.48s-1.48.69-1.48,1.48v2.07c-1.48.2-2.86.79-4.04,1.68l-1.68-1.68.1-.1c.59-.59.59-1.48,0-2.07s-1.48-.59-2.07,0l-2.17,2.17c-.59.59-.59,1.48,0,2.07.59.59,1.48.59,2.07,0l1.68,1.68c-.89,1.18-1.48,2.56-1.68,4.04h-2.07c-.79,0-1.48.69-1.48,1.48s.69,1.48,1.48,1.48h2.07c.2,1.48.79,2.86,1.68,4.04l-1.68,1.68c-.59-.59-1.48-.59-2.07,0s-.59,1.48,0,2.07l2.17,2.17c.3.3.69.39,1.08.39s.79-.1,1.08-.39c.59-.59.59-1.48,0-2.07l-.1-.1,1.68-1.68c1.18.89,2.56,1.48,4.04,1.68v2.07c0,.79.69,1.48,1.48,1.48s1.48-.69,1.48-1.48v-2.07c1.48-.2,2.86-.79,4.04-1.68l1.68,1.68-.1.1c-.59.59-.59,1.48,0,2.07.3.3.69.39,1.08.39.3,0,.69-.1.99-.39ZM29.62,66.88c-3.55,0-6.41-2.86-6.41-6.41s2.86-6.41,6.41-6.41,6.41,2.86,6.41,6.41-2.86,6.41-6.41,6.41Z"/>
            <path class="cls-6" d="M82.08,16.9c-.79,0-1.48.69-1.48,1.48s.69,1.48,1.48,1.48,1.48-.69,1.48-1.48-.69-1.48-1.48-1.48Z"/>
            <path class="cls-6" d="M94.5,18.47c.79,0,1.48-.69,1.48-1.48s-.69-1.48-1.48-1.48h-2.17c-.2-1.48-.79-2.86-1.68-4.04l1.68-1.68c.59.59,1.48.59,2.07,0s.59-1.48,0-2.07l-.99-1.08-.1-.1-.99-1.08c-.59-.59-1.48-.59-2.07,0s-.59,1.48,0,2.07l.1.1-1.68,1.68c-1.18-.89-2.56-1.48-4.04-1.68v-1.97c0-.79-.69-1.48-1.48-1.48s-1.48.69-1.48,1.48v2.07c-1.48.2-2.86.79-4.04,1.68l-1.68-1.68.1-.1c.49-.49.49-1.48-.1-2.07s-1.48-.59-2.07,0l-1.08,1.08-.1.1-1.08,1.08c-.59.59-.59,1.48,0,2.07s1.48.59,2.07,0l1.68,1.68c-.89,1.18-1.48,2.56-1.68,4.04h-2.07c-.79,0-1.48.69-1.48,1.48s.69,1.48,1.48,1.48h2.07c.2,1.48.79,2.86,1.68,4.04l-1.68,1.68c-.59-.59-1.48-.59-2.07,0s-.59,1.48,0,2.07l1.08,1.08.1.1.99,1.08c.3.3.69.39,1.08.39s.79-.1,1.08-.39c.59-.59.59-1.48,0-2.07l-.1-.1,1.68-1.68c1.18.89,2.56,1.48,4.04,1.68v2.07c0,.79.69,1.48,1.48,1.48s1.48-.69,1.48-1.48v-2.07c1.48-.2,2.86-.79,4.04-1.68l1.68,1.68-.1.1c-.59.59-.59,1.48,0,2.07.3.3.69.39,1.08.39s.79-.1,1.08-.39l.99-1.08.1-.1.99-1.08c.59-.59.59-1.48,0-2.07s-1.48-.59-2.07,0l-1.68-1.68c.89-1.18,1.48-2.56,1.68-4.04h2.17v-.1ZM83.06,23.4c-3.55,0-6.41-2.86-6.41-6.41s2.86-6.41,6.41-6.41,6.41,2.86,6.41,6.41c.1,3.55-2.86,6.41-6.41,6.41Z"/>
            <path class="cls-6" d="M56.64,50.32c.39,0,.79-.2,1.08-.49.59-.59.49-1.58-.1-2.07-.59-.59-1.58-.49-2.07.1-.59.59-.49,1.58.1,2.07.2.3.59.39.99.39Z"/>
            <path class="cls-6" d="M31.89,77.43c-.59.59-.59,1.58,0,2.07.3.3.69.39.99.39.39,0,.79-.2,1.08-.49.59-.59.49-1.48-.1-2.07-.49-.59-1.48-.49-1.97.1Z"/>
          </g>
        </g>
      </g>
    </g>
  </g>
</svg>