<?xml version="1.0" encoding="UTF-8"?>
<svg id="Layer_2" data-name="Layer 2" xmlns="http://www.w3.org/2000/svg" viewBox="0 0 99.94 99.8">
  <defs>
    <style>
      .cls-1 {
        fill: none;
      }

      .cls-2 {
        fill: #52e0de;
      }

      .cls-2, .cls-3, .cls-4, .cls-5, .cls-6, .cls-7, .cls-8 {
        fill-rule: evenodd;
      }

      .cls-9 {
        fill: #d4f7f7;
      }

      .cls-10, .cls-6 {
        fill: #a9b0bb;
      }

      .cls-3 {
        fill: #f76c82;
      }

      .cls-4 {
        fill: #3e3228;
      }

      .cls-5 {
        fill: #e9fbfb;
      }

      .cls-7 {
        fill: #815e18;
      }

      .cls-8 {
        fill: #dfb053;
      }
    </style>
  </defs>
  <g id="info1">
    <g>
      <rect class="cls-1" width="99.94" height="99.8"/>
      <g>
        <g>
          <path class="cls-2" d="M8.49,15.1h55.39c1.63,0,2.96,1.33,2.96,2.96v73.03c0,1.63-1.33,2.96-2.96,2.96H8.49c-1.63,0-2.96-1.33-2.96-2.96V18.06c0-1.63,1.33-2.96,2.96-2.96h0Z"/>
          <path class="cls-5" d="M11.45,21.94v65.26c0,.51.42.93.93.93h47.61c.51,0,.93-.42.93-.93V21.94c0-.51-.42-.93-.93-.93H12.38c-.51,0-.93.42-.93.93Z"/>
          <path class="cls-8" d="M22.99,11.49h6.87c0-3.49,2.83-6.32,6.32-6.32s6.32,2.83,6.32,6.32h6.87c.51,0,.93.42.93.93v9.53c0,.51-.42.93-.93.93h-26.38c-.51,0-.93-.42-.93-.93v-9.53c0-.51.42-.93.93-.93h0Z"/>
        </g>
        <g>
          <path class="cls-6" d="M70.66,73.66l3.35-3.35,6.47,6.47-3.35,3.35-6.47-6.47Z"/>
          <circle class="cls-10" cx="61.78" cy="61.43" r="16.95"/>
          <circle class="cls-9" cx="61.78" cy="61.43" r="12.55" transform="translate(-14.93 102.74) rotate(-73.14)"/>
          <path class="cls-3" d="M59.92,54.23h3.71c.51,0,.93.42.93.93v3.48h3.48c.51,0,.93.42.93.93v3.71c0,.51-.42.93-.93.93h-3.48v3.48c0,.51-.42.93-.93.93h-3.71c-.51,0-.93-.42-.93-.93v-3.48h-3.48c-.51,0-.93-.42-.93-.93v-3.71c0-.51.42-.93.93-.93h3.48v-3.48c0-.51.42-.93.93-.93Z"/>
          <path class="cls-7" d="M76.38,78.58l2.56-2.56c.85-.85,2.23-.85,3.08,0l11.76,11.76c.85.85.85,2.23,0,3.08l-2.56,2.56c-.85.85-2.23.85-3.08,0l-11.76-11.76c-.85-.85-.85-2.23,0-3.08Z"/>
        </g>
      </g>
      <path class="cls-4" d="M36.18,13.16c.92,0,1.67-.75,1.67-1.67s-.75-1.67-1.67-1.67-1.67.75-1.67,1.67c0,.92.75,1.67,1.67,1.67ZM55.88,62.9h3.11c.72,0,1.3.58,1.3,1.3v3.11h2.97v-3.11c0-.72.58-1.3,1.3-1.3h3.11v-2.97h-3.11c-.72,0-1.3-.58-1.3-1.3v-3.11h-2.97v3.11c0,.72-.58,1.3-1.3,1.3h-3.11v2.97ZM53.29,64.19v-5.56c0-.71.58-1.3,1.3-1.3h3.11v-3.11c0-.72.58-1.3,1.3-1.3h5.56c.72,0,1.3.58,1.3,1.3v3.11h3.11c.72,0,1.3.58,1.3,1.3v5.56c0,.72-.58,1.3-1.3,1.3h-3.11v3.11c0,.71-.58,1.3-1.3,1.3h-5.56c-.71,0-1.3-.58-1.3-1.3v-3.11h-3.11c-.72,0-1.3-.58-1.3-1.3ZM50.52,61.41c0-6.21,5.05-11.25,11.25-11.25s11.25,5.05,11.25,11.25-5.05,11.25-11.25,11.25-11.25-5.05-11.25-11.25ZM61.77,47.57c7.63,0,13.84,6.21,13.84,13.85s-6.21,13.85-13.84,13.85-13.85-6.21-13.85-13.85,6.21-13.85,13.85-13.85ZM92.86,88.7l-11.76-11.76c-.34-.34-.91-.34-1.24,0l-2.56,2.56c-.34.34-.34.91,0,1.24l11.76,11.77c.34.34.91.34,1.24,0l2.56-2.56c.34-.34.34-.91,0-1.24h0ZM73.89,75.05l2.09,2.09,1.52-1.52-2.09-2.09c-.48.54-.98,1.04-1.52,1.52h0ZM65.54,79.27v11.82c0,.92-.75,1.66-1.66,1.66H8.49c-.92,0-1.66-.75-1.66-1.66V18.06c0-.92.75-1.66,1.66-1.66h12.28v3.33h-9.32c-.72,0-1.3.58-1.3,1.3v67.11c0,.72.58,1.3,1.3,1.3h49.47c.72,0,1.3-.58,1.3-1.3v-8.47c1.14-.03,2.25-.16,3.33-.39ZM23.36,19.72v-6.94h6.5c.72,0,1.3-.58,1.3-1.3,0-2.77,2.26-5.03,5.03-5.03s5.03,2.26,5.03,5.03c0,.72.58,1.3,1.3,1.3h6.5v6.94h-25.64ZM51.6,16.39v3.33h9.32c.72,0,1.3.58,1.3,1.3v22.15c1.14.03,2.25.16,3.33.39v-25.5c0-.92-.75-1.66-1.66-1.66h-12.28ZM12.75,22.31h46.87v20.97c-6.22.73-11.49,4.61-14.18,9.99h-8.98c-.72,0-1.3.58-1.3,1.3s.58,1.3,1.3,1.3h7.93c-.56,1.75-.86,3.61-.86,5.54,0,4.12,1.38,7.93,3.69,10.99h-10.75c-.72,0-1.3.58-1.3,1.3s.58,1.3,1.3,1.3h13.14c2.73,2.45,6.19,4.09,10.02,4.54v7.3H12.75V22.31ZM61.77,45.75c8.63,0,15.66,7.03,15.66,15.66s-7.02,15.66-15.66,15.66-15.66-7.02-15.66-15.66,7.03-15.66,15.66-15.66h0ZM94.69,91.77l-2.56,2.56c-.68.68-1.57,1.01-2.46,1.01s-1.78-.34-2.45-1.01l-11.76-11.77c-.87-.87-1.18-2.09-.93-3.21l-2.71-2.71c-1.14.76-2.38,1.39-3.68,1.88v12.57c0,2.35-1.91,4.26-4.26,4.26H8.49c-2.35,0-4.26-1.91-4.26-4.26V18.06c0-2.35,1.91-4.26,4.26-4.26h12.28v-2.31c0-.71.58-1.3,1.3-1.3h6.61c.62-3.58,3.75-6.32,7.51-6.32s6.89,2.74,7.51,6.32h6.61c.72,0,1.3.58,1.3,1.3v2.31h12.28c2.35,0,4.26,1.91,4.26,4.26v26.25c6.94,2.59,11.89,9.28,11.89,17.11,0,3.71-1.11,7.16-3.02,10.05l2.72,2.71c1.12-.25,2.34.06,3.21.93l11.76,11.76c1.35,1.35,1.35,3.56,0,4.91ZM19.33,73.7c0,2.89,2.35,5.24,5.24,5.24s5.24-2.35,5.24-5.24c0-.23-.01-.45-.04-.67l-3.73,3.73c-.24.24-.57.38-.92.38-.02,0-.05,0-.07,0-.37-.02-.71-.2-.94-.49l-2.58-3.24c-.45-.56-.35-1.38.21-1.82.56-.44,1.37-.35,1.82.21l1.68,2.11,3.44-3.44c-.96-1.21-2.44-1.99-4.11-1.99-2.89,0-5.24,2.35-5.24,5.24h0ZM16.74,73.7c0,4.32,3.51,7.83,7.83,7.83s7.83-3.51,7.83-7.83c0-.98-.18-1.92-.51-2.79l1.15-1.15c.51-.51.51-1.33,0-1.83-.51-.51-1.33-.51-1.83,0l-.69.69c-1.44-1.68-3.57-2.74-5.95-2.74-4.32,0-7.83,3.51-7.83,7.83h0ZM19.33,54.57c0,2.89,2.35,5.24,5.24,5.24s5.24-2.35,5.24-5.24c0-.23-.01-.45-.04-.67l-3.73,3.73c-.24.24-.57.38-.92.38-.02,0-.05,0-.07,0-.37-.02-.71-.2-.94-.49l-2.58-3.24c-.45-.56-.35-1.38.21-1.82.56-.44,1.37-.35,1.82.21l1.68,2.11,3.44-3.44c-.96-1.21-2.44-1.99-4.11-1.99-2.89,0-5.24,2.35-5.24,5.24ZM16.74,54.57c0,4.32,3.51,7.83,7.83,7.83s7.83-3.51,7.83-7.83c0-.98-.18-1.92-.51-2.79l1.15-1.15c.51-.51.51-1.33,0-1.83-.51-.51-1.33-.51-1.83,0l-.69.69c-1.44-1.68-3.57-2.74-5.95-2.74-4.32,0-7.83,3.51-7.83,7.83h0ZM19.33,35.45c0,2.89,2.35,5.24,5.24,5.24s5.24-2.35,5.24-5.24c0-.23-.01-.45-.04-.67l-3.73,3.73c-.24.24-.57.38-.92.38-.02,0-.05,0-.07,0-.37-.02-.71-.2-.94-.49l-2.58-3.24c-.45-.56-.35-1.38.21-1.82.56-.44,1.37-.35,1.82.21l1.68,2.11,3.44-3.44c-.96-1.21-2.44-1.99-4.11-1.99-2.89,0-5.24,2.35-5.24,5.24ZM16.74,35.45c0,4.32,3.51,7.83,7.83,7.83s7.83-3.51,7.83-7.83c0-.98-.18-1.92-.51-2.79l1.15-1.15c.51-.51.51-1.33,0-1.83-.51-.51-1.33-.51-1.83,0l-.69.69c-1.44-1.68-3.57-2.74-5.95-2.74-4.32,0-7.83,3.51-7.83,7.83h0ZM35.16,35.45c0,.72.58,1.3,1.3,1.3h17.87c.71,0,1.3-.58,1.3-1.3s-.58-1.3-1.3-1.3h-17.87c-.72,0-1.3.58-1.3,1.3h0Z"/>
    </g>
  </g>
</svg>