<?xml version="1.0" encoding="UTF-8"?>
<svg id="Layer_2" data-name="Layer 2" xmlns="http://www.w3.org/2000/svg" viewBox="0 0 99.94 99.8">
  <defs>
    <style>
      .cls-1 {
        fill: none;
      }

      .cls-2 {
        fill: #aa7d5c;
      }

      .cls-3 {
        fill: #d79d28;
      }

      .cls-4 {
        fill: #ce9f7c;
      }

      .cls-5 {
        fill: #261912;
      }

      .cls-6 {
        fill: #8a5d3b;
      }

      .cls-7 {
        fill: #1f315f;
      }

      .cls-8 {
        fill: #efcdb1;
      }

      .cls-9 {
        fill: #3e3228;
      }

      .cls-10 {
        fill: #d3d3d3;
      }

      .cls-11 {
        fill: #178280;
      }
    </style>
  </defs>
  <g id="info1">
    <g>
      <rect class="cls-1" width="99.94" height="99.8"/>
      <g id="Layer_20" data-name="Layer 20">
        <g id="Layer_86" data-name="Layer 86">
          <path class="cls-4" d="M68.26,92.62v-10.78h18.02v10.78"/>
          <path class="cls-9" d="M67.25,92.62v-10.78c0-.55.45-1.01,1.01-1.01h18.02c.55,0,1.01.45,1.01,1.01v10.78c0,.55-.45,1.01-1.01,1.01s-1.01-.45-1.01-1.01v-9.77h-16v9.77c0,.55-.45,1.01-1.01,1.01s-1.01-.45-1.01-1.01h0Z"/>
          <path class="cls-9" d="M77.29,94.27c-.55,0-1.01-.45-1.01-1.01v-10.53c0-.55.45-1.01,1.01-1.01s1.01.45,1.01,1.01v10.53c0,.55-.45,1.01-1.01,1.01Z"/>
          <path class="cls-11" d="M67.18,63.57l-2.87,18.27h25.96l-3.61-18.27"/>
          <path class="cls-9" d="M64.31,82.85h-.15c-.54-.08-.92-.59-.84-1.14l2.87-18.29c.03-.55.52-.97,1.07-.94s.97.52.94,1.07c0,.07-.02.12-.03.18l-2.69,17.11h23.56l-3.38-17.09c-.05-.55.37-1.04.92-1.09.47-.03.91.25,1.04.71l3.63,18.27c.02.07.02.13.02.2,0,.55-.45,1.01-1.01,1.01h-25.96Z"/>
          <path class="cls-11" d="M86.27,63.57l.34-13.6-.08-2.7,1.01-3.31h5.26v-3.58c-.02-3.01-2.45-5.44-5.46-5.44h-16.81c-3.01-.02-5.44,2.42-5.46,5.42v3.59h4.38v2.67l.65,2.64v14.31h16.17Z"/>
          <path class="cls-4" d="M72.98,34.15l4.62,10.49,4.6-10.49h-9.22Z"/>
          <path class="cls-9" d="M86.53,43.96c0-.55.45-1.01,1.01-1.01h4.25v-2.65c0-2.54-2-4.6-4.45-4.6h-5.14c-.55,0-1.01-.45-1.01-1.01s.45-1.01,1.01-1.01h5.14c3.56,0,6.46,2.97,6.46,6.62v3.66c0,.55-.45,1.01-1.01,1.01h-5.26c-.55,0-1.01-.45-1.01-1.01h0Z"/>
          <path class="cls-9" d="M64.06,43.96v-3.66c0-3.64,2.9-6.62,6.46-6.62h2.45c.55,0,1.01.45,1.01,1.01s-.45,1.01-1.01,1.01h-2.45c-2.45,0-4.45,2.07-4.45,4.6v2.65h3.38c.55,0,1.01.45,1.01,1.01s-.45,1.01-1.01,1.01h-4.38c-.55,0-1.01-.45-1.01-1.01h0Z"/>
          <path class="cls-9" d="M79.66,64.06c-.55,0-1.01-.45-1.01-1.01s.45-1.01,1.01-1.01h5.94v-12.07c0-.17.03-.34.12-.49.62-1.29.94-2.7.96-4.13-.02-1.54-.99-3.02-.99-3.04-.32-.45-.2-1.07.25-1.38l.02-.02c.47-.3,1.09-.18,1.41.27.05.08,1.29,1.98,1.33,4.13-.02,1.68-.37,3.36-1.07,4.89v12.85c0,.55-.45,1.01-1.01,1.01h-6.95Z"/>
          <path class="cls-11" d="M83.22,34.77c-.4-.2-.89-.03-1.07.37,0,.02-.02.02-.02.03l-4.18,9.25c-.08.2-.1.42-.03.62.15.44.62.65,1.04.5h.02l3.96-1.38h.03c.42-.17.64-.64.47-1.06v-.02l-.5-1.28c-.17-.39,0-.86.39-1.04l2.75-1.38.17-.13c.34-.3.39-.82.08-1.16l-.02-.02-2.82-3.11c-.07-.1-.15-.18-.27-.22h0Z"/>
          <path class="cls-9" d="M77.95,46.44c-.92-.42-1.34-1.49-.92-2.42l4.18-9.25c.1-.24.25-.44.44-.62.76-.67,1.91-.6,2.6.13l2.8,3.12c.12.12.2.25.29.4.45.91.1,2-.81,2.47l-2.6,1.31.44,1.13.03.07c.34.96-.17,2.01-1.13,2.35l-3.96,1.38c-.2.07-.4.1-.6.1-.27,0-.52-.05-.76-.17h0ZM81.99,42.19c-.37-.89.02-1.9.87-2.33l2.54-1.28-2.47-2.74-3.9,8.61,3.39-1.18-.44-1.09Z"/>
          <path class="cls-11" d="M71.95,34.77c.4-.2.89-.03,1.07.37,0,.02.02.02.02.03l4.18,9.25c.08.2.1.42.02.62-.13.42-.59.65-1.02.5h-.02l-3.96-1.38h-.03c-.42-.17-.64-.64-.47-1.06v-.02l.5-1.28c.17-.39,0-.86-.39-1.04l-2.75-1.38c-.07-.03-.12-.08-.17-.13-.34-.3-.39-.82-.08-1.16l.02-.02,2.82-3.11c.07-.1.15-.18.27-.22h0Z"/>
          <path class="cls-9" d="M75.86,46.51l-3.96-1.38-.08-.03c-.94-.39-1.39-1.44-1.02-2.38l.45-1.13-2.6-1.31c-.13-.08-.27-.17-.4-.27-.74-.69-.81-1.85-.13-2.6l2.82-3.12c.17-.18.37-.34.6-.44.92-.42,2.01,0,2.43.92l4.16,9.25c.12.24.17.49.17.76,0,1.01-.82,1.83-1.83,1.83-.2,0-.4-.03-.6-.1h0ZM69.77,38.58l2.54,1.28c.86.44,1.23,1.44.87,2.33l-.44,1.09,3.39,1.18-3.9-8.61-2.47,2.74Z"/>
          <path class="cls-3" d="M65.07,43.96h16.91v19.09h-16.91v-19.09Z"/>
          <path class="cls-9" d="M64.06,63.05v-19.09c0-.55.45-1.01,1.01-1.01h16.91c.55,0,1.01.45,1.01,1.01v19.09c0,.55-.45,1.01-1.01,1.01h-16.91c-.55,0-1.01-.45-1.01-1.01h0ZM80.97,44.97h-14.89v17.08h14.89v-17.08Z"/>
          <path class="cls-4" d="M71.75,54.18c.02-.82.69-1.48,1.51-1.49h1.7l-.5-1.65c-.24-.77.12-1.61.84-1.98h.03c.64-.32,1.41-.22,1.95.27l3.58,3.36,5.22-.25h.54v-2.47c.71-1.44,1.06-3.02,1.07-4.63-.02-.37-.05-.72-.13-1.07h5.24v11.89c-.02,1.38-1.14,2.5-2.52,2.5h-17.01c-.82-.02-1.49-.67-1.51-1.49v-2.97Z"/>
          <path class="cls-9" d="M70.74,57.16v-2.97c.02-1.38,1.14-2.49,2.52-2.5h.34l-.12-.34c-.37-1.24.2-2.57,1.34-3.17h.05c1.02-.52,2.25-.35,3.09.44l3.27,3.07,4.37-.22v-1.48c0-.17.03-.34.12-.49.62-1.29.94-2.7.96-4.15-.02-.3-.05-.59-.12-.87,0-.07-.02-.13-.02-.2,0-.55.45-1.01,1.01-1.01h5.24c.55,0,1.01.45,1.01,1.01v11.89c-.02,1.95-1.58,3.51-3.53,3.51h-17.01c-1.39-.02-2.5-1.13-2.52-2.52ZM88.69,45.27v.05c-.02,1.68-.37,3.36-1.07,4.89v2.23c0,.55-.45,1.01-1.01,1.01h-.52l-5.19.25c-.27.02-.54-.08-.74-.27l-3.58-3.38c-.22-.2-.52-.24-.79-.12l-.03.03c-.3.13-.45.47-.35.79l.5,1.65c.03.08.05.18.05.29,0,.55-.45,1.01-1.01,1.01h-1.7c-.27,0-.49.22-.5.49v2.97c.02.27.24.49.5.49h17.01c.82,0,1.49-.67,1.51-1.49v-10.88h-3.09Z"/>
          <path class="cls-4" d="M70.56,19.16s2.85.6,6.53-.07c5.24-.94,7.94-3.17,7.94-3.17,0,0,.6,3.19.96,7,.25,2.57.08,4.52-.25,5.99-1.54,4.3-6.28,6.53-10.6,4.99-3.29-1.18-5.49-4.32-5.47-7.81v-2.15c.1-1.63.4-3.22.89-4.79h0Z"/>
          <g>
            <path class="cls-9" d="M68.66,26.09v-2.22c.1-1.71.42-3.43.96-5.05.17-.47.67-.74,1.16-.64,2.03.32,4.11.29,6.13-.08,4.89-.87,7.47-2.96,7.49-2.97.13-.1.29-.18.45-.2.55-.1,1.07.25,1.18.81.03.12.62,3.27.97,7.09.24,2.42.13,4.55-.29,6.33-.02.03-.02.08-.03.12-1.75,4.82-7.07,7.32-11.89,5.57-3.68-1.34-6.13-4.84-6.13-8.75ZM84.76,28.63c.35-1.56.44-3.44.24-5.63s-.49-4.11-.69-5.41c-1.36.79-3.73,1.88-7.04,2.49-1.98.37-4,.44-5.99.2-.32,1.21-.52,2.45-.6,3.69v2.12c0,4.01,3.24,7.27,7.27,7.27,3.04.02,5.76-1.88,6.82-4.74h0Z"/>
            <circle class="cls-9" cx="73.51" cy="22.92" r="1.09"/>
            <circle class="cls-9" cx="81.72" cy="23.04" r="1.09"/>
            <path class="cls-9" d="M74.82,28.86c-.3-.47-.18-1.09.29-1.39.45-.3,1.07-.18,1.38.25,0,.02.02.02.02.03.18.29.72.59,1.44.59s1.23-.29,1.43-.55c.34-.45.96-.54,1.41-.2s.54.96.2,1.41c-.64.86-1.78,1.36-3.04,1.36s-2.52-.57-3.12-1.49h0Z"/>
          </g>
          <path class="cls-5" d="M66.28,20.75c.81-7.81,5.1-12.56,12.41-12.73s10.85,5.37,11.7,11.07,1.19,9.64,1.19,14.74c0,1.34-8.77-.5-8.77-.5,0,0,2.05-.74,2.92-4.42.34-1.48.5-3.43.25-5.99-.35-3.81-.96-7-.96-7,0,0-2.7,2.23-7.94,3.17-3.68.67-6.53.07-6.53.07-.49,1.56-.79,3.16-.89,4.79-.07.92-.07,1.86,0,2.79.27,3.95,3.07,5.98,3.48,7.1,0,0-6.26.79-6.48.55-1.83-1.8-.96-8.23-.39-13.63h0Z"/>
          <path class="cls-9" d="M65.94,35.11c-2.01-2-1.43-7.39-.82-13.11l.15-1.36c.89-8.46,5.78-13.43,13.38-13.62h.35c7.79,0,11.5,6.13,12.38,11.92.87,5.79,1.21,9.87,1.21,14.89,0,.4-.17.77-.49,1.02-.49.39-1.34.76-5.49.17-2.05-.3-3.93-.69-4-.71-.34-.07-.62-.32-.74-.65-.2-.5.05-1.09.57-1.28.02,0,.02-.02.03-.02s1.56-.69,2.27-3.69c.37-1.56.45-3.46.25-5.68s-.49-4.11-.69-5.41c-1.36.79-3.73,1.88-7.04,2.49-1.98.37-4,.44-5.99.2-.32,1.23-.52,2.47-.6,3.73-.07.89-.07,1.76,0,2.65.17,2.47,1.46,4.1,2.4,5.29.47.59.84,1.06,1.02,1.54l.05.22c.07.55-.32,1.06-.87,1.13-3.51.44-5.24.59-6.16.59s-.97-.13-1.18-.32h0ZM71.36,33.03c-1.04-1.31-2.5-3.26-2.7-6.23-.07-.97-.07-1.95,0-2.92.1-1.71.42-3.43.96-5.05.17-.47.67-.74,1.16-.64,2.03.32,4.11.3,6.13-.08,4.89-.87,7.47-2.96,7.49-2.97.13-.1.29-.18.45-.2.54-.12,1.06.24,1.18.77v.03c.03.12.62,3.27.97,7.09.24,2.42.13,4.55-.29,6.33-.42,1.78-1.01,2.8-1.63,3.59,2.3.4,4.55.65,5.49.57-.02-4.67-.34-8.41-1.19-14.07-.35-2.43-2.22-10.41-10.68-10.21-6.58.15-10.65,4.35-11.44,11.82-.03.45-.08.91-.13,1.36-.44,4.05-1.04,9.52.03,11.22.72-.03,2.42-.18,4.2-.4h0Z"/>
          <path class="cls-3" d="M10.58,63.57l-1.06,29.05h9.76l3.12-21.51,3.29,21.51h9.4l-.94-29.05"/>
          <path class="cls-9" d="M9.49,93.63c-.55-.02-.99-.49-.97-1.04l1.06-29.07c.02-.55.47-.97,1.02-.96h.02c.55.02.99.49.97,1.04l-1.06,29.05c-.02.54-.47.97-1.01.97h-.03Z"/>
          <path class="cls-9" d="M24.7,92.77l-2.27-14.83-2.17,14.83c-.13.54-.69.86-1.23.72-.45-.12-.77-.54-.76-1.01l3.12-21.53c.07-.49.49-.86.99-.86s.92.37.99.86l3.29,21.51c.08.55-.29,1.07-.82,1.16h-.17c-.5,0-.92-.37-.99-.86h0Z"/>
          <path class="cls-9" d="M34.09,92.65l-.94-29.05c-.02-.55.42-1.02.97-1.04s1.02.42,1.04.97l.94,29.05c.02.55-.42,1.02-.97,1.04h-.03c-.54,0-.99-.44-1.01-.97Z"/>
          <path class="cls-3" d="M8.6,53.97v9.6h27.54v-9.6"/>
          <path class="cls-9" d="M7.59,63.57v-9.6c0-.55.45-1.01,1.01-1.01s1.01.45,1.01,1.01v8.6h25.52v-8.6c0-.55.45-1.01,1.01-1.01s1.01.45,1.01,1.01v9.6c0,.55-.45,1.01-1.01,1.01H8.6c-.55,0-1.01-.45-1.01-1.01Z"/>
          <path class="cls-8" d="M19.96,33.72l7.1.08-3.63,5.12-3.48-5.21Z"/>
          <path class="cls-3" d="M12.83,33.4h7.24c.24,0,.45.12.59.3v.03l.03.05,2.15,3.01c.03.07.08.12.15.15.32.24.76.17,1.01-.13l2.18-3.02.07-.1c.13-.17.35-.29.57-.29h6.92c3.14,0,5.69,2.43,5.69,5.44v11.1H7.19l-.03-11.1c0-3.01,2.54-5.44,5.68-5.44h0Z"/>
          <path class="cls-9" d="M6.18,49.94l-.03-11.1c0-1.68.67-3.29,1.86-4.47,1.28-1.28,3.01-1.98,4.82-1.98h7.24c.55,0,1.07.27,1.41.72l1.96,2.75,1.93-2.67.07-.1c.34-.44.84-.71,1.39-.71h6.92c3.69,0,6.7,2.9,6.7,6.45v11.1c0,.55-.45,1.01-1.01,1.01H7.19c-.55,0-1.01-.45-1.01-1.01h0ZM38.43,38.84c0-2.43-2.1-4.43-4.68-4.43h-6.77l-2.17,2.99c-.32.44-.84.71-1.39.71s-1.07-.27-1.39-.72l-2.1-2.97h-7.1c-1.28-.02-2.5.49-3.39,1.39-.82.81-1.28,1.9-1.28,3.04l.03,10.09h30.24v-10.09Z"/>
          <path class="cls-9" d="M22.55,51.36v-13.32c0-.55.45-1.01,1.01-1.01s1.01.45,1.01,1.01v13.32c0,.55-.45,1.01-1.01,1.01s-1.01-.45-1.01-1.01Z"/>
          <path class="cls-3" d="M19.96,33.72h.71l.03.05,2.15,3.01c.03.07.08.12.15.15.32.24.76.17,1.01-.13l2.18-3.02h.87l2.75,5.16-6.52-1.43-6.77.72,3.43-4.5Z"/>
          <path class="cls-9" d="M29.6,39.89l-6.36-1.38-6.58.69c-.25.03-.52-.03-.72-.2-.44-.32-.54-.94-.2-1.39l.02-.02,3.41-4.48c.2-.25.5-.4.82-.4h.71c.32,0,.62.15.81.42l1.95,2.74,1.93-2.67c.18-.27.5-.42.82-.42h.89c.37,0,.71.2.87.52l2.75,5.12c.07.15.12.32.12.49,0,.55-.45,1.01-1.01,1.01l-.22-.02ZM25.2,36.87l2.69.59-1.33-2.47-1.36,1.88ZM20.3,34.94l-1.53,2.01,2.75-.29-1.23-1.73Z"/>
          <path class="cls-9" d="M13.85,43.3c0-.55.45-1.01,1.01-1.01h5.22c.55,0,1.01.45,1.01,1.01s-.45,1.01-1.01,1.01h-5.22c-.55,0-1.01-.45-1.01-1.01Z"/>
          <path class="cls-2" d="M22.3,51.45l-8.4-4.94-6.48.81v3.21"/>
          <path class="cls-9" d="M21.79,52.32l-8.11-4.77-5.26.65v2.32c0,.55-.45,1.01-1.01,1.01s-1.01-.45-1.01-1.01v-3.21c0-.5.37-.94.87-1.01l6.5-.81c.22-.02.44.02.62.13l8.41,4.95c.47.29.62.91.32,1.39-.18.29-.5.47-.84.47-.18,0-.35-.05-.5-.13h0Z"/>
          <path class="cls-2" d="M38.49,56.03l-5.63,1.9-22.67.12c-1.41,0-2.92-1.13-2.92-2.55v-4.05l24.42-.12,4.67-3.64"/>
          <path class="cls-9" d="M6.26,55.51v-4.06c0-.55.45-1.01,1.01-1.01l24.08-.12,4.38-3.43c.44-.34,1.06-.27,1.39.17l.02.02c.34.44.27,1.07-.17,1.41l-4.67,3.63c-.17.13-.39.22-.6.22l-23.42.12v3.04c0,.84,1.06,1.54,1.91,1.54l22.5-.12,5.47-1.85c.52-.18,1.09.1,1.28.64.18.52-.1,1.09-.64,1.28l-5.63,1.9c-.1.03-.22.05-.32.05l-22.67.12c-1.85,0-3.93-1.46-3.93-3.54h0Z"/>
          <ellipse class="cls-2" cx="13.53" cy="21.26" rx="1.96" ry="1.85"/>
          <path class="cls-9" d="M10.56,21.26c0-1.58,1.34-2.85,2.97-2.85s2.99,1.28,2.99,2.85-1.34,2.85-2.99,2.85-2.97-1.28-2.97-2.85ZM13.53,20.42c-.52,0-.96.39-.96.84s.44.84.96.84.97-.37.97-.84-.44-.84-.97-.84Z"/>
          <ellipse class="cls-2" cx="32.42" cy="21.44" rx="1.96" ry="1.85"/>
          <path class="cls-9" d="M29.45,21.44c0-1.56,1.33-2.84,2.97-2.84s2.97,1.28,2.97,2.84-1.33,2.85-2.97,2.85-2.97-1.28-2.97-2.85ZM31.47,21.44c0,.47.42.84.96.84s.96-.37.96-.84-.42-.82-.96-.82-.96.37-.96.82Z"/>
          <path class="cls-2" d="M31.48,18.03v8.83c-.02,3.86-3.16,7-7.02,7h-2.57c-3.86,0-7-3.14-7.02-7v-8.83h16.61Z"/>
          <path class="cls-9" d="M13.87,26.86v-8.83c0-.55.45-1.01,1.01-1.01h16.61c.55,0,1.01.45,1.01,1.01v8.83c-.02,4.43-3.59,8.01-8.03,8.01h-2.57c-4.43,0-8.01-3.58-8.03-8.01h0ZM15.88,19.04v7.82c.02,3.31,2.7,5.98,6.01,5.99h2.57c3.31.02,5.99-2.67,6.01-5.98v-7.84h-14.59Z"/>
          <path class="cls-9" d="M20.15,22.93c0,.6-.49,1.09-1.09,1.09s-1.09-.49-1.09-1.09.49-1.09,1.09-1.09,1.09.49,1.09,1.09Z"/>
          <path class="cls-9" d="M28.38,23.05c.02.6-.49,1.11-1.09,1.13s-1.11-.49-1.13-1.09.49-1.11,1.09-1.13h.02c.6,0,1.09.49,1.11,1.09Z"/>
          <path class="cls-9" d="M19.9,28.91c-.35-.44-.29-1.06.13-1.41.44-.35,1.06-.29,1.41.13.05.05.08.12.12.18.18.29.72.59,1.44.59s1.23-.27,1.43-.55h.02c.37-.42,1.01-.47,1.43-.1.39.34.47.91.17,1.33-.64.86-1.78,1.36-3.04,1.36s-2.5-.6-3.11-1.53Z"/>
          <path class="cls-3" d="M31.97,16.05v1.83H14.09v-1.83c0-4.43,3.59-8.03,8.03-8.03h1.83c4.43,0,8.03,3.59,8.03,8.03Z"/>
          <path class="cls-9" d="M13.08,17.88v-1.83c0-4.99,4.05-9.03,9.03-9.03h1.83c4.99,0,9.03,4.05,9.03,9.03v1.83c0,.55-.45,1.01-1.01,1.01H14.09c-.55,0-1.01-.45-1.01-1.01ZM30.96,16.05c0-3.88-3.14-7.02-7.02-7.02h-1.83c-3.88,0-7.02,3.14-7.02,7.02v.82h15.87v-.82Z"/>
          <path class="cls-3" d="M27.89,13.78c2.25,0,4.08,1.83,4.08,4.08,0,.86-.69,1.54-1.54,1.54h-14.71c-.86,0-1.54-.69-1.54-1.54,0-2.25,1.83-4.08,4.08-4.08h9.64Z"/>
          <path class="cls-9" d="M13.16,17.86c0-2.8,2.28-5.09,5.09-5.09h9.64c2.8,0,5.09,2.28,5.09,5.09,0,1.41-1.14,2.55-2.55,2.55h-14.71c-1.41,0-2.55-1.14-2.55-2.55ZM18.25,14.79c-1.7,0-3.07,1.38-3.07,3.07,0,.3.24.54.54.54h14.71c.3,0,.54-.24.54-.54,0-1.7-1.38-3.07-3.07-3.07h-9.64Z"/>
          <path class="cls-7" d="M38.92,63.57l-1.28,29.05h9.76l3.36-21.51,3.29,21.51h9.4l-.94-29.05"/>
          <path class="cls-9" d="M37.6,93.63c-.55-.02-.97-.47-.96-1.02v-.02l1.28-29.07c.03-.55.5-.97,1.06-.96s.97.47.96,1.02v.02l-1.28,29.07c-.03.54-.47.96-1.01.96h-.05Z"/>
          <path class="cls-9" d="M47.4,93.63h-.15c-.55-.08-.92-.6-.84-1.14v-.02l3.34-21.51c.08-.49.5-.86,1.01-.86s.92.37.99.86l3.29,21.51c.08.55-.3,1.06-.84,1.14-.55.08-1.07-.3-1.16-.86l-2.3-15.05-2.35,15.08c-.07.49-.5.84-.99.84h0Z"/>
          <path class="cls-9" d="M62.45,92.65l-.94-29.05c-.02-.55.42-1.02.97-1.04s1.02.42,1.04.97l.94,29.05c.02.55-.42,1.02-.97,1.04h-.03c-.55.02-.99-.42-1.01-.97Z"/>
          <path class="cls-10" d="M62.66,50.64v12.93h-23.74v-12.93"/>
          <path class="cls-9" d="M37.91,63.57v-12.93c0-.55.45-1.01,1.01-1.01s1.01.45,1.01,1.01v11.92h21.73v-11.92c0-.55.45-1.01,1.01-1.01s1.01.45,1.01,1.01v12.93c0,.55-.45,1.01-1.01,1.01h-23.74c-.55,0-1.01-.45-1.01-1.01h0Z"/>
          <path class="cls-10" d="M65.96,49.5v-11.25c0-2.25-1.88-4.06-4.2-4.06h-20.77c-2.3,0-4.18,1.81-4.18,4.06v14.19"/>
          <path class="cls-9" d="M36.81,53.45c-.55,0-1.01-.45-1.01-1.01v-14.19c0-2.8,2.33-5.07,5.19-5.07h20.77c2.87,0,5.21,2.27,5.21,5.07v11.25c0,.55-.45,1.01-1.01,1.01s-1.01-.45-1.01-1.01v-11.25c0-1.7-1.43-3.06-3.19-3.06h-20.77c-1.75,0-3.17,1.36-3.17,3.06v14.19c0,.55-.45,1.01-1.01,1.01h0Z"/>
          <path class="cls-7" d="M49.72,36.25l-.74,13.63,3.32,2.55,2.96-2.55-1.11-13.63"/>
          <path class="cls-9" d="M51.68,53.24l-3.32-2.57c-.25-.2-.4-.52-.39-.84l.74-13.63c.03-.55.5-.99,1.06-.96s.99.5.96,1.06l-.71,13.11,2.25,1.73,1.93-1.7-1.06-13.11c-.05-.55.37-1.04.92-1.09.54-.05,1.02.35,1.07.91v.02l1.11,13.63c.03.32-.1.64-.34.84l-2.96,2.57c-.18.15-.42.24-.65.24-.22,0-.44-.07-.62-.2h0Z"/>
          <path class="cls-7" d="M54.15,34.29l-4.33-.1c-.67-.03-1.02.86-.54,1.38l2.17,2.27v.03c.27.25.71.25.97-.02l2.08-2.07c.47-.47.29-1.46-.35-1.49h0Z"/>
          <path class="cls-9" d="M51.92,39.05c-.45,0-.89-.2-1.21-.54l-2.17-2.27c-.52-.55-.65-1.36-.32-2.05.27-.65.92-1.06,1.63-1.02l4.32.1h.03c.65.03,1.23.47,1.44,1.09.29.74.12,1.56-.44,2.13l-2.07,2.05c-.32.32-.74.5-1.19.5h-.03ZM50.32,35.19l1.63,1.71,1.63-1.63-3.26-.08Z"/>
          <path class="cls-9" d="M42.68,44.53v-2.6c0-.55.45-1.01,1.01-1.01s1.01.45,1.01,1.01v2.6c0,.55-.45,1.01-1.01,1.01s-1.01-.45-1.01-1.01Z"/>
          <path class="cls-9" d="M58.37,48.32v-6.4c0-.55.45-1.01,1.01-1.01s1.01.45,1.01,1.01v6.4c0,.55-.45,1.01-1.01,1.01s-1.01-.45-1.01-1.01Z"/>
          <path class="cls-10" d="M36.81,50.1v3.53c0,1.04,1.07,1.86,2.4,1.86h3.11c.4.02.79-.05,1.16-.2l7.09-2.85"/>
          <path class="cls-9" d="M35.8,53.63v-3.53c0-.55.45-1.01,1.01-1.01s1.01.45,1.01,1.01v3.53c0,.42.59.87,1.39.87h3.11c.27,0,.52-.05.77-.15l7.1-2.85h.03c.5-.2,1.09.05,1.29.55v.02c.2.52-.05,1.11-.57,1.31l-7.1,2.84c-.49.2-1.01.3-1.53.29h-3.11c-1.88,0-3.41-1.28-3.41-2.87h0Z"/>
          <path class="cls-8" d="M44.88,44.63l-8.08-.4v5.91h5.71"/>
          <path class="cls-9" d="M35.8,50.14v-5.96c.03-.55.5-.97,1.06-.96l8.08.4c.55.03.99.5.96,1.06s-.5.97-1.06.96l-7.02-.35v3.85h4.7c.55,0,1.01.45,1.01,1.01s-.45,1.01-1.01,1.01h-5.71c-.55,0-1.01-.45-1.01-1.01h0Z"/>
          <path class="cls-10" d="M65.35,54.59l-.1.25c-.64,1.51-2.38,2.22-3.9,1.58l-18.45-5.81,1.98-5.98,21.07,4.87-.6,5.09Z"/>
          <path class="cls-9" d="M61,57.37l-18.4-5.79c-.52-.17-.82-.74-.65-1.26l1.98-6.01c.17-.49.67-.79,1.18-.67l21.07,4.87c.5.12.84.59.77,1.11l-.6,5.09c0,.07-.02.12-.03.18-.52,1.65-2.07,2.77-3.79,2.77-.52,0-1.02-.1-1.51-.29h0ZM64.85,50.27l-19.29-4.45-1.38,4.13,17.48,5.51.08.03.08.03c1.02.37,2.15-.15,2.54-1.18l.49-4.08Z"/>
          <g>
            <ellipse class="cls-8" cx="41.96" cy="21.19" rx="1.96" ry="1.85"/>
            <path class="cls-9" d="M38.99,21.19c0-1.58,1.33-2.85,2.97-2.85s2.97,1.28,2.97,2.85-1.33,2.84-2.97,2.84-2.97-1.28-2.97-2.84ZM41,21.19c0,.45.42.82.96.82s.96-.37.96-.82-.44-.84-.96-.84-.96.37-.96.84Z"/>
            <ellipse class="cls-8" cx="60.8" cy="21.37" rx="1.96" ry="1.85"/>
            <path class="cls-9" d="M57.83,21.37c0-1.58,1.33-2.85,2.97-2.85s2.97,1.28,2.97,2.85-1.34,2.85-2.97,2.85-2.97-1.29-2.97-2.85ZM59.84,21.37c0,.45.42.84.96.84s.96-.39.96-.84-.44-.84-.96-.84-.96.39-.96.84Z"/>
            <path class="cls-8" d="M50.66,33.77c-4.06,0-7.35-3.29-7.35-7.35v-11.79l16.56,1.07v10.71c0,4.06-3.29,7.35-7.35,7.35h-1.85Z"/>
            <g>
              <path class="cls-9" d="M42.3,26.41v-11.84c.03-.55.49-.97,1.04-.94h.03l16.56,1.06c.54.03.94.47.94,1.01v10.71c0,4.62-3.74,8.36-8.36,8.36h-1.85c-4.62,0-8.36-3.74-8.36-8.36ZM44.31,15.7v10.71c0,3.51,2.84,6.35,6.35,6.35h1.85c3.51,0,6.35-2.84,6.35-6.35v-9.77l-14.54-.94Z"/>
              <path class="cls-9" d="M48.39,28.74c-.3-.47-.17-1.07.29-1.39.47-.3,1.09-.17,1.39.3.2.29.72.59,1.46.59s1.21-.27,1.41-.55c.34-.45.96-.54,1.41-.2s.54.96.2,1.41c-.64.86-1.78,1.36-3.02,1.36s-2.52-.59-3.14-1.51h0Z"/>
              <circle class="cls-9" cx="47.15" cy="22.31" r="1.09"/>
              <circle class="cls-9" cx="55.36" cy="22.43" r="1.09"/>
            </g>
            <path class="cls-6" d="M57.07,17.75c-.45-.18-12.11-.27-13.77-1.54s-1.39-5.91-1.34-7.04c0-.02,0-.05.02-.07.03-.07.13-.1.2-.07.5.25,1.96.91,4.47,1.41,3.17.64,3.98-1.26,6.35-1.39,2.8-.15,5,1.39,6.52,3.43,1.51,2.03.42,9.34.42,9.34,0,0-2.4-3.88-2.85-4.06Z"/>
            <path class="cls-9" d="M59.09,22.35c-.89-1.43-2.01-3.11-2.47-3.64l-2.01-.1c-6.62-.3-10.7-.67-11.92-1.6-1.7-1.31-1.81-5.49-1.73-7.88,0-.17.03-.32.12-.47.29-.57.97-.81,1.54-.54.49.24,1.85.84,4.23,1.33,1.54.32,2.33-.07,3.32-.55s1.6-.79,2.77-.84c2.8-.17,5.44,1.19,7.37,3.81,1.68,2.27.81,8.8.62,10.09-.08.49-.5.86-1.01.86-.34,0-.67-.17-.84-.47h0ZM53.04,10.06c-.76.05-1.33.32-1.98.65-1.07.52-2.4,1.16-4.62.72-1.19-.24-2.35-.57-3.49-.97.02,2.75.49,4.58.96,4.94.1.08.77.45,4.3.79,2.2.2,4.68.32,6.5.4,2.27.1,2.49.12,2.74.22s.54.24,1.8,2.07c.15-2.43.08-4.97-.54-5.79-1.04-1.39-2.79-3.02-5.34-3.02h-.32Z"/>
          </g>
        </g>
      </g>
    </g>
  </g>
</svg>