<?xml version="1.0" encoding="UTF-8"?>
<svg id="Layer_2" data-name="Layer 2" xmlns="http://www.w3.org/2000/svg" xmlns:xlink="http://www.w3.org/1999/xlink" viewBox="0 0 99.94 99.8">
  <defs>
    <style>
      .cls-1 {
        fill: none;
      }

      .cls-2 {
        fill: #1fadab;
      }

      .cls-3 {
        fill: #fc8086;
      }

      .cls-4 {
        fill: #f47c7c;
      }

      .cls-5 {
        clip-path: url(#clippath);
      }
    </style>
    <clipPath id="clippath">
      <rect class="cls-1" x="26.44" y="8.54" width="44.67" height="85.37"/>
    </clipPath>
  </defs>
  <g id="info1">
    <g>
      <rect class="cls-1" width="99.94" height="99.8"/>
      <g id="g1461">
        <g id="g1463">
          <g class="cls-5">
            <g id="g1465">
              <g id="g1471">
                <g id="path1473">
                  <path class="cls-3" d="M53.97,72.7c-1.5,1.12-3.14,2.15-4.92,3.07-.54.28-1.06.56-1.56.84,10.23,5.77,11.12,11.08,11.12,16.04h6.74c0-6.2-1.47-13.29-11.38-19.96"/>
                </g>
              </g>
              <g id="g1475">
                <g id="path1477">
                  <path class="cls-2" d="M36.38,92.66h-6.74c0-7.11,1.94-15.38,16.3-22.86,5.1-2.66,8.75-6.29,10.84-10.79,1.66-3.58,1.84-6.63,1.84-7.78s-.18-4.21-1.84-7.78c-2.09-4.5-5.73-8.13-10.84-10.79-14.36-7.48-16.3-15.75-16.3-22.86h6.74c0,5.2.98,10.8,12.67,16.89,6.45,3.36,11.11,8.05,13.83,13.93,2.22,4.79,2.46,9.02,2.46,10.62s-.24,5.83-2.46,10.62c-2.73,5.88-7.38,10.57-13.83,13.93-11.69,6.09-12.67,11.68-12.67,16.89"/>
                </g>
              </g>
              <g id="g1483">
                <g id="path1485">
                  <path class="cls-4" d="M41.02,72.7c1.45-.98,3.08-1.95,4.91-2.9.54-.28,1.05-.57,1.56-.87-4.29-2.56-7.41-5.89-9.28-9.92-1.66-3.58-1.84-6.63-1.84-7.78s.18-4.21,1.84-7.78c2.09-4.5,5.73-8.13,10.84-10.79,14.36-7.48,16.3-15.75,16.3-22.86h-6.74c0,5.2-.98,10.8-12.67,16.89-6.45,3.36-11.11,8.05-13.83,13.93-2.22,4.79-2.46,9.02-2.46,10.62s.24,5.83,2.46,10.62c1.98,4.26,4.97,7.9,8.92,10.85"/>
                </g>
              </g>
              <g id="g1491">
                <g id="path1493">
                  <path class="cls-3" d="M53.97,72.7c-1.5,1.12-3.14,2.15-4.92,3.07-.54.28-1.06.56-1.56.84,10.23,5.77,11.12,11.08,11.12,16.04h6.74c0-6.2-1.47-13.29-11.38-19.96"/>
                </g>
              </g>
              <g id="g1515">
                <g id="path1517">
                  <path d="M41.02,31.01c-.24,0-.48-.07-.7-.21-4.72-3.18-7.94-6.67-9.84-10.66-1.88-3.95-2.1-7.79-2.1-10.34,0-.69.56-1.25,1.25-1.25h6.74c.69,0,1.25.56,1.25,1.25,0,2.6.27,4.8,1.56,7.11,1.56,2.78,4.48,5.34,8.92,7.85.6.34.81,1.1.48,1.7-.34.6-1.1.81-1.7.48-9.97-5.62-11.54-11.09-11.73-15.88h-4.24c.2,5.46,1.95,11.7,10.81,17.67.57.39.72,1.16.34,1.74-.24.36-.64.55-1.04.55Z"/>
                </g>
              </g>
              <path d="M63.27,37.47c-.5-.94-1.05-1.84-1.66-2.71-.85-1.21-4.86-7.16-6.89-5.43-1.16.99,2.58,4.18,3.11,4.82,3.5,4.19,5.36,9.16,6.13,14.51.32,2.19.23,4.2-.27,6.41-1.69,8.23-6.73,14.79-13.91,19.09-3.91,2.54-8.2,4.9-11.07,8.53-2.2,2.07-3.29,8.88-6.4,8.57-2.25-1.29-.43-5.52.59-7.51,3.24-6.96,12-11.19,18.09-15.79,10.4-8.5,11.84-22.17,2.34-32.08-2.75-3.02-9.91-6.36-3.31.23,8.36,8.35,9.78,19.41,1.19,28.15-3.03,3.07-6.97,5.11-10.52,7.51-4.96,3.34-8.87,7.27-10.91,12.75-.84,2.5-2.01,5.79-.84,8.18.85,1.53,3.2,2.27,5.17,1.61,3.63-1.14,3.69-5.33,5.56-8.44,1.74-2.93,4.2-4.78,7.14-6.76,4.34-2.79,9.28-5.68,12.46-9.46,5.47-6.49,8.18-15.14,6.85-23.57-.47-3-1.44-5.93-2.86-8.62Z"/>
              <path d="M65.35,8.54h-6.74c-.69,0-1.25.56-1.25,1.25,0,2.73-.3,5.04-1.77,7.46-1.79,2.94-5.13,5.66-10.23,8.32-6.7,3.49-11.54,8.37-14.39,14.51-2.33,5.02-2.58,9.46-2.58,11.14,0,5.12,1.52,11.42,4.86,15.42,2.09,2.51,4.4,5.08,7.03,7.05.22.17.49.25.75.25.38,0,.76-.17,1-.5.41-.55.3-1.34-.25-1.75-2.45-1.84-4.58-4.25-6.55-6.58-3.03-3.58-4.33-9.27-4.33-13.89,0-1.51.23-5.53,2.35-10.09,2.61-5.63,7.08-10.12,13.28-13.35,5.52-2.87,9.18-5.89,11.21-9.24,1.59-2.62,2.02-5.14,2.11-7.51h4.24c-.1,2.71-.59,6.03-2.57,9.41-2.44,4.17-6.7,7.8-13.03,11.09-5.35,2.79-9.19,6.61-11.39,11.37-1.76,3.8-1.95,7.08-1.95,8.31s.19,4.51,1.95,8.31c1.97,4.25,5.26,7.77,9.77,10.46.2.12.42.18.64.18.43,0,.84-.22,1.08-.61.35-.59.16-1.36-.43-1.71-4.07-2.43-7.03-5.58-8.79-9.37-1.55-3.35-1.72-6.19-1.72-7.26s.17-3.91,1.72-7.26c1.97-4.24,5.43-7.68,10.28-10.21,6.76-3.52,11.35-7.46,14.04-12.05,2.6-4.44,2.93-8.7,2.93-11.92,0-.69-.56-1.25-1.25-1.25Z"/>
              <g id="g1535">
                <g id="path1537">
                  <path d="M65.35,93.91h-6.74c-.69,0-1.25-.56-1.25-1.25,0-2.6-.27-4.8-1.56-7.11-1.56-2.78-3.89-4.75-8.33-7.26-.6-.34-.81-1.1-.48-1.7.34-.6,1.1-.81,1.7-.48,9.97,5.62,10.96,10.5,11.15,15.29h4.24c-.2-5.46-1.31-11.25-10.17-17.22-.57-.39-.72-1.16-.34-1.74.39-.57,1.16-.72,1.74-.34,4.72,3.18,7.3,6.21,9.2,10.2,1.88,3.95,2.1,7.79,2.1,10.34,0,.69-.56,1.25-1.25,1.25Z"/>
                </g>
              </g>
              <g id="g1539">
                <g id="path1541">
                  <path d="M58.61,52.48h-22.23c-.69,0-1.25-.56-1.25-1.25s.56-1.25,1.25-1.25h22.23c.69,0,.68.56.68,1.25s.02,1.25-.68,1.25Z"/>
                </g>
              </g>
              <g id="g1543">
                <g id="path1545">
                  <path d="M56.08,43.55h-10.44c-.69,0-1.25-.56-1.25-1.25s.56-1.25,1.25-1.25h10.44c.69,0,1.25.56,1.25,1.25s-.56,1.25-1.25,1.25Z"/>
                </g>
              </g>
              <g id="g1547">
                <g id="path1549">
                  <path d="M49.35,61.41h-10.44c-.69,0-1.25-.56-1.25-1.25s.56-1.25,1.25-1.25h10.44c.69,0,1.25.56,1.25,1.25s-.56,1.25-1.25,1.25Z"/>
                </g>
              </g>
              <g id="g1551">
                <g id="path1553">
                  <path d="M57.94,15.93h-20.88c-.69,0-1.25-.56-1.25-1.25s.56-1.25,1.25-1.25h20.88c.69,0,1.25.56,1.25,1.25s-.56,1.25-1.25,1.25Z"/>
                </g>
              </g>
              <g id="g1555">
                <g id="path1557">
                  <path d="M57.86,89.03h-19.9c-.69,0-1.25-.56-1.25-1.25s.56-1.25,1.25-1.25h19.9c.69,0,1.25.56,1.25,1.25s-.56,1.25-1.25,1.25Z"/>
                </g>
              </g>
            </g>
          </g>
        </g>
      </g>
    </g>
  </g>
</svg>