<?xml version="1.0" encoding="UTF-8"?>
<svg id="Camada_1" xmlns="http://www.w3.org/2000/svg" version="1.1" viewBox="0 0 100 100">
  <!-- Generator: Adobe Illustrator 30.1.0, SVG Export Plug-In . SVG Version: 2.1.1 Build 136)  -->
  <defs>
    <style>
      .st0 {
        fill: #dcc280;
      }

      .st1 {
        fill: #3d352d;
      }

      .st2 {
        fill: #bcd9fa;
      }

      .st3 {
        fill: #d1d1d1;
      }
    </style>
  </defs>
  <circle class="st3" cx="49.9" cy="41.1" r="33"/>
  <circle class="st2" cx="49.6" cy="41.2" r="18"/>
  <path class="st0" d="M75.8,84.9c-.4-.6-1-1.3-1.6-1.9,0,0,0,0,0,0-.6,0-1.3.1-1.9.1-.9.1-1.8.4-2.8.9-2.4,1.1-6.2-.1-5.9-3.4,1-9.8-2.8-20.3,4.1-28.6.3-1.5.7-3.1,1.1-4.6.8-3.1-1.5-6.3-4.8-6.3-9.5,0-19,0-28.5,0-5.4,0-6.2,6.9-2.7,9.2-.3,1.1-.2,2.3.4,3.6,1.6,3.5,4.4,19.9,1.3,26.2,0,2-1.2,4-3.8,4s-1.9-.4-2.5-.9c-4.3,2.2-2.3,8.8,2.6,9.3.4,0,.8,0,1.2,0,.2.6,2.6,2.2,2.8,2.3,1.4.7,2.9,1.1,4.5.9,1.6-.2,3.2-.8,4.3-2,.6-.7,1.4-2.7,1.9-3,.6-.3,3.7.2,4.4.2,2.4.1,4.8.3,7.2.4,4.8.3,9.6.5,14.4.8,3.8.2,6.2-4.4,4.3-7.5ZM56.2,81.6c-.2,0-.4,0-.5,0,.3-.2.6-.4.9-.6,0,.2,0,.5,0,.7-.2,0-.3,0-.5,0ZM57.2,53.7c-.5-1-1.1-1.8-1.8-2.6.8,0,1.5,0,2.3,0-.2.9-.3,1.7-.5,2.6Z"/>
  <g>
    <circle class="st1" cx="49.6" cy="15.8" r="1.5"/>
    <path class="st1" d="M37.4,20.6c.7-.4,1-1.3.6-2.1-.4-.7-1.3-1-2.1-.6s-1,1.3-.6,2.1c.4.7,1.3,1,2.1.6Z"/>
    <path class="st1" d="M26.4,30c.7.4,1.7.2,2.1-.6s.2-1.7-.6-2.1-1.7-.2-2.1.6-.2,1.7.6,2.1Z"/>
    <path class="st1" d="M23.7,40.2c-.8,0-1.5.7-1.5,1.5s.7,1.5,1.5,1.5,1.5-.7,1.5-1.5-.7-1.5-1.5-1.5Z"/>
    <path class="st1" d="M26.4,53.3c-.7.4-1,1.3-.6,2.1.4.7,1.3,1,2.1.6s1-1.3.6-2.1-1.3-1-2.1-.6Z"/>
    <path class="st1" d="M72.8,53.3c-.7-.4-1.7-.2-2.1.6-.4.7-.2,1.7.6,2.1s1.7.2,2.1-.6c.4-.7.2-1.7-.6-2.1Z"/>
    <path class="st1" d="M75.5,43.2c.8,0,1.5-.7,1.5-1.5s-.7-1.5-1.5-1.5-1.5.7-1.5,1.5.7,1.5,1.5,1.5Z"/>
    <path class="st1" d="M72.8,30c.7-.4,1-1.3.6-2.1s-1.3-1-2.1-.6-1,1.3-.6,2.1c.4.7,1.3,1,2.1.6Z"/>
    <path class="st1" d="M61.8,20.6c.7.4,1.7.2,2.1-.6s.2-1.7-.6-2.1-1.7-.2-2.1.6c-.4.7-.2,1.7.6,2.1Z"/>
    <path class="st1" d="M11,88.8c-2.5,0-4.5,2-4.5,4.5s2,4.5,4.5,4.5h6.9c2.5,0,4.5-2,4.5-4.5s-2-4.5-4.5-4.5h-6.9ZM19.4,93.3c0,.8-.7,1.5-1.5,1.5h-6.9c-.8,0-1.5-.7-1.5-1.5s.7-1.5,1.5-1.5h6.9c.8,0,1.5.7,1.5,1.5h0Z"/>
    <path class="st1" d="M91.5,86.1c0-.1.2-.2.3-.3,0,0,0,0,0,0,0,0,0,0,0,0,0,0,0,0,0,0,0,0,0,0,0-.1,0,0,0-.1.1-.2,0,0,0,0,0-.1,0,0,0-.1,0-.2,0-.1,0-.3.1-.5,0,0,0,0,0,0,0,0,0,0,0,0,0,0,0-.2,0-.3,0,0,0-.1,0-.2,0,0,0,0,0,0,0,0,0-.3,0-.3,0,0,0,0,0-.1,0,0,0,0,0,0,0,0,0,0,0,0,0,0,0,0-.1-.1,0,0,0,0,0,0,0,0,0,0,0,0,0,0-.2-.2-.3-.2-.1,0-.2-.1-.3-.2h-25.6c-.3,0-.5-.2-.5-.5v-2c0-.8-.7-1.5-1.5-1.5s-1.5.7-1.5,1.5v2c0,1.9,1.6,3.5,3.5,3.5h5.8c.9,0,1.6.7,1.6,1.5,0,.4-.1.8-.4,1.1-.3.3-.7.5-1.1.5h-23.7c-1.9,0-3.5,1.6-3.5,3.5,0,.3-.2.6-.5.6h-8.9c-.3,0-.5-.2-.5-.5,0-2-1.6-3.5-3.5-3.5h-3.4c-.4,0-.8-.2-1.1-.5-.3-.3-.4-.7-.4-1.1,0-.8.8-1.5,1.6-1.5h5.8c1.9,0,3.5-1.6,3.5-3.5v-24.7c0-2-.6-4-1.9-5.7-1.9-2.7-3.1-5.7-3.3-9h35.7c-.3,3.2-1.4,6.3-3.3,9-1.2,1.7-1.9,3.7-1.9,5.7v15.7c0,.8.7,1.5,1.5,1.5s1.5-.7,1.5-1.5v-1.9c5.3-2.7,9.7-6.8,12.9-11.8,3.5-5.4,5.3-11.7,5.3-18.2,0-18.7-15.2-33.9-33.9-33.9S15.7,23,15.7,41.7s1.8,12.8,5.3,18.2c3.2,5,7.7,9.1,12.9,11.8v10.8c0,.3-.2.5-.5.5H7.3c-.2,0-.4.1-.6.2,0,0-.2,0-.2,0,.2,0,.2,0,0,0,0,0,0,0-.1,0-.1,0-.3.1-.4.2,0,0,0,0,0,0,0,0-.1.1-.2.1,0,0,0,0-.1.1,0,0,0,0,0,0,0,0,0,.1,0,.2,0,0,0,0,0,0,0,0,0,.2,0,.3,0,0,0,.2,0,.2,0,0,0,.1,0,.2,0,0,0,.1,0,.2,0,0,0,0,0,0h0c0,0,0,0,0,0,0,0,0,0,0,0,0,0,0,0,0,0,0,0,.2.2.2.2,0,0,.1,0,.2.1.1,0,.2.2.3.3h17c-.2.4-.2.9-.3,1.3,0,1.3.4,2.4,1.2,3.4.9.9,2,1.4,3.3,1.4h3.4c.3,0,.5.3.5.6,0,1.9,1.6,3.5,3.5,3.5h8.9c1.9,0,3.5-1.6,3.5-3.5,0-.3.2-.5.5-.5h23.7c1.2,0,2.4-.5,3.3-1.4.9-.9,1.3-2.1,1.2-3.3,0-.5-.1-.9-.3-1.3h3.6c-.2.5-.3,1-.3,1.5,0,2.5,2,4.5,4.5,4.5h2.8c2.5,0,4.5-2,4.5-4.5s0-1.1-.3-1.5h.6ZM31.8,40.2c.8-9.2,8.5-16.4,17.9-16.4s17.1,7.2,17.9,16.4H31.8ZM23.6,58.3c-3.2-5-4.8-10.7-4.8-16.6,0-17,13.9-30.9,30.9-30.9s30.9,13.9,30.9,30.9-1.7,11.6-4.8,16.6c-2.6,4.1-6.2,7.6-10.4,10v-10.4c0-1.4.4-2.8,1.3-3.9,2.6-3.6,4-7.8,4-12.2,0-11.5-9.4-20.9-20.9-20.9-11.5,0-20.9,9.4-20.9,20.9,0,4.4,1.4,8.7,4,12.2.9,1.2,1.3,2.5,1.3,3.9v10.4c-4.2-2.5-7.8-5.9-10.4-10ZM86.7,89.2h-2.8c-.8,0-1.5-.7-1.5-1.5s.7-1.5,1.5-1.5h2.9c.8,0,1.5.7,1.5,1.5,0,.8-.7,1.5-1.5,1.5Z"/>
    <path class="st1" d="M52.9,86.1h2.4c1.9,0,3.5-1.6,3.5-3.5v-17.9c0-1.3-.5-2.5-1.5-3.4-.9-.9-2.2-1.4-3.5-1.3-2.5.1-4.5,2.2-4.5,4.8v17.8c0,1.9,1.6,3.5,3.5,3.5ZM52.3,64.8c0-1,.7-1.8,1.7-1.8,0,0,0,0,0,0,.4,0,.9.2,1.2.5.3.3.5.8.5,1.3v7.2c-1.1.2-2.3.4-3.5.5v-7.6h0ZM52.3,75.5c1.2,0,2.3-.2,3.5-.5v7.6c0,.3-.2.5-.5.5h-2.4c-.3,0-.5-.2-.5-.5v-7.1h0Z"/>
    <path class="st1" d="M51.1,49.8v-2c0-.8-.7-1.5-1.5-1.5s-1.5.7-1.5,1.5v2c0,.8.7,1.5,1.5,1.5s1.5-.7,1.5-1.5Z"/>
    <path class="st1" d="M58.3,53.6v-2c0-.8-.7-1.5-1.5-1.5s-1.5.7-1.5,1.5v2c0,.8.7,1.5,1.5,1.5s1.5-.7,1.5-1.5Z"/>
    <path class="st1" d="M44.6,54.2c0-.8-.7-1.5-1.5-1.5s-1.5.7-1.5,1.5v6.5c0,.8.7,1.5,1.5,1.5s1.5-.7,1.5-1.5v-6.5Z"/>
    <path class="st1" d="M44.6,66.8c0-.8-.7-1.5-1.5-1.5s-1.5.7-1.5,1.5v2c0,.8.7,1.5,1.5,1.5s1.5-.7,1.5-1.5v-2Z"/>
    <path class="st1" d="M43.1,81.1c-.8,0-1.5.7-1.5,1.5v2c0,.8.7,1.5,1.5,1.5s1.5-.7,1.5-1.5v-2c0-.8-.7-1.5-1.5-1.5Z"/>
  </g>
</svg>