<?xml version="1.0" encoding="UTF-8"?>
<svg id="Layer_2" xmlns="http://www.w3.org/2000/svg" version="1.1" viewBox="0 0 250 100">
  <!-- Generator: Adobe Illustrator 30.1.0, SVG Export Plug-In . SVG Version: 2.1.1 Build 136)  -->
  <defs>
    <style>
      .st0 {
        fill: #ffcf00;
      }

      .st1 {
        fill: #1d1c1a;
      }

      .st2 {
        fill: #3d3d3d;
      }

      .st3 {
        fill: #00cf00;
      }

      .st4 {
        fill: #173dff;
      }

      .st5 {
        fill: #ec2024;
      }
    </style>
  </defs>
  <g>
    <path class="st1" d="M122,69.7c.7,0,1.3.2,1.7.7s.7,1,.7,1.7-.2,1.3-.7,1.7-1,.7-1.7.7h-1.9v-4.8h1.9ZM122,73.7c.5,0,.8,0,1.1-.5s.5-.7.5-1.3,0-.9-.5-1.3c-.3-.3-.7-.5-1.1-.5h-1.1v3.3h1.1Z"/>
    <path class="st1" d="M130,73.8c-.5.5-1.1.8-1.8.8s-1.4-.2-1.8-.8c-.5-.5-.8-1.1-.8-1.8s.2-1.4.8-1.8c.5-.5,1.1-.8,1.8-.8s1.4.2,1.8.8c.5.5.8,1.1.8,1.8s-.2,1.4-.8,1.8M126.9,73.4c.3.3.8.5,1.3.5s.9,0,1.3-.5.5-.8.5-1.3,0-.9-.5-1.3c-.3-.3-.8-.5-1.3-.5s-.9,0-1.3.5-.5.8-.5,1.3,0,.9.5,1.3"/>
  </g>
  <g>
    <polygon class="st1" points="135.8 73.7 137.7 73.7 137.7 74.5 135 74.5 135 69.7 135.8 69.7 135.8 73.7"/>
    <path class="st1" d="M142.5,74.5l-.3-1h-2l-.3,1h-.9l1.8-4.8h1l1.8,4.8h-1,0ZM140.3,72.8h1.6l-.8-2.2s-.8,2.2-.8,2.2Z"/>
    <path class="st1" d="M146.6,69.7c.7,0,1.3.2,1.7.7s.7,1,.7,1.7-.2,1.3-.7,1.7c-.5.5-1,.7-1.7.7h-1.9v-4.8h1.9ZM146.6,73.7c.5,0,.8,0,1.1-.5s.5-.7.5-1.3,0-.9-.5-1.3c-.3-.3-.7-.5-1.1-.5h-1.1v3.3h1.1Z"/>
    <path class="st1" d="M154.5,73.8c-.5.5-1.1.8-1.8.8s-1.4-.2-1.8-.8c-.5-.5-.8-1.1-.8-1.8s.2-1.4.8-1.8c.5-.5,1.1-.8,1.8-.8s1.4.2,1.8.8c.5.5.8,1.1.8,1.8s-.2,1.4-.8,1.8M151.6,73.4c.3.3.8.5,1.3.5s.9,0,1.3-.5.5-.8.5-1.3,0-.9-.5-1.3c-.3-.3-.8-.5-1.3-.5s-.9,0-1.3.5-.5.8-.5,1.3,0,.9.5,1.3"/>
  </g>
  <g>
    <path class="st1" d="M161.5,69.7c.7,0,1.3.2,1.7.7s.7,1,.7,1.7-.2,1.3-.7,1.7c-.5.5-1,.7-1.7.7h-1.9v-4.8h1.9ZM161.5,73.7c.5,0,.8,0,1.1-.5s.5-.7.5-1.3,0-.9-.5-1.3c-.3-.3-.7-.5-1.1-.5h-1.1v3.3h1.1Z"/>
    <path class="st1" d="M169.3,73.8c-.5.5-1.1.8-1.8.8s-1.4-.2-1.8-.8c-.5-.5-.8-1.1-.8-1.8s.2-1.4.8-1.8c.5-.5,1.1-.8,1.8-.8s1.4.2,1.8.8c.5.5.8,1.1.8,1.8s-.2,1.4-.8,1.8M166.4,73.4c.3.3.8.5,1.3.5s.9,0,1.3-.5.5-.8.5-1.3,0-.9-.5-1.3c-.3-.3-.8-.5-1.3-.5s-.9,0-1.3.5-.5.8-.5,1.3,0,.9.5,1.3"/>
  </g>
  <g>
    <path class="st1" d="M176.1,69.7c.5,0,.8,0,1.1.5s.5.7.5,1.1,0,.8-.5,1.1-.7.5-1.1.5h-1v1.7h-.8v-4.8h1.8,0ZM176.1,72.1c.2,0,.5,0,.6-.2,0,0,.2-.3.2-.6s0-.5-.2-.6c0,0-.3-.2-.6-.2h-1v1.7h1Z"/>
    <path class="st1" d="M183.3,73.8c-.5.5-1.1.8-1.8.8s-1.4-.2-1.8-.8c-.5-.5-.8-1.1-.8-1.8s.2-1.4.8-1.8c.5-.5,1.1-.8,1.8-.8s1.4.2,1.8.8c.5.5.8,1.1.8,1.8s-.2,1.4-.8,1.8M180.3,73.4c.3.3.8.5,1.3.5s.9,0,1.3-.5.5-.8.5-1.3,0-.9-.5-1.3c-.3-.3-.8-.5-1.3-.5s-.9,0-1.3.5-.5.8-.5,1.3,0,.9.5,1.3"/>
    <polygon class="st1" points="186.7 74.5 185 69.7 185.9 69.7 187 73.5 188.4 69.7 189.2 69.7 187.5 74.5 186.7 74.5"/>
    <path class="st1" d="M194.4,73.8c-.5.5-1.1.8-1.8.8s-1.4-.2-1.8-.8c-.5-.5-.8-1.1-.8-1.8s.2-1.4.8-1.8c.5-.5,1.1-.8,1.8-.8s1.4.2,1.8.8c.5.5.8,1.1.8,1.8s-.2,1.4-.8,1.8M191.6,73.4c.3.3.8.5,1.3.5s.9,0,1.3-.5.5-.8.5-1.3,0-.9-.5-1.3c-.3-.3-.8-.5-1.3-.5s-.9,0-1.3.5-.5.8-.5,1.3,0,.9.5,1.3"/>
  </g>
  <g>
    <path class="st1" d="M202.3,72c.2,0,.3.2.5.5,0,.2.2.5.2.7,0,.5,0,.7-.5,1-.3.2-.7.5-1,.5h-2.2v-4.8h1.9c.5,0,.8,0,1,.3.2.2.5.6.5,1s0,.8-.5,1M201.4,70.5h-1.1v1.3h1.1c.2,0,.3,0,.5-.2,0,0,.2-.2.2-.5s0-.3-.2-.5c0,0-.2-.2-.5-.2M201.5,73.7c.2,0,.3,0,.5-.2,0,0,.2-.3.2-.5s0-.3-.2-.5c0,0-.3-.2-.5-.2h-1.3v1.4h1.3Z"/>
    <path class="st1" d="M207.3,74.5l-1-1.8h-.9v1.8h-.8v-4.8h1.9c.5,0,.8,0,1.1.5s.5.7.5,1.1,0,.6-.2.9c-.2.2-.5.5-.7.6l1.1,1.9h-1v-.2ZM205.2,70.5v1.6h1.1c.2,0,.3,0,.6-.2s.2-.3.2-.6,0-.5-.2-.6c0,0-.3-.2-.6-.2,0,0-1.1,0-1.1,0Z"/>
    <path class="st1" d="M212.7,74.5l-.3-1h-2l-.3,1h-.9l1.8-4.8h1l1.8,4.8h-1ZM210.7,72.8h1.6l-.8-2.2-.8,2.2h0Z"/>
    <path class="st1" d="M216.6,74.6c-.5,0-.9,0-1.3-.3-.3-.2-.6-.5-.7-.9l.7-.5c.2.6.6.8,1.3.8s.6,0,.7-.2c0,0,.2-.2.2-.5s0-.3-.2-.5c0,0-.5-.2-.9-.3-.2,0-.5,0-.6-.2,0,0-.3,0-.5-.2,0,0-.2-.2-.3-.5v-.6c0-.5,0-.8.5-1,.3-.2.7-.3,1.1-.3s.7,0,1,.3c.3.2.6.5.7.8l-.7.3c-.2-.5-.6-.7-1-.7h-.6s-.2.2-.2.5,0,.3.2.5c0,0,.5.2.8.3h.8c.1,0,.2,0,.3.2l.2.2s0,.2.2.3v.5c0,.5,0,.8-.5,1-.3.2-.8.3-1.3.3"/>
    <rect class="st1" x="219.8" y="69.7" width=".8" height="4.8"/>
    <polygon class="st1" points="223.3 73.7 225.1 73.7 225.1 74.5 222.5 74.5 222.5 69.7 223.3 69.7 223.3 73.7"/>
    <polygon class="st1" points="227.5 73.7 229.5 73.7 229.5 74.5 226.7 74.5 226.7 69.7 229.5 69.7 229.5 70.5 227.5 70.5 227.5 71.7 229.4 71.7 229.4 72.5 227.5 72.5 227.5 73.7"/>
    <rect class="st1" x="231.1" y="69.7" width=".8" height="4.8"/>
    <path class="st1" d="M236.6,74.5l-1-1.8h-.9v1.8h-.8v-4.8h1.9c.5,0,.8,0,1.1.5s.5.7.5,1.1,0,.6-.2.9c-.2.2-.5.5-.7.6l1.1,1.9h-1v-.2ZM234.7,70.5v1.6h1.1c.2,0,.3,0,.6-.2s.2-.3.2-.6,0-.5-.2-.6c0,0-.3-.2-.6-.2,0,0-1.1,0-1.1,0Z"/>
    <path class="st1" d="M243,73.8c-.5.5-1.1.8-1.8.8s-1.4-.2-1.8-.8c-.5-.5-.8-1.1-.8-1.8s.2-1.4.8-1.8c.5-.5,1.1-.8,1.8-.8s1.4.2,1.8.8c.5.5.8,1.1.8,1.8s-.2,1.4-.8,1.8M240,73.4c.3.3.8.5,1.3.5s.9,0,1.3-.5c.3-.3.5-.8.5-1.3s0-.9-.5-1.3c-.3-.3-.8-.5-1.3-.5s-.9,0-1.3.5c-.3.3-.5.8-.5,1.3s0,.9.5,1.3"/>
  </g>
  <g>
    <path class="st1" d="M149.5,17.9v.5c0,2-1.4,3.2-3.1,3.2s-3.3-1.5-3.3-3.3,1.5-3.3,3.3-3.3,2.3.6,2.8,1.6l-1.5.9c-.3-.6-.8-.8-1.4-.8-.9,0-1.6.7-1.6,1.7s.7,1.7,1.7,1.7,1.1-.3,1.3-.8h-1.7v-1.4h3.5-.1Z"/>
    <path class="st1" d="M151.6,18.4c0-1.9,1.5-3.3,3.3-3.3s3.3,1.5,3.3,3.3-1.5,3.3-3.3,3.3-3.3-1.5-3.3-3.3M156.5,18.4c0-.9-.7-1.6-1.5-1.6s-1.6.7-1.6,1.6.7,1.6,1.6,1.6,1.5-.7,1.5-1.6"/>
    <polygon class="st1" points="166.4 15.2 163.9 21.7 162.3 21.7 159.8 15.2 161.6 15.2 162.9 19.2 164.5 15.2 166.4 15.2"/>
    <polygon class="st1" points="170.1 16.7 170.1 17.7 171.9 17.7 171.9 19 170.1 19 170.1 20.1 172.9 20.1 172.9 21.7 168.4 21.7 168.4 15.2 172.9 15.2 172.9 16.7 170.1 16.7"/>
    <path class="st1" d="M177.7,19.4h-.7v2.3h-1.7v-6.4h3.1c1.3,0,2.3.9,2.3,2.2s-.5,1.5-1.1,1.9l1.5,2.5h-1.9l-1.3-2.3h-.2v-.2ZM177,17.9h1.3c.5,0,.7-.3.7-.6s-.2-.6-.7-.6h-1.3v1.3h0Z"/>
    <polygon class="st1" points="188.7 15.2 188.7 21.7 187.3 21.7 184.8 18.2 184.8 21.7 183.1 21.7 183.1 15.2 184.5 15.2 187 18.6 187 15.2 188.7 15.2"/>
    <path class="st1" d="M191,18.4c0-1.9,1.5-3.3,3.3-3.3s3.3,1.5,3.3,3.3-1.5,3.3-3.3,3.3-3.3-1.5-3.3-3.3M195.8,18.4c0-.9-.7-1.6-1.5-1.6s-1.6.7-1.6,1.6.7,1.6,1.6,1.6,1.5-.7,1.5-1.6"/>
  </g>
  <g>
    <path class="st1" d="M211.7,18.4c0,1.8-1.5,3.2-3.3,3.2h-2.6v-6.4h2.6c1.9,0,3.3,1.4,3.3,3.2M210,18.4c0-.9-.7-1.6-1.7-1.6h-.8v3.1h.8c1,0,1.7-.6,1.7-1.6"/>
    <path class="st1" d="M213.3,18.4c0-1.9,1.5-3.3,3.3-3.3s3.3,1.5,3.3,3.3-1.5,3.3-3.3,3.3-3.3-1.5-3.3-3.3M218.2,18.4c0-.9-.7-1.6-1.5-1.6s-1.6.7-1.6,1.6.7,1.6,1.6,1.6,1.5-.7,1.5-1.6"/>
  </g>
  <g>
    <path class="st4" d="M186.4,62.2c0-6.8-5.5-12.3-12.3-12.3s-12.3,5.5-12.3,12.3h24.6Z"/>
    <polygon class="st0" points="151.8 48.9 138.6 28.6 138.6 48.9 151.8 48.9"/>
    <rect class="st0" x="113.3" y="42.1" width="11.6" height="20.1"/>
    <rect class="st0" x="227.2" y="28.6" width="11.6" height="22.3"/>
    <rect class="st4" x="238.8" y="51" width="11.6" height="11.3"/>
    <polygon class="st3" points="154.1 62.2 157.1 57.1 151.8 48.9 138.6 48.9 138.6 62.2 154.1 62.2"/>
    <rect class="st3" x="213.6" y="28.6" width="11.6" height="33.5"/>
    <path class="st4" d="M127.5,28.6h-2.7v13.5h2.7c3.6,0,6.7-3.1,6.7-6.7s-3.1-6.7-6.7-6.7"/>
    <rect class="st4" x="199.1" y="28.6" width="12.5" height="12.2"/>
    <path class="st0" d="M203,40.9h-3.8v21.4h3.8c5.9,0,10.7-4.8,10.7-10.7s-4.8-10.7-10.7-10.7"/>
    <path class="st3" d="M195.7,28.6c-4.1,0-7.5,3.3-7.5,7.5s3.3,7.5,7.5,7.5h3.4v-15s-3.4,0-3.4,0Z"/>
    <path class="st5" d="M128.6,42.1h-3.8v20.1h3.8c5.6,0,10-4.4,10-10s-4.4-10-10-10"/>
    <path class="st4" d="M151.8,28.6h-13.2l13.2,20.2c5.6,0,10.1-4.5,10.1-10.1s-4.5-10.1-10.1-10.1"/>
    <rect class="st3" x="113.3" y="28.6" width="11.6" height="13.5"/>
    <polygon class="st5" points="188.2 43.6 188.2 52.5 194 62.2 199.1 62.2 199.1 43.6 188.2 43.6"/>
    <polygon class="st2" points="188.2 52.5 188.2 62.2 194 62.2 188.2 52.5"/>
    <rect class="st2" x="227.2" y="51" width="11.6" height="11.3"/>
    <polygon class="st2" points="154.1 62.2 160.4 62.2 157.1 57.1 154.1 62.2"/>
    <path class="st0" d="M188.2,62.2v-9.7l-14.2-23.8-16.9,28.4,3.3,5.1h1.4c0-6.8,5.5-12.3,12.3-12.3s12.3,5.5,12.3,12.3h1.9Z"/>
  </g>
  <g>
    <polygon class="st1" points="5.7 41.5 5.7 36.8 3.8 40.3 3.2 40.3 1.2 36.8 1.2 41.5 .2 41.5 .2 34.7 1.3 34.7 3.6 38.9 5.7 34.7 6.9 34.7 6.9 41.5 5.7 41.5"/>
    <rect class="st1" x="10.3" y="34.7" width="1.1" height="6.7"/>
    <polygon class="st1" points="15.9 36.8 15.9 41.5 14.8 41.5 14.8 34.7 15.6 34.7 19.5 39.7 19.5 34.8 20.5 34.8 20.5 41.5 19.6 41.5 15.9 36.8"/>
    <rect class="st1" x="23.9" y="34.7" width="1.1" height="6.7"/>
    <path class="st1" d="M32.5,36.4s-.5-.3-.8-.5c-.3,0-.7-.2-1.1-.2s-.8,0-1,.2c-.2,0-.3.3-.3.7s0,.2,0,.2v.2h1.6c.3,0,.6,0,.8.2.2,0,.5,0,.6.2.2,0,.3.2.5.3s.2.3.3.5v1.4c0,.2-.2.5-.3.6,0,0-.3.2-.6.3-.2,0-.5.2-.7.2h-.8c-.6,0-1,0-1.5-.2-.5,0-.9-.3-1.4-.7l.5-.9c.2.2.6.5,1,.6.5.2.9.3,1.4.3s.8,0,1-.2c.2,0,.3-.3.3-.7v-.3s0-.2-.2-.2c0,0-.2,0-.2-.2h-1.4c-.3,0-.7-.2-.9-.3-.2,0-.5-.2-.6-.3-.2,0-.3-.3-.3-.5v-.7c0-.2,0-.7.2-.9,0-.2.3-.5.6-.7.2,0,.5-.3.8-.3h1c.8,0,1.6.2,2.3.8l-.5.9v.2h-.2Z"/>
    <polygon class="st1" points="41 35.8 38.8 35.8 38.8 41.5 37.7 41.5 37.7 35.8 35.4 35.8 35.4 34.8 41 34.8 41 35.8"/>
    <path class="st1" d="M48.4,40.5v.9h-4.5v-6.7h4.5v.9h-3.4v1.9h3.1v.9h-3.1v2h3.5-.1ZM46.5,34l-.7-.2.6-1h1s-.9,1.3-.9,1.3Z"/>
    <path class="st1" d="M51.4,41.5v-6.7h3c.3,0,.6,0,.8.2.2,0,.5.3.7.6s.3.5.5.7v.8c0,.5,0,.9-.3,1.3-.2.3-.6.7-1,.8l1.6,2.6h-1.3l-1.5-2.4h-1.6v2.4h-1.1.2v-.2ZM52.5,38.3h1.9c.3,0,.6,0,.7-.3.2-.2.3-.6.3-.9s0-.7-.3-.9c-.2-.2-.5-.3-.8-.3h-1.8v2.6h0Z"/>
    <rect class="st1" x="59.5" y="34.7" width="1.1" height="6.7"/>
    <path class="st1" d="M63.7,38.3c0-.5,0-.9.2-1.4,0-.5.3-.8.7-1.1s.7-.6,1-.8c.5-.2.8-.3,1.4-.3s.9,0,1.4.3c.5.2.8.5,1,.8s.5.7.7,1.1c0,.5.2.8.2,1.3s0,.9-.2,1.4c0,.5-.3.8-.7,1.1s-.7.6-1,.8c-.5.2-.8.3-1.4.3s-.8,0-1.1-.2c-.3,0-.7-.3-.9-.6s-.5-.5-.7-.8c-.2-.3-.3-.6-.5-.9v-1M66.9,40.6c.3,0,.7,0,.9-.2.3,0,.6-.3.7-.6.2-.2.3-.5.5-.8v-1.8c0-.3-.2-.6-.5-.8s-.5-.5-.7-.6c-.2,0-.6-.2-.9-.2s-.7,0-.9.2c-.2,0-.6.3-.7.6-.2.2-.3.5-.5.8v.9c0,.3,0,.8.2,1.3.2.3.5.7.8.9s.7.3,1.1.3"/>
    <path class="st1" d="M77.2,41.5v-6.7h2.4c.6,0,1,0,1.5.2s.8.5,1,.7c.2.3.5.7.6,1.1s.2.9.2,1.4c0,1-.3,1.8-.9,2.5-.6.7-1.4.9-2.4.9h-2.4ZM79.7,35.8h-1.4v4.8h1.4c.5,0,.9,0,1.3-.3.3-.2.6-.6.8-.9s.2-.8.2-1.3c0-.7-.2-1.4-.6-1.8-.5-.5-.9-.7-1.6-.7"/>
    <path class="st1" d="M87.7,34.7h1l2.6,6.7h-1.1l-.7-1.8h-2.6l-.7,1.8h-1.1l2.7-6.7h-.1ZM89.3,38.9l-1.1-3-1.1,3h2.3Z"/>
    <path class="st1" d="M57,50.3h-.3s-.3,0-.5-.2h-.9c-.3,0-.6,0-.6.3s0,0,0,0h1.3c.2,0,.6,0,.7.2.2,0,.3.2.6.3s.3.2.5.3c0,0,.2.3.2.6v1.6c0,.2-.2.5-.5.6,0,0-.3.3-.6.5-.2,0-.5.2-.7.2h-.8c-.5,0-1,0-1.6-.2-.6,0-1-.3-1.5-.6l.8-1.7h0l.3.2s.3,0,.5.2c0,0,.3,0,.6.2h.7c.3,0,.6,0,.6-.3s0,0,0-.2h-1.5c-.6-.2-1-.5-1.4-.8-.2-.3-.5-.7-.5-1.1s0-.7.2-1c0-.3.3-.6.6-.7.2-.2.5-.3.8-.5h1c.7,0,1.6.2,2.6.8l-.8,1.6v.3-.7Z"/>
    <path class="st1" d="M62,48.1h2.2l2.2,6.7h-1.9l-.5-1.4h-1.8l-.5,1.4h-1.9l2.2-6.7h.1ZM63.7,52.3l-.6-2.4-.7,2.4h1.3Z"/>
    <path class="st1" d="M71.3,55c-.5,0-.8,0-1.1-.2-.3,0-.7-.3-.9-.5-.2-.2-.5-.5-.6-.8s-.2-.6-.3-.9v-4.4h1.9v4.1c0,.2,0,.3.2.6,0,0,.2.3.3.3h1.1s.3-.2.3-.3,0-.3.2-.6v-4.1h1.9v3.4c0,.5,0,.9-.2,1.4,0,.5-.3.8-.6,1-.2.3-.6.6-1,.7-.5.2-.9.2-1.4.2M71.9,47.8l-1.1-.3.5-1.4h1.6l-.9,1.7h0Z"/>
    <path class="st1" d="M77.4,54.8v-6.7h2.6c.6,0,1,0,1.5.2s.8.5,1.1.7c.2.3.5.7.7,1.1,0,.5.2.9.2,1.4,0,1-.3,1.8-.9,2.5-.7.7-1.5.9-2.5.9h-2.7ZM80,49.7h-.8v3.4h.8c.5,0,.9,0,1.1-.5.2-.3.5-.8.5-1.3s0-.9-.5-1.3c-.2-.3-.7-.5-1.1-.5"/>
    <polygon class="st1" points="90.8 53.3 90.8 54.8 86 54.8 86 48.1 90.8 48.1 90.8 49.7 87.9 49.7 87.9 50.8 90.3 50.8 90.3 52.2 87.9 52.2 87.9 53.3 90.8 53.3"/>
  </g>
</svg>