<?xml version="1.0" encoding="UTF-8"?>
<svg xmlns="http://www.w3.org/2000/svg" xmlns:xlink="http://www.w3.org/1999/xlink" version="1.1" viewBox="0 0 155.9 100">
  <!-- Generator: Adobe Illustrator 30.1.0, SVG Export Plug-In . SVG Version: 2.1.1 Build 136)  -->
  <defs>
    <style>
      .st0 {
        fill: none;
      }

      .st1 {
        fill: url(#linear-gradient2);
      }

      .st2 {
        fill: url(#linear-gradient1);
      }

      .st3 {
        fill: #007fb5;
      }

      .st4 {
        fill: url(#linear-gradient);
      }

      .st5 {
        isolation: isolate;
      }

      .st6 {
        clip-path: url(#clippath-1);
      }

      .st7 {
        clip-path: url(#clippath-3);
      }

      .st8 {
        clip-path: url(#clippath-4);
      }

      .st9 {
        clip-path: url(#clippath-2);
      }

      .st10 {
        clip-path: url(#clippath-6);
      }

      .st11 {
        clip-path: url(#clippath-5);
      }

      .st12 {
        fill: #fff;
      }

      .st13 {
        mix-blend-mode: luminosity;
      }

      .st14 {
        clip-path: url(#clippath);
      }
    </style>
    <clipPath id="clippath">
      <path class="st0" d="M29.2,48.2c-.6-9,6.3-16.8,15.3-17.4.4,0,.7,0,1.1,0,4.1,0,8,1.5,11,4.3h0c.1.1.3.3.4.4,0,0,0,0,.1.1,0,0,0,0,.1.1,1.7,1.7,8.4,8.4,11.5,11.5-3.7,3.7-9,9-11.6,11.6-2.8,2.8-6.5,4.4-10.4,4.7-.4,0-.7,0-1.1,0h0c-8.5,0-15.7-6.6-16.3-15.3M106.6,63.4c-3.7-.2-7.2-1.8-10-4.3-.2-.1-.3-.3-.5-.4-2.5-2.5-10.7-10.7-11.6-11.5h0c3.8-3.8,9.2-9.4,11.5-11.6,3.1-3.1,7.2-4.8,11.6-4.8s.7,0,1.1,0c3.1.2,5.9,1.2,8.2,2.9,4.6,3.2,7.4,8.6,7,14.5-.3,3.9-1.8,7.3-4.3,10-3,3.3-7.3,5.3-12.1,5.3s-.7,0-1.1,0M88.1,27.5c-2.3,2.3-7.8,7.7-11.6,11.5-.7-.7-8.8-8.8-11.4-11.4,0,0,0,0,0,0,0,0,0,0,0,0,0,0,0,0,0,0,0,0,0,0,0,0-5.6-5.5-13.3-8.4-21.2-7.9-15.2,1-26.8,14.2-25.8,29.4,1,14.6,13.1,25.8,27.6,25.8s1.2,0,1.8,0c6.6-.4,12.9-3.3,17.6-7.9,2.7-2.6,8.1-7.9,11.7-11.6.9.9,9.1,9.1,11.6,11.6.3.3.7.7,1,1,4.6,4.1,10.4,6.6,16.6,7,.6,0,1.2,0,1.8,0,6.5,0,12.5-2.3,17.3-6.1,5.8-4.7,9.8-11.7,10.3-19.7.7-10.8-4.9-20.5-13.6-25.6-3.6-2.1-7.7-3.5-12.2-3.8-.6,0-1.2,0-1.8,0-7.3,0-14.3,2.9-19.5,8.1"/>
    </clipPath>
    <clipPath id="clippath-1">
      <path class="st0" d="M19.6,34.5c-2.2,4.9-2.9,10.4-1.6,15.3.8-10.5,10.9-15.8,21.7-17.9.2,0,.9-.3,2.7-.8,2-.5,4.3-.6,4.3-.6-3.2-2.1-6.5-2.9-9.9-2.9-6.1,0-12.3,2.9-17.2,6.9"/>
    </clipPath>
    <linearGradient id="linear-gradient" x1="-218.6" y1="465.5" x2="-218.1" y2="465.5" gradientTransform="translate(8367.5 27040.6) rotate(8) scale(55 -55)" gradientUnits="userSpaceOnUse">
      <stop offset="0" stop-color="#f5a100"/>
      <stop offset=".3" stop-color="#ffab23"/>
      <stop offset=".9" stop-color="#e64310"/>
      <stop offset="1" stop-color="#e64310"/>
    </linearGradient>
    <clipPath id="clippath-2">
      <path class="st0" d="M26.3,25.4c-2.3,2.4-4.5,5.4-6.7,9.1,24.1-13.9,41.9.7,60.4,28.5,6.4,9.6,21.5,8.3,30,1-12.6,6.2-25.2-6.5-38.9-19.2-11.2-10.4-23.2-20.8-36.6-20.8-2.7,0-5.4.4-8.2,1.3"/>
    </clipPath>
    <linearGradient id="linear-gradient1" x1="-217.5" y1="468.2" x2="-217" y2="468.2" gradientTransform="translate(-10652 71978.2) rotate(33.4) scale(140.9 -140.9)" gradientUnits="userSpaceOnUse">
      <stop offset="0" stop-color="#ffab23"/>
      <stop offset=".2" stop-color="#ffab23"/>
      <stop offset="1" stop-color="#e8520e"/>
    </linearGradient>
    <clipPath id="clippath-3">
      <path class="st0" d="M26.3,25.4c16.7-5.5,31.3,7,44.8,19.4,13.7,12.7,26.3,25.3,38.9,19.2.6-.5,1.2-1.1,1.7-1.7,5.3-5.6,6.4-12.8,4.5-21.1-3.4,6.8-7.1,12.7-11.7,15.7-4.5,2.9-11,2.3-14.1-2-13.7-18.9-29.5-36.7-46.3-36.7-5.9,0-11.8,2.2-17.9,7.2"/>
    </clipPath>
    <linearGradient id="linear-gradient2" x1="-217.3" y1="467.4" x2="-216.8" y2="467.4" gradientTransform="translate(-12661.9 51168.6) rotate(38.9) scale(102.2 -102.2)" xlink:href="#linear-gradient1"/>
    <clipPath id="clippath-4">
      <rect class="st0" x="72.7" y="36.6" width="64.9" height="43.5"/>
    </clipPath>
    <clipPath id="clippath-5">
      <rect class="st0" x="72.7" y="36.6" width="64.9" height="43.5"/>
    </clipPath>
    <clipPath id="clippath-6">
      <rect class="st0" x="72.7" y="36.6" width="64.9" height="43.5"/>
    </clipPath>
  </defs>
  <g class="st5">
    <g id="Layer_1">
      <g>
        <g class="st14">
          <image width="249" height="117" transform="translate(16.8 18.9) scale(.5)" xlink:href="logo-ses-mg-1.png"/>
        </g>
        <g class="st6">
          <path class="st4" d="M19.6,34.5c-2.2,4.9-2.9,10.4-1.6,15.3.8-10.5,10.9-15.8,21.7-17.9.2,0,.9-.3,2.7-.8,2-.5,4.3-.6,4.3-.6-3.2-2.1-6.5-2.9-9.9-2.9-6.1,0-12.3,2.9-17.2,6.9"/>
        </g>
        <g class="st9">
          <path class="st2" d="M26.3,25.4c-2.3,2.4-4.5,5.4-6.7,9.1,24.1-13.9,41.9.7,60.4,28.5,6.4,9.6,21.5,8.3,30,1-12.6,6.2-25.2-6.5-38.9-19.2-11.2-10.4-23.2-20.8-36.6-20.8-2.7,0-5.4.4-8.2,1.3"/>
        </g>
        <g class="st7">
          <path class="st1" d="M26.3,25.4c16.7-5.5,31.3,7,44.8,19.4,13.7,12.7,26.3,25.3,38.9,19.2.6-.5,1.2-1.1,1.7-1.7,5.3-5.6,6.4-12.8,4.5-21.1-3.4,6.8-7.1,12.7-11.7,15.7-4.5,2.9-11,2.3-14.1-2-13.7-18.9-29.5-36.7-46.3-36.7-5.9,0-11.8,2.2-17.9,7.2"/>
        </g>
        <g class="st8">
          <g class="st13">
            <g class="st11">
              <g class="st10">
                <polygon class="st12" points="122.9 47.2 119.1 36.6 87.2 44.7 72.7 59.2 74.5 79.4 120.8 80.1 137.6 54.9 122.9 47.2"/>
              </g>
            </g>
          </g>
        </g>
        <path class="st3" d="M97,78.6s0,0,0,0v-.4c0,0,0-.1,0-.1.3-.3.6-.6.9-1,.3-.4.5-.6.6-.7,0,0,0-.1.2-.3.5-.6.7-1,.7-1.3,0-.2,0-.4-.2-.6-.2-.1-.4-.2-.6-.2-.3,0-.5,0-.6.2-.2.1-.2.3-.2.6v.2s0,0,0,0c0,0,0,0,0,0h-.5s0,0,0,0c0,0,0,0,0,0v-.3c0-.3,0-.5.2-.7.1-.2.3-.4.6-.5.2-.1.5-.2.8-.2.3,0,.6,0,.8.2.2.1.4.3.6.5.1.2.2.5.2.7,0,.4-.2.9-.7,1.5-.3.4-.8,1-1.5,1.8,0,0,0,0,0,0,0,0,0,0,0,0h2.2s0,0,0,0c0,0,0,0,0,0v.4s0,0,0,0c0,0,0,0,0,0h-3.1s0,0,0,0"/>
        <path class="st3" d="M101.3,78.3c-.3-.3-.4-.7-.4-1.2v-2.2c0-.5.2-.9.5-1.2.3-.3.7-.4,1.2-.4.5,0,.9.1,1.2.4.3.3.5.7.5,1.2v2.2c0,.5-.2.9-.5,1.2-.3.3-.7.4-1.2.4-.5,0-.9-.1-1.2-.4M103.2,77.9c.2-.2.3-.4.3-.7v-2.3c0-.3,0-.5-.2-.7-.2-.2-.4-.3-.7-.3-.3,0-.5,0-.7.3-.2.2-.3.4-.3.7v2.3c0,.3,0,.5.2.7.2.2.4.3.7.3.3,0,.5,0,.7-.3"/>
        <path class="st3" d="M104.8,78.7s0,0,0,0v-.4c0,0,0-.1,0-.1.3-.3.6-.6.9-1,.3-.4.5-.6.6-.7,0,0,0-.1.2-.3.5-.6.7-1,.7-1.3,0-.2,0-.4-.2-.6-.2-.1-.4-.2-.6-.2-.3,0-.5,0-.6.2-.2.1-.2.3-.2.6v.2s0,0,0,0c0,0,0,0,0,0h-.5s0,0,0,0c0,0,0,0,0,0v-.3c0-.3,0-.5.2-.7.1-.2.3-.4.6-.5.2-.1.5-.2.8-.2.3,0,.6,0,.8.2.2.1.4.3.6.5.1.2.2.5.2.7,0,.4-.2.9-.7,1.5-.3.4-.8,1-1.5,1.8,0,0,0,0,0,0,0,0,0,0,0,0h2.2s0,0,0,0c0,0,0,0,0,0v.4s0,0,0,0c0,0,0,0,0,0h-3.1s0,0,0,0"/>
        <path class="st3" d="M111.6,77.1c0,.2,0,.5-.1.7-.1.3-.3.5-.5.7-.3.2-.6.3-.9.3-.4,0-.7,0-.9-.3-.3-.2-.4-.4-.6-.8,0-.2,0-.4,0-.6,0,0,0-.1.1-.1h.5c0,0,.1,0,.1.1,0,.2,0,.3,0,.4,0,.2.1.3.3.4.1.1.3.2.5.2.2,0,.4,0,.5-.1.1,0,.2-.2.3-.4,0-.2.1-.4.1-.6,0-.3,0-.5-.1-.7-.1-.3-.4-.5-.7-.5,0,0-.2,0-.3,0,0,0,0,0,0,0s0,0,0,0l-.2-.3s0,0,0,0,0,0,0,0l1.3-1.3s0,0,0,0h-2s0,0,0,0c0,0,0,0,0,0v-.4s0,0,0,0c0,0,0,0,0,0h2.9s0,0,0,0c0,0,0,0,0,0v.4c0,0,0,.1,0,.1l-1.2,1.3s0,0,0,0c0,0,0,0,0,0,.5,0,.9.3,1.1.8,0,.2.1.5.1.9"/>
        <path class="st3" d="M113.3,76.7s0,0,0,0v-.4s0,0,0,0c0,0,0,0,0,0h2.3s0,0,0,0c0,0,0,0,0,0v.4s0,0,0,0c0,0,0,0,0,0h-2.3s0,0,0,0"/>
        <path class="st3" d="M117.3,78.7s0,0,0,0v-.4c0,0,0-.1,0-.1.3-.3.6-.6.9-1,.3-.4.5-.6.6-.7,0,0,0-.1.2-.3.5-.6.7-1,.7-1.3,0-.2,0-.4-.2-.6-.2-.1-.4-.2-.6-.2-.3,0-.5,0-.6.2-.2.1-.2.3-.2.6v.2s0,0,0,0c0,0,0,0,0,0h-.5s0,0,0,0c0,0,0,0,0,0v-.3c0-.3,0-.5.2-.7.1-.2.3-.4.6-.5.2-.1.5-.2.8-.2.3,0,.6,0,.8.2.2.1.4.3.6.5.1.2.2.5.2.7,0,.4-.2.9-.7,1.5-.3.4-.8,1-1.5,1.8,0,0,0,0,0,0,0,0,0,0,0,0h2.2s0,0,0,0c0,0,0,0,0,0v.4s0,0,0,0c0,0,0,0,0,0h-3.1s0,0,0,0"/>
        <path class="st3" d="M121.6,78.4c-.3-.3-.4-.7-.4-1.2v-2.2c0-.5.2-.9.5-1.2.3-.3.7-.4,1.2-.4.5,0,.9.1,1.2.4.3.3.5.7.5,1.2v2.2c0,.5-.2.9-.5,1.2-.3.3-.7.4-1.2.4-.5,0-.9-.1-1.2-.4M123.5,77.9c.2-.2.3-.4.3-.7v-2.3c0-.3,0-.5-.2-.7-.2-.2-.4-.3-.7-.3-.3,0-.5,0-.7.3-.2.2-.3.4-.3.7v2.3c0,.3,0,.5.2.7.2.2.4.3.7.3.3,0,.5,0,.7-.3"/>
        <path class="st3" d="M125.1,78.7s0,0,0,0v-.4c0,0,0-.1,0-.1.3-.3.6-.6.9-1,.3-.4.5-.6.6-.7,0,0,0-.1.2-.3.5-.6.7-1,.7-1.3,0-.2,0-.4-.2-.6-.2-.1-.4-.2-.6-.2-.3,0-.5,0-.6.2-.2.1-.2.3-.2.6v.2s0,0,0,0c0,0,0,0,0,0h-.5s0,0,0,0c0,0,0,0,0,0v-.3c0-.3,0-.5.2-.7.1-.2.3-.4.6-.5.2-.1.5-.2.8-.2.3,0,.6,0,.8.2.2.1.4.3.6.5.1.2.2.5.2.7,0,.4-.2.9-.7,1.5-.3.4-.8,1-1.5,1.8,0,0,0,0,0,0,0,0,0,0,0,0h2.2s0,0,0,0c0,0,0,0,0,0v.4s0,0,0,0c0,0,0,0,0,0h-3.1s0,0,0,0"/>
        <path class="st3" d="M132.1,77.1c0,.3,0,.6-.2.8-.1.3-.3.5-.5.7-.2.2-.5.2-.9.2-.4,0-.7,0-.9-.3-.3-.2-.4-.4-.5-.7,0-.2-.1-.5-.1-.7v-2.3c0-.4.2-.7.4-1,.3-.2.7-.4,1.1-.4.3,0,.6,0,.8.2.2.1.4.3.5.5.1.2.2.4.2.7h0c0,.1,0,.2,0,.2,0,0,0,0,0,0h-.5s0,0,0,0c0,0,0,0,0,0h0c0-.3,0-.5-.2-.6-.1-.1-.3-.2-.6-.2-.2,0-.4,0-.6.2-.2.1-.2.3-.2.6v.9s0,0,0,0c0,0,0,0,0,0,.2-.2.5-.4.9-.4.6,0,1,.2,1.3.7.1.3.2.6.2,1M131.4,77.1c0-.3,0-.5-.1-.6-.1-.3-.4-.4-.7-.4-.2,0-.3,0-.5.1-.1,0-.2.2-.3.3,0,.2-.1.4-.1.6,0,.2,0,.4,0,.5,0,.2.2.3.3.4.1,0,.3.1.5.1.4,0,.6-.2.8-.5,0-.2.1-.4.1-.6"/>
        <path class="st3" d="M81.6,69.9c-1.4-.6-2.5-1.5-3.3-2.6-.8-1.1-1.1-2.4-1.1-3.9v-.6c0-.4.2-.6.6-.6h3.8c.4,0,.6.2.6.5v.5c0,1,.4,1.8,1.3,2.4.9.7,2,1,3.4,1s2.2-.3,2.8-.8c.6-.5.9-1.2.9-2s-.2-1.1-.6-1.5c-.4-.4-.9-.7-1.5-1-.6-.3-1.7-.7-3.1-1.2-1.6-.5-3-1.1-4.1-1.7-1.1-.6-2-1.4-2.8-2.3-.8-1-1.1-2.2-1.1-3.7s.4-2.7,1.1-3.8c.7-1.1,1.8-1.9,3.1-2.5,1.3-.6,2.8-.9,4.5-.9s3.4.3,4.9,1c1.4.6,2.5,1.5,3.3,2.7.8,1.2,1.2,2.5,1.2,4v.4c0,.4-.2.6-.6.6h-3.8c-.4,0-.6-.1-.6-.4v-.4c0-1-.4-1.9-1.2-2.6-.8-.7-2-1.1-3.4-1.1s-2,.2-2.7.7c-.6.5-.9,1.1-.9,2s.2,1.1.5,1.5c.4.4.9.8,1.6,1.1.7.3,1.9.8,3.4,1.3,1.7.6,3,1.2,4,1.6,1,.5,1.9,1.2,2.6,2.1.8,1,1.2,2.2,1.2,3.7s-.4,2.7-1.1,3.8c-.8,1.1-1.8,1.9-3.2,2.5-1.4.6-3,.9-4.9.9s-3.5-.3-4.9-.9"/>
        <path class="st3" d="M114.6,49.8h-11.5c-.1,0-.2,0-.2.2v5.5c0,.1,0,.2.2.2h7.5c.4,0,.6.2.6.6v3.1c0,.4-.2.6-.6.6h-7.5c-.1,0-.2,0-.2.2v5.7c0,.1,0,.2.2.2h11.5c.4,0,.6.2.6.6v3.1c0,.4-.2.6-.6.6h-16.2c-.4,0-.6-.2-.6-.6v-23.9c0-.4.2-.6.6-.6h16.2c.4,0,.6.2.6.6v3.1c0,.4-.2.6-.6.6"/>
        <path class="st3" d="M120.9,69.9c-1.4-.6-2.5-1.5-3.3-2.6-.8-1.1-1.1-2.4-1.1-3.9v-.6c0-.4.2-.6.6-.6h3.8c.4,0,.6.2.6.5v.5c0,1,.4,1.8,1.3,2.4.9.7,2,1,3.4,1s2.2-.3,2.8-.8c.6-.5.9-1.2.9-2s-.2-1.1-.6-1.5c-.4-.4-.9-.7-1.5-1-.6-.3-1.7-.7-3.1-1.2-1.6-.5-3-1.1-4.1-1.7-1.1-.6-2-1.4-2.8-2.3-.8-1-1.1-2.2-1.1-3.7s.4-2.7,1.1-3.8c.7-1.1,1.8-1.9,3.1-2.5,1.3-.6,2.8-.9,4.5-.9s3.4.3,4.9,1c1.4.6,2.5,1.5,3.3,2.7.8,1.2,1.2,2.5,1.2,4v.4c0,.4-.2.6-.6.6h-3.8c-.4,0-.6-.1-.6-.4v-.4c0-1-.4-1.9-1.2-2.6-.8-.7-2-1.1-3.4-1.1s-2,.2-2.7.7c-.6.5-.9,1.1-.9,2s.2,1.1.5,1.5c.4.4.9.8,1.6,1.1.7.3,1.9.8,3.4,1.3,1.7.6,3,1.2,4,1.6,1,.5,1.9,1.2,2.6,2.1.8,1,1.2,2.2,1.2,3.7s-.4,2.7-1.1,3.8c-.8,1.1-1.8,1.9-3.2,2.5-1.4.6-3,.9-4.9.9s-3.5-.3-4.9-.9"/>
      </g>
    </g>
  </g>
</svg>