<?xml version="1.0" encoding="UTF-8"?>
<svg id="Layer_1" xmlns="http://www.w3.org/2000/svg" version="1.1" viewBox="0 0 155.9 100">
  <!-- Generator: Adobe Illustrator 30.1.0, SVG Export Plug-In . SVG Version: 2.1.1 Build 136)  -->
  <defs>
    <style>
      .st0, .st1, .st2 {
        fill: none;
        stroke: gray;
        stroke-width: .2px;
      }

      .st3 {
        fill: #414042;
      }

      .st4 {
        fill: #6d6e71;
      }

      .st5 {
        fill: #dcddde;
      }

      .st1 {
        stroke-dasharray: 1 1;
      }

      .st6 {
        fill: #b11116;
      }

      .st7 {
        fill: #ed1d24;
      }

      .st2 {
        stroke-dasharray: 1 1;
      }
    </style>
  </defs>
  <path class="st2" d="M222.5,17"/>
  <line class="st0" x1="-529.3" y1="-207.6" x2="-529.3" y2="-206.5"/>
  <path class="st0" d="M-314.3-206.5"/>
  <g>
    <path class="st1" d="M39,22.4"/>
    <rect class="st5" x="4.7" y="22.6" width="34.6" height="34.6"/>
    <polygon class="st7" points="26.8 36.4 22 43.2 17.1 36.4 7.5 49.9 17.1 49.9 22 43.2 26.8 49.9 36.5 49.9 26.8 36.4"/>
    <polygon class="st6" points="22 29.7 17.1 36.4 22 43.2 26.8 36.4 22 29.7"/>
    <g>
      <path class="st3" d="M137.6,33c.6,1.1,1.5,2,2.6,2.6,1.1.6,2.3.9,3.7.9s2-.2,2.9-.6c.9-.4,1.7-.9,2.3-1.5.6-.6,1.1-1.4,1.5-2.3.4-.9.6-1.8.6-2.8s-.2-1.9-.6-2.8c-.4-.9-.9-1.6-1.5-2.3-.6-.6-1.4-1.1-2.3-1.5-.9-.4-1.9-.6-2.9-.6s-2.6.3-3.7.9c-1.1.6-2,1.5-2.6,2.6-.6,1.1-.9,2.3-.9,3.6s.3,2.5.9,3.6M141.2,26.6c.7-.8,1.6-1.2,2.7-1.2s2,.4,2.7,1.2c.7.8,1.1,1.7,1.1,2.8s-.4,2-1.1,2.8c-.7.8-1.6,1.2-2.7,1.2s-2-.4-2.7-1.2c-.7-.8-1.1-1.7-1.1-2.8s.4-2,1.1-2.8M125.5,36.3v-7.5l6.6,7.5h2.6v-13.7h-3.4v7.7l-6.6-7.7h-2.6v13.7h3.4ZM111.8,36.3v-4h2.6l2.6,4h4l-3.2-4.8c.7-.4,1.3-1,1.7-1.7.4-.7.6-1.5.6-2.4,0-1.5-.5-2.6-1.6-3.5-1-.9-2.4-1.3-4.1-1.3h-6v13.7h3.4ZM111.8,25.6h2.5c.7,0,1.2.2,1.7.5.5.3.7.8.7,1.3s-.2,1-.7,1.3c-.4.3-1,.5-1.7.5h-2.5v-3.7ZM106.1,36.3v-3h-7v-2.4h6.1v-2.9h-6.1v-2.5h7v-3h-10.4v13.7h10.4ZM84.4,36.4h3.4l5.9-13.8h-3.7l-3.9,9.3-3.9-9.3h-3.7l5.9,13.8ZM64.8,33c.6,1.1,1.5,2,2.6,2.6,1.1.6,2.3.9,3.7.9s2-.2,2.9-.6c.9-.4,1.7-.9,2.3-1.5.6-.6,1.1-1.4,1.5-2.3.4-.9.6-1.8.6-2.8s-.2-1.9-.6-2.8-.9-1.6-1.5-2.3c-.6-.6-1.4-1.1-2.3-1.5-.9-.4-1.9-.6-2.9-.6s-2.6.3-3.7.9c-1.1.6-2,1.5-2.6,2.6-.6,1.1-.9,2.3-.9,3.6s.3,2.5.9,3.6M68.4,26.6c.7-.8,1.6-1.2,2.7-1.2s2,.4,2.7,1.2c.7.8,1.1,1.7,1.1,2.8s-.4,2-1.1,2.8c-.7.8-1.6,1.2-2.7,1.2s-2-.4-2.7-1.2c-.7-.8-1.1-1.7-1.1-2.8s.4-2,1.1-2.8M47.5,29.6c0,1.3.3,2.5.9,3.5.6,1.1,1.5,1.9,2.6,2.5,1.1.6,2.4.9,3.8.9s3.3-.6,4.3-1.9v1.7h2.7v-7.7h-7.3v2.7h3.9c-.3.7-.8,1.2-1.4,1.6-.6.4-1.3.5-2.1.5-1.2,0-2.1-.4-2.9-1.1-.7-.7-1.1-1.7-1.1-2.8s.4-2.2,1.1-3c.7-.8,1.7-1.1,2.9-1.1s.6,0,.9,0c.3,0,.6.2.9.3.3.1.6.4.8.6.2.3.4.6.6,1h3.6c-.2-1.1-.6-2-1.3-2.8-.7-.8-1.5-1.4-2.4-1.8-1-.4-2-.6-3.1-.6s-2.6.3-3.7.9c-1.1.6-2,1.5-2.6,2.6-.6,1.1-1,2.4-1,3.8M53.8,57.1c1.1,0,2.2-.2,3.1-.5,1-.4,1.8-.9,2.5-1.5.7-.6,1.2-1.4,1.6-2.3.4-.9.6-1.9.6-3s-.2-2-.6-2.9c-.4-.9-.9-1.7-1.6-2.3-.7-.6-1.5-1.1-2.5-1.5-1-.4-2-.5-3.1-.5h-5.8v14.5h5.8ZM51.6,45.8h2.2c1.2,0,2.2.4,3,1.1.8.8,1.2,1.7,1.2,2.8s-.4,2.1-1.2,2.9c-.8.8-1.8,1.2-3,1.2h-2.2v-8ZM74.6,57.1v-3.1h-7.4v-2.5h6.4v-3.1h-6.4v-2.6h7.4v-3.1h-11v14.5h11ZM151.2,47.1c-.4-3.9-3.9-4.8-6.2-4.8-3.4,0-5.8,1.8-5.8,4.8s1.3,3.7,4.2,4.3l2.4.5c1.2.2,1.5.7,1.5,1.2,0,.8-.7,1.3-2.1,1.3s-2.8-.8-3.1-2.1h-3.6c.3,3.6,3.3,5.1,6.6,5.1s6-1.8,6-4.7-1.7-3.6-4.4-4.2l-2-.5c-1.1-.2-1.7-.6-1.7-1.4s.8-1.5,2.1-1.5,2.2.7,2.4,1.8h3.6ZM130.3,46.7l1.9,4.8h-3.8l1.9-4.8ZM127.2,54.6h6.2l1,2.5h3.8l-6.1-14.6h-3.5l-6.2,14.6h3.9l1-2.5ZM120.5,57.2v-14.6h-3.6v8.2l-7-8.2h-2.8v14.6h3.6v-8l7,8h2.8ZM101.2,57.2h3.6v-14.6h-3.6v14.6ZM95.4,57.2v-7.3l-3.2,5h0s-2,0-2,0h0s-3.3-5.1-3.3-5.1v7.3h-3.6v-14.6h2.7l5.2,7.8,5.2-7.8h2.7v14.6h-3.6Z"/>
      <path class="st4" d="M148.1,68.3h1.1v1.2h-1.1v-1.2ZM144.5,67.1l-1-2.4-1,2.4h2.1ZM143,63.4h1l2.7,6.1h-1.1l-.6-1.5h-2.9l-.6,1.5h-1.1l2.7-6.1ZM135.7,66.4c.8,0,1.2-.4,1.2-1h0c0-.7-.5-1-1.3-1h-1.5v2h1.6ZM133.1,63.4h2.7c.8,0,1.4.2,1.7.6.3.3.5.8.5,1.3h0c0,1-.6,1.6-1.4,1.9l1.6,2.3h-1.3l-1.5-2.1h-1.3v2.1h-1.1v-6.1ZM126,63.4h4.5v1h-3.4v1.6h3v1h-3v1.6h3.5v1h-4.5v-6.1ZM121.1,66.6c.8,0,1.3-.4,1.3-1.1h0c0-.7-.5-1.1-1.3-1.1h-1.2v2.2h1.2ZM118.8,63.4h2.4c1.4,0,2.3.8,2.3,2h0c0,1.4-1.1,2.1-2.4,2.1h-1.2v1.9h-1.1v-6.1ZM111.5,68.6l.6-.8c.6.5,1.2.8,1.9.8s1.1-.3,1.1-.8h0c0-.4-.2-.7-1.4-.9-1.3-.3-2-.7-2-1.8h0c0-1.1.9-1.8,2.1-1.8s1.6.3,2.2.8l-.6.8c-.5-.4-1.1-.6-1.6-.6s-1,.3-1,.7h0c0,.5.3.7,1.4,1,1.3.3,1.9.8,1.9,1.8h0c0,1.1-.9,1.8-2.2,1.8s-1.8-.3-2.5-1M108.2,66.5h0c0-1.2-.9-2.2-2.1-2.2s-2,1-2,2.1h0c0,1.2.9,2.2,2.1,2.2s2-1,2-2.1M103,66.5h0c0-1.7,1.3-3.1,3.2-3.1s3.2,1.4,3.2,3.1h0c0,1.7-1.3,3.1-3.2,3.1s-3.2-1.4-3.2-3.1M98.2,66.4c.8,0,1.2-.4,1.2-1h0c0-.7-.5-1-1.3-1h-1.5v2h1.6ZM95.6,63.4h2.7c.8,0,1.4.2,1.7.6.3.3.5.8.5,1.3h0c0,1-.6,1.6-1.4,1.9l1.6,2.3h-1.3l-1.5-2.1h-1.3v2.1h-1.1v-6.1ZM90.7,66.6c.8,0,1.3-.4,1.3-1.1h0c0-.7-.5-1.1-1.3-1.1h-1.2v2.2h1.2ZM88.4,63.4h2.4c1.4,0,2.3.8,2.3,2h0c0,1.4-1.1,2.1-2.4,2.1h-1.2v1.9h-1.1v-6.1ZM75.4,63.4h1.1l1.8,2.9,1.8-2.9h1.1v6.1h-1.1v-4.3l-1.9,2.9h0l-1.9-2.8v4.3h-1v-6.1ZM68.3,63.4h4.5v1h-3.4v1.6h3v1h-3v1.6h3.5v1h-4.5v-6.1ZM63.4,66.4c.8,0,1.2-.4,1.2-1h0c0-.7-.5-1-1.3-1h-1.5v2h1.6ZM60.8,63.4h2.7c.8,0,1.4.2,1.7.6.3.3.5.8.5,1.3h0c0,1-.6,1.6-1.4,1.9l1.6,2.3h-1.3l-1.5-2.1h-1.3v2.1h-1.1v-6.1ZM55.2,64.4h-1.9v-1h4.9v1h-1.9v5.1h-1.1v-5.1ZM45.3,66.5h0c0-1.2-.9-2.2-2.1-2.2s-2,1-2,2.1h0c0,1.2.9,2.2,2.1,2.2s2-1,2-2.1M40.1,66.5h0c0-1.7,1.3-3.1,3.2-3.1s3.2,1.4,3.2,3.1h0c0,1.7-1.3,3.1-3.2,3.1s-3.2-1.4-3.2-3.1M32.2,63.4h1.1v6.1h-1.1v-6.1ZM24.4,66.9v-3.5h1.1v3.4c0,1.1.6,1.7,1.5,1.7s1.5-.6,1.5-1.7v-3.5h1.1v3.4c0,1.8-1,2.7-2.6,2.7s-2.6-.9-2.6-2.7M19.7,68.3l-1-.9.7-.8,1,1c.2-.3.3-.7.3-1.1h0c0-1.2-.9-2.2-2.1-2.2s-2,1-2,2.1h0c0,1.2.9,2.2,2.1,2.2s.8-.1,1-.3M20.5,69c-.5.4-1.1.6-1.8.6-1.9,0-3.2-1.4-3.2-3.1h0c0-1.7,1.3-3.1,3.2-3.1s3.2,1.4,3.2,3.1h0c0,.7-.2,1.3-.6,1.9l.7.6-.7.8-.7-.6ZM11.6,67.1l-1-2.4-1,2.4h2.1ZM10.1,63.4h1l2.7,6.1h-1.1l-.6-1.5h-2.9l-.6,1.5h-1.1l2.7-6.1Z"/>
    </g>
  </g>
</svg>