<?xml version="1.0" encoding="UTF-8"?>
<svg id="Layer_1" xmlns="http://www.w3.org/2000/svg" version="1.1" viewBox="0 0 155.9 100">
  <!-- Generator: Adobe Illustrator 30.1.0, SVG Export Plug-In . SVG Version: 2.1.1 Build 136)  -->
  <defs>
    <style>
      .st0, .st1, .st2 {
        fill: none;
      }

      .st1, .st2 {
        stroke: gray;
        stroke-width: .2px;
      }

      .st2 {
        stroke-dasharray: 1 1;
      }
    </style>
  </defs>
  <path class="st2" d="M222.5,17"/>
  <line class="st1" x1="-529.3" y1="-207.6" x2="-529.3" y2="-206.5"/>
  <path class="st1" d="M-314.3-206.5"/>
  <g id="Layer_1-2">
    <rect class="st0" x="3.4" y="-11.4" width="148.8" height="141.7"/>
    <g>
      <path d="M62,40.9h-12.8c-.4,0-.6,0-.6.6v24.2c0,.4,0,.6.6.6h1.9c.4,0,.6,0,.6-.6v-11h7.1c.4,0,.6,0,.6-.6v-1.5c0-.4,0-.6-.6-.6h-7.1v-8.7h10.6c.4,0,.6,0,.6-.6v-1.5c0-.4,0-.6-.6-.6"/>
      <path d="M65.9,40.9h-1.9c-.4,0-.6,0-.6.6v24.2c0,.4,0,.6.6.6h1.9c.4,0,.6,0,.6-.6v-24.2c0-.4,0-.6-.6-.6"/>
      <path d="M81.6,47.9v10.8c0,1.5-.4,2.6-1.3,3.3s-2.4,1.3-3.7,1.3-2.8-.4-3.5-1.3-1.3-2-1.3-3.3v-10.8c0-1.5.4-2.6,1.3-3.5.7-.9,2.2-1.3,3.5-1.3s3,.4,3.7,1.3,1.3,2,1.3,3.5M80.8,41.6c-1.1-.6-2.8-.9-4.3-.9s-3,.4-4.1.9c-1.1.6-2,1.5-2.6,2.6-.6,1.1-.9,2.4-.9,3.9v10.6c0,1.5.4,2.8.9,3.7.6,1.1,1.5,2,2.6,2.6,1.1.6,2.6.9,4.1.9s3.2-.4,4.3-.9,2-1.5,2.6-2.6c.6-1.1.9-2.4.9-3.7v-10.6c0-1.5-.4-2.8-.9-3.9s-1.5-2-2.6-2.6"/>
      <path d="M94,40.7c-2.2,0-4.1.7-5.4,1.9s-2,3-2,5v11.2c0,2,.7,3.9,2,5.2,1.3,1.3,3.7,1.9,6,1.9s3.9-.7,5.2-1.9c1.3-1.3,2-3,2-5h0c0-.6,0-.7-.6-.7h-1.9c-.4,0-.6,0-.6.4v.6c0,1.3-.4,2.4-1.3,3.2-.7.7-1.9,1.3-3.3,1.3s-3.2-.4-3.9-1.3-1.3-1.9-1.3-3.2v-11.5c0-1.3.4-2.4,1.3-3.2.7-.7,2-1.3,3.5-1.3s3,.4,3.7,1.3c.7.7,1.3,1.9,1.3,3.2v.6q0,.4.6.4h1.9c.4,0,.6-.2.6-.6v-.4c0-2-.7-3.7-2-5-1.3-1.3-3.5-1.9-5.8-1.9"/>
      <path d="M116.7,47.7c0,1.3-.4,2.6-1.1,3.5-.7.7-1.7,1.3-2.8,1.3h-5.8v-9.1h5.8c1.1,0,2,.4,2.8,1.3.7.7,1.1,1.9,1.1,3.3M115,54.4h0c1.3-.4,2.4-1.1,3.2-2.2.7-1.1,1.1-2.8,1.1-4.5s-.2-2.6-.7-3.5-1.3-1.9-2.2-2.4-2-.9-3.3-.9h-8.4c-.4,0-.6,0-.6.6v24.2c0,.4,0,.6.6.6h1.9c.4,0,.6,0,.6-.6v-10.8h5.4l4.5,11c0,.2.2.4.6.4h1.9q.4,0,.4-.4h0c0-.2-4.5-11.2-4.5-11.2h0l-.2-.2Z"/>
      <path d="M136.6,40.9h-1.9c-.4,0-.6,0-.6.6v17.5c0,1.5-.4,2.6-1.3,3.5-.7.9-2.2,1.3-3.7,1.3s-2.8-.4-3.7-1.3c-.7-.9-1.3-2-1.3-3.5v-17.5c0-.4,0-.6-.6-.6h-1.9c-.4,0-.6,0-.6.6v17.3c0,1.5.4,2.8.9,3.9s1.5,2,2.6,2.6c1.1.6,2.8.9,4.1.9s3.2-.4,4.1-.9,2-1.5,2.6-2.6c.6-1.1.9-2.4.9-3.9v-17.3c0-.4,0-.6-.6-.6"/>
      <path d="M152.2,42.9v-1.7c0-.4,0-.6-.6-.6h-13c-.4,0-.6,0-.6.6v1.5c0,.4,0,.6.6.6h10.4l-10.8,19.9v2.4c0,.4,0,.6.6.6h13c.4,0,.6,0,.6-.6v-1.5c0-.4,0-.6-.6-.6h-10.4l10.8-20.1v-.6"/>
      <path d="M40.6,64.1h-7.1l-1.5-1.5H13.9l-1.5,1.5h-6.9v-.6l.9-.9v-18.4l-.6-.6v-.9h1.7v-7.4l.6-.6v-1.5l-.2-.2s-.4-.4-.4-.6c0-.4-.4-.7-.4-1.1,0-1.3,1.1-2.4,2.4-2.4s2.4,1.1,2.4,2.4,0,.9-.6,1.5h-.2v1.5l.6.6v6.3h4.3l1.1-1.1v-4.8h3.9v-1.3h3.9v1.3h3.9v4.6l1.1,1.1h4.3v-6.3l.6-.6v-1.5l-.2-.2s-.2-.4-.4-.4c-.2-.4-.4-.7-.4-1.1,0-1.3,1.1-2.4,2.4-2.4s2.4,1.1,2.4,2.4,0,.9-.4,1.5h-.2v1.5l.6.6v7.4h1.9v1.1l-.6.6v18.4l1.1,1.1v.4h0l-.6.6ZM42.3,62.6h0v-.2l-.7-.7v-17.3l.6-.6v-2.6s-.4-.4-.6-.4h-1.1v-6.7c0-.2,0-.4-.4-.6h0c.4-.7.7-1.5.7-2.2,0-1.9-1.3-3.5-3-4.1h0l-.4-2c0-.6-.6-.7-.9-.7s-.7.2-.9.7l-.4,2h0c-1.9.6-3.2,2.2-3.2,4.3s.2,1.7.6,2.2h0s-.4.4-.4.6v5.4h-1.5v-3.3l.6-.6v-1.7c0-.4-.4-.7-.7-.7h-2.4l-.4.6h-.6v-.6c.2-.2,0-.4,0-.6,0,0-.4-.4-.6-.4h-7.1c-.2,0-.4,0-.6.2,0,0-.2.4,0,.7v.6h-.6l-.4-.6h-2.4c-.4,0-.7.4-.7.7v1.7l.6.6v3.3h-1.5v-5.4c0-.2,0-.4-.4-.6h0c.4-.7.7-1.5.7-2.2,0-1.9-1.3-3.5-3-4.1h0l-.4-2c0-.6-.6-.7-.9-.7s-.9.4-.9.7l-.4,2h0c-1.9.6-3.2,2.2-3.2,4.3s.2,1.7.6,2.2h0c-.2,0-.4.4-.4.6v6.7h-1.1c-.2,0-.4,0-.6.4v2.6l.6.6v17.3l-.7.7s-.2.4-.2.6v2.4c0,.4.4.7.7.7h8.9l1.5-1.5h16.6l1.5,1.5h8.9c.4,0,.7-.4.7-.7v-2.8"/>
    </g>
  </g>
</svg>