<?xml version="1.0" encoding="UTF-8"?>
<svg id="Layer_1" xmlns="http://www.w3.org/2000/svg" version="1.1" viewBox="0 0 102.9 100">
  <!-- Generator: Adobe Illustrator 30.1.0, SVG Export Plug-In . SVG Version: 2.1.1 Build 136)  -->
  <defs>
    <style>
      .st0, .st1 {
        fill: none;
        stroke: gray;
        stroke-width: .2px;
      }

      .st2, .st3 {
        fill: #055ca8;
      }

      .st4 {
        fill: #45b549;
      }

      .st3 {
        fill-rule: evenodd;
      }

      .st1 {
        stroke-dasharray: 1 1;
      }

      .st5 {
        fill: #ffd008;
      }
    </style>
  </defs>
  <path class="st1" d="M234.5,17"/>
  <line class="st0" x1="-517.3" y1="-207.6" x2="-517.3" y2="-206.5"/>
  <path class="st0" d="M-302.3-206.5"/>
  <g>
    <path class="st4" d="M6.7,62.4c-.5,0-1.3-.4-1.3-.4,0,0,.7-.5.9-.5.5-.4,1.1-.9,1.5-1.3h-2.9c-.7.7-1.5,1.3-2.2,1.8v1.8c1.1,0,3.3,0,3.1,1.8,0,1.1-.9,1.6-2,1.8-1.1,0-2.4-.7-3.1-1.5l-.5,2.6H0c1.8,1.5,4.9,1.6,6.8.4h0c1.1-.7,1.6-2,1.6-3.3s0-1.5-.7-2c-.4-.5-.9-.7-1.3-.9"/>
    <path class="st4" d="M8,59.8c.5-.7.5-1.5.5-2.2H1v.5l-.5,1.8h7.3"/>
    <path class="st3" d="M21,53.6c-3.8,0-6.8-2.7-6.8-6v-11.4h5.1v11.9c0,1.5,1.3,2.7,2.9,2.7s2.9-1.3,2.9-2.7v-11.9h2.4v11.4c0,3.3-2.9,6-6.8,6M6.5,46.6l-3.1-.9c-2-.7-3.3-2.6-3.3-4.8s2.2-4.9,4.9-4.9h6.2v2.2h-4.4c-.9,0-1.6.7-1.6,1.6s.4,1.3,1.1,1.5l3.1,1.1c2,.7,3.1,2.7,3.1,5.1s-2.4,5.7-5.5,5.7H.6v-2.6h5.7c.9,0,1.8-.9,1.8-2s-.5-1.6-1.5-1.8M35.6,46.6l-3.1-.9c-2-.7-3.5-2.6-3.5-4.8s2.2-4.9,4.9-4.9h6.2v2.2h-4.4c-.9,0-1.6.7-1.6,1.6s.4,1.3,1.1,1.5l3.1,1.1c2.2.7,3.3,2.7,3.3,5.1s-2.6,5.7-5.7,5.7h-6.6v-2.6h5.7c.9,0,1.8-.9,1.8-2s-.5-1.6-1.3-1.8"/>
    <path class="st3" d="M82.4,54.9h2.2v13.9c0-1.5-1.1-9.9-.9-12.6l-1.3-1.3M66,40.1h0l-2.4-2.4c-3.1,0-13-1.1-16.3-1.6v18c15.9,1.6,24.4,2,33.7,1.6h0l-15.4-15.6s.4,0,.4,0ZM66.2,34.9h18v-17.4h-18v17.4ZM52.3,36c1.1,0,11.7,1.1,12.3,1.1l16.5,16.9h21.3v-18h-50.2s.2,0,.2,0ZM82.4,56.5s-9.5.7-17.8,0c0,9.9,1.3,15,1.5,16.1h17.8c-.9-5.1-1.5-13.6-1.6-15.9"/>
    <path class="st5" d="M16,63.9c-.9-1.6-2.7-2-4.2-2.9l-2-1.1h6.2l.5-2.4h-6.6l-.9,4.9,4.8,2.6c.5.4.9,1.1.9,1.6s0,1.3-.4,1.8c.7-.4,1.5-.9,1.8-1.6.4-.9.4-2.2-.2-2.9"/>
    <path class="st5" d="M13.6,65.3l-4.6,2.2v.4c.4.5.7,1.1,1.1,1.6h.5c1.1,0,2.7-.4,3.3-1.6.4-.9,0-2.2-.5-2.7"/>
    <path class="st2" d="M36.9,63.1v-5.5h2.4v10.8h-1.6c-.5,0-.7-.5-1.1-.9s-.5-.7-.9-1.1c-.5-.7-1.1-1.5-1.8-2.2-.4-.4-.7-.9-1.1-1.3h-.2v5.3h-2.4v-10.8h0c.9,0,1.6,0,2.2.5,1.6,1.5,3.1,3.7,4.4,5.1h.2"/>
    <path class="st2" d="M52.5,63.1c0,3.3-2.6,5.9-5.9,5.9s-5.9-2.6-5.9-5.9,2.6-5.9,5.9-5.9,5.9,2.6,5.9,5.9M46.3,59.8c-1.5,0-2,1.3-2.2,2.6,0,2.2.5,4.2,3.1,3.8,2,0,2-2.7,2-4.2s-1.3-2.6-2.9-2.4"/>
    <path class="st2" d="M29.2,68.6h-3.1c0-.4-.5-1.6-.7-1.8h-4.4l-.7,1.8h-2.9l4.2-10.6c.4-.5,1.3-.5,1.8-.5s1.1,0,1.3.7l4.2,10.4h.4ZM24.4,64.4l-1.3-3.5-1.5,3.5h2.7Z"/>
    <path class="st2" d="M60.5,60.6c-1.1-.4-2.2-.7-3.3-.7s-1.5,1.1-.4,1.6c1.8.9,4,.7,4.2,3.5.4,4.6-5.5,5.1-7.9,2.4v-2.4h.5s.4.4.5.4c1.1.5,2.2.9,3.5.7.7,0,.5-.9,0-1.3-1.5-1.1-4.2-1.1-4.6-3.7-.5-4.2,4.4-4.9,7.1-3.1v2.6h.2Z"/>
  </g>
</svg>