<?xml version="1.0" encoding="UTF-8"?>
<svg id="Layer_1" xmlns="http://www.w3.org/2000/svg" version="1.1" viewBox="0 0 155.9 100">
  <!-- Generator: Adobe Illustrator 30.1.0, SVG Export Plug-In . SVG Version: 2.1.1 Build 136)  -->
  <defs>
    <style>
      .st0 {
        fill: #bfe2f3;
      }

      .st1 {
        fill: #37a8da;
      }

      .st2 {
        fill: #59b8e2;
      }

      .st3 {
        fill: #f0f8fc;
      }

      .st4 {
        fill: #6dbee4;
      }

      .st5 {
        fill: #31a4d8;
      }

      .st6 {
        fill: #4db0df;
      }

      .st7 {
        fill: #d6edf7;
      }

      .st8 {
        fill: #2ea3d9;
      }

      .st9 {
        fill: #c2e4f4;
      }

      .st10 {
        fill: #1a9bd5;
      }

      .st11 {
        fill: #c5e5f4;
      }

      .st12 {
        fill: #ebf6fa;
      }

      .st13 {
        fill: #89cbe9;
      }

      .st14 {
        fill: #42abda;
      }

      .st15, .st16 {
        fill: none;
        stroke: gray;
        stroke-width: .2px;
      }

      .st17 {
        fill: #94d0ec;
      }

      .st18 {
        fill: #a1d5ed;
      }

      .st19 {
        fill: #d3ebf7;
      }

      .st20 {
        fill: #3fabdb;
      }

      .st21 {
        fill: #1b9ad5;
      }

      .st22 {
        fill: #3ba9dc;
      }

      .st23 {
        fill: #30a4d9;
      }

      .st24 {
        fill: #1b9bd6;
      }

      .st25 {
        fill: #1d9bd6;
      }

      .st26 {
        fill: #90ceea;
      }

      .st27 {
        fill: #219dd8;
      }

      .st28 {
        fill: #def0f9;
      }

      .st29 {
        fill: #a5d6ee;
      }

      .st30 {
        fill: #1d9dd6;
      }

      .st31 {
        fill: #3eabdb;
      }

      .st32 {
        fill: #1d9dd5;
      }

      .st33 {
        fill: #1f9cd3;
      }

      .st34 {
        fill: #a0d4ee;
      }

      .st35 {
        fill: #75c2e6;
      }

      .st36 {
        fill: #bce1f2;
      }

      .st37 {
        fill: #199ad5;
      }

      .st38 {
        fill: #1c9cd6;
      }

      .st39 {
        fill: #d4ecf6;
      }

      .st40 {
        fill: #f7fbfd;
      }

      .st41 {
        fill: #29a1d7;
      }

      .st42 {
        fill: #189ad5;
      }

      .st43 {
        fill: #e6f4fa;
      }

      .st44 {
        fill: #2da3d7;
      }

      .st45 {
        fill: #c4e5f4;
      }

      .st46 {
        fill: #53b4e1;
      }

      .st47 {
        fill: #f5fafc;
      }

      .st48 {
        fill: #36a7da;
      }

      .st49 {
        fill: #f2f8fb;
      }

      .st50 {
        fill: #c3e5f5;
      }

      .st51 {
        fill: #cce8f5;
      }

      .st52 {
        fill: #1b9bd4;
      }

      .st53 {
        fill: #b1dcf0;
      }

      .st54 {
        fill: #32a5d4;
      }

      .st55 {
        fill: #1c9bd5;
      }

      .st56 {
        fill: #35a7da;
      }

      .st57 {
        fill: #33a7d9;
      }

      .st16 {
        stroke-dasharray: 1 1;
      }

      .st58 {
        fill: #229ed7;
      }

      .st59 {
        fill: #a7d7ef;
      }

      .st60 {
        fill: #5fbae4;
      }

      .st61 {
        fill: #1e9cd6;
      }

      .st62 {
        fill: #1a9ad6;
      }

      .st63 {
        fill: #b8e0f1;
      }

      .st64 {
        fill: #e8f4fa;
      }

      .st65 {
        fill: #54b3df;
      }

      .st66 {
        fill: #3da9dc;
      }

      .st67 {
        fill: #2ca2d9;
      }

      .st68 {
        fill: #43acdc;
      }

      .st69 {
        fill: #d8edf7;
      }

      .st70 {
        fill: #69bde3;
      }

      .st71 {
        fill: #2fa4d9;
      }

      .st72 {
        fill: #7fc8e7;
      }

      .st73 {
        fill: #edf7fb;
      }

      .st74 {
        fill: #e9f5fa;
      }

      .st75 {
        fill: #e4f3f9;
      }

      .st76 {
        fill: #1f9cd7;
      }

      .st77 {
        fill: #cee9f5;
      }

      .st78 {
        fill: #96d1eb;
      }

      .st79 {
        fill: #39a8da;
      }

      .st80 {
        fill: #e3f3fa;
      }

      .st81 {
        fill: #bfe3f2;
      }

      .st82 {
        fill: #e3f2fa;
      }

      .st83 {
        fill: #36a6db;
      }

      .st84 {
        fill: #28a0d8;
      }

      .st85 {
        fill: #33a5d9;
      }

      .st86 {
        fill: #209dd7;
      }

      .st87 {
        fill: #42abde;
      }

      .st88 {
        fill: #219ed7;
      }

      .st89 {
        fill: #209cd6;
      }

      .st90 {
        fill: #209dd5;
      }

      .st91 {
        fill: #33a7db;
      }

      .st92 {
        fill: #d5ecf7;
      }

      .st93 {
        fill: #1c9bd7;
      }

      .st94 {
        fill: #4bafde;
      }

      .st95 {
        fill: #199bd4;
      }

      .st96 {
        fill: #a8d9ef;
      }

      .st97 {
        fill: #a2d7ed;
      }

      .st98 {
        fill: #32a4d9;
      }

      .st99 {
        fill: #1d9bd7;
      }

      .st100 {
        fill: #3fa9db;
      }

      .st101 {
        fill: #93cde7;
      }

      .st102 {
        fill: #e4f2fa;
      }

      .st103 {
        fill: #1b9bd5;
      }

      .st104 {
        fill: #aadaf0;
      }

      .st105 {
        fill: #1e9bd7;
      }

      .st106 {
        fill: #1499d2;
      }

      .st107 {
        fill: #41abdc;
      }

      .st108 {
        fill: #84c9e8;
      }

      .st109 {
        fill: #77c4e6;
      }

      .st110 {
        fill: #1d9cd5;
      }

      .st111 {
        fill: #1b9cd4;
      }

      .st112 {
        fill: #34a7dd;
      }

      .st113 {
        fill: #259fd7;
      }

      .st114 {
        fill: #3aa9da;
      }

      .st115 {
        fill: #dff1f9;
      }

      .st116 {
        fill: #f3f9fc;
      }

      .st117 {
        fill: #27a0d7;
      }

      .st118 {
        fill: #2fa3da;
      }

      .st119 {
        fill: #35a6da;
      }

      .st120 {
        fill: #74c1e6;
      }

      .st121 {
        fill: #259fd8;
      }

      .st122 {
        fill: #58b5e0;
      }

      .st123 {
        fill: #3eabdc;
      }

      .st124 {
        fill: #1a9bd6;
      }

      .st125 {
        fill: #3eacde;
      }

      .st126 {
        fill: #8ccce9;
      }

      .st127 {
        fill: #30a3da;
      }

      .st128 {
        fill: #54b4df;
      }

      .st129 {
        fill: #d4ecf7;
      }

      .st130 {
        fill: #c2e4f3;
      }

      .st131 {
        fill: #daeef8;
      }

      .st132 {
        fill: #31a4d9;
      }

      .st133 {
        fill: #fafdfe;
      }

      .st134 {
        fill: #2aa1d8;
      }

      .st135 {
        fill: #abdaf1;
      }

      .st136 {
        fill: #239ed7;
      }

      .st137 {
        fill: #2da4d8;
      }

      .st138 {
        fill: #249fd7;
      }

      .st139 {
        fill: #32a4da;
      }

      .st140 {
        fill: #eaf5fa;
      }

      .st141 {
        fill: #2ea4d9;
      }

      .st142 {
        fill: #3ba9db;
      }

      .st143 {
        fill: #38a8d9;
      }

      .st144 {
        fill: #76c2e6;
      }

      .st145 {
        fill: #6bbfe5;
      }

      .st146 {
        fill: #209ed7;
      }

      .st147 {
        fill: #47afe4;
      }

      .st148 {
        fill: #43acde;
      }

      .st149 {
        fill: #79c4e5;
      }

      .st150 {
        fill: #1795cd;
      }

      .st151 {
        fill: #34a5dc;
      }

      .st152 {
        fill: #3ca9da;
      }

      .st153 {
        fill: #3ca9db;
      }

      .st154 {
        fill: #56b4e1;
      }

      .st155 {
        fill: #45aede;
      }

      .st156 {
        fill: #2da3d8;
      }

      .st157 {
        fill: #e1f1f9;
      }

      .st158 {
        fill: #249fd5;
      }

      .st159 {
        fill: #48aedc;
      }

      .st160 {
        fill: #fbfdfe;
      }

      .st161 {
        fill: #30a4d6;
      }

      .st162 {
        fill: #2da2d9;
      }

      .st163 {
        fill: #24a0d8;
      }

      .st164 {
        fill: #c3e4f4;
      }

      .st165 {
        fill: #1899d5;
      }

      .st166 {
        fill: #c4e5f5;
      }

      .st167 {
        fill: #e1f2f9;
      }

      .st168 {
        fill: #2aa2d7;
      }

      .st169 {
        fill: #29a1da;
      }

      .st170 {
        fill: #59b6e1;
      }

      .st171 {
        fill: #1e9dd6;
      }

      .st172 {
        fill: #d2ebf7;
      }

      .st173 {
        fill: #1c9bd4;
      }

      .st174 {
        fill: #c1e4f3;
      }

      .st175 {
        fill: #53b1e2;
      }

      .st176 {
        fill: #fbfdfd;
      }

      .st177 {
        fill: #acdbf0;
      }

      .st178 {
        fill: #9ad3eb;
      }

      .st179 {
        fill: #1c9ad5;
      }

      .st180 {
        fill: #b3dcf1;
      }

      .st181 {
        fill: #37a8d7;
      }

      .st182 {
        fill: #1c9bd6;
      }

      .st183 {
        fill: #199ad6;
      }

      .st184 {
        fill: #1e9cd5;
      }

      .st185 {
        fill: #ebf6fb;
      }

      .st186 {
        fill: #b7dff2;
      }

      .st187 {
        fill: #97d3ec;
      }

      .st188 {
        fill: #e4f3fa;
      }

      .st189 {
        fill: #28a1d9;
      }

      .st190 {
        fill: #46afda;
      }

      .st191 {
        fill: #64bae1;
      }

      .st192 {
        fill: #5cb8e1;
      }

      .st193 {
        fill: #2ca3d8;
      }

      .st194 {
        fill: #e9f5fb;
      }

      .st195 {
        fill: #1a9ad5;
      }

      .st196 {
        fill: #32a3db;
      }

      .st197 {
        fill: #1f9cd6;
      }

      .st198 {
        fill: #219dd7;
      }

      .st199 {
        fill: #dceff8;
      }

      .st200 {
        fill: #1f9dd7;
      }

      .st201 {
        fill: #1d9cd6;
      }

      .st202 {
        fill: #38a7dd;
      }

      .st203 {
        fill: #36a7db;
      }

      .st204 {
        fill: #f2f9fc;
      }

      .st205 {
        fill: #a0d5ee;
      }

      .st206 {
        fill: #209dd8;
      }

      .st207 {
        fill: #f8fbfd;
      }

      .st208 {
        fill: #9fd5ed;
      }

      .st209 {
        fill: #62b9e2;
      }

      .st210 {
        fill: #1a9bd4;
      }

      .st211 {
        fill: #1b9cd7;
      }

      .st212 {
        fill: #fafcfd;
      }

      .st213 {
        fill: #e5f3fa;
      }

      .st214 {
        fill: #2da3d9;
      }

      .st215 {
        fill: #1b9ad6;
      }

      .st216 {
        fill: #209cd7;
      }

      .st217 {
        fill: #3aa9d9;
      }

      .st218 {
        fill: #64b9e4;
      }

      .st219 {
        fill: #eaf6fb;
      }

      .st220 {
        fill: #3eaada;
      }

      .st221 {
        fill: #e4f2f9;
      }

      .st222 {
        fill: #219ed6;
      }

      .st223 {
        fill: #d1eaf6;
      }

      .st224 {
        fill: #37a7db;
      }

      .st225 {
        fill: #1e9bd6;
      }

      .st226 {
        fill: #38a7d9;
      }

      .st227 {
        fill: #a4d7ee;
      }

      .st228 {
        fill: #209dd6;
      }

      .st229 {
        fill: #2ba2d9;
      }

      .st230 {
        fill: #78c3e6;
      }

      .st231 {
        fill: #bbe1f2;
      }

      .st232 {
        fill: #2ca1da;
      }

      .st233 {
        fill: #4fb5e0;
      }

      .st234 {
        fill: #59b5e0;
      }

      .st235 {
        fill: #80c6e7;
      }

      .st236 {
        fill: #b2ddf1;
      }

      .st237 {
        fill: #89caea;
      }

      .st238 {
        fill: #fcfdfd;
      }
    </style>
  </defs>
  <path class="st16" d="M222.5,17"/>
  <line class="st15" x1="-529.3" y1="-207.6" x2="-529.3" y2="-206.5"/>
  <path class="st15" d="M-314.3-206.5"/>
  <g id="EIsbr9.tif">
    <g>
      <path class="st165" d="M139.9,47.9c-6,.3-11.7-.2-17.6-1.4v-8.2c4.3,1.5,8.6,2.1,13.1,2,1.4,0,4.3-.3,5-1.6s0-1.3-.6-1.7c-.9-.6-2-.8-3.1-1-2.1-.4-4.1-.7-6.2-1.2-4.7-1.2-8.4-3.5-8.5-8.8-.2-8.7,9.6-10.3,16.3-10.5,4.6-.1,9,.2,13.6,1.1v8.1c-4.2-1.2-8.3-1.8-12.5-1.5-1.3.1-3.8.4-3.7,2s2.2,1.8,3.3,2l5.3,1c1.9.4,3.7.9,5.4,1.8,2.8,1.4,4.4,4,4.5,7.1.3,7.9-7.6,10.4-14.2,10.9Z"/>
      <path class="st54" d="M155.4,75.4h-73.6s73.6,0,73.6,0Z"/>
      <path class="st195" d="M108.6,70.2v-3.9c-.6,1.3-.8,2.5-1.2,3.8s-.5.2-.7,0l-1.1-3.8v3.8c-.3,0-.8.1-.9,0v-5.4c.4-.2.9-.1,1.3,0l1,3.7,1.1-3.7c.2-.3.9-.1,1.3,0v5.4c0,.2-.8.2-.8,0Z"/>
      <path class="st24" d="M50.5,67.4c0-.4-.2-.7-.4-.7s-.7.2-.7.5v3c-.4,0-.7,0-1.1,0,0-1,0-1.9,0-2.9s-.2-.6-.5-.6c-1.1,0-.5,2.5-.7,3.5-.3.1-.6,0-1,0v-4.3c.3,0,.6,0,.9,0s.2.2.2.4c.3-.3.6-.5,1-.5s.8.2,1.1.6c.4-.5.9-.7,1.5-.5,1.3.3.7,3.2.9,4.4-.4,0-.7,0-1,0v-2.8Z"/>
      <path class="st103" d="M97.5,71.6c.2-.1.2,0,.1.1-1.6,1.3-3.7.6-5.5.1-.4,0-.5,0-.4.1.4.2.9.6,1.2,1.1,0,.2-.4.2-.5,0-.4-.5-.9-.8-1.3-1.1-.3-.2-.8-.2-1.3,0-.1-.3-.3-.3-.4-.2,0,.2-.2.3-.6.2-1.6.4-3.3.9-4.9,0-.1-.2,0-.3.6-.1h.3c1.9-.2,3.7-1.2,5.9-.4,3.3-1,4.3.8,6.9.2Z"/>
      <path class="st55" d="M70.5,70.2v-2.9c0-.4-.3-.7-.6-.6s-.6.3-.6.6v2.8c-.4,0-.7.1-1.1,0v-4.2c.4-.2,1-.1,1.1.3.5-.5,1-.5,1.5-.3,1.1.4.6,3.2.7,4.3-.3.2-.7.1-1.1,0Z"/>
      <path class="st215" d="M37.1,70.2c0-.8.3-3.4-.5-3.5s-.7.1-.7.5v2.9c-.4.2-.7.1-1.1,0v-4.3c.3,0,.6-.1.9,0l.2.4c.4-.5.9-.6,1.5-.4,1.3.3.5,3.1.8,4.3-.3.1-.6.1-1,0Z"/>
      <path class="st21" d="M45.5,62.8v-2.8c0-.4-.3-.7-.6-.7s-.6.2-.6.6v2.8c-.4.1-.7.1-1.1,0v-4.2c.3,0,.4,0,.7,0s.2.2.4.5c.3-.5.8-.6,1.3-.5,1.5.2.8,3,1,4.3-.3.1-.6.1-1,0Z"/>
      <path class="st10" d="M39.7,77.4c-.2,0-.4,0-.3-.2-.4.2-1.8.2-1.4-.4,0,0,0,0,.1,0,0,0,0,0,.1,0,.4.2.9,0,1.2-.4.4-1.3-.9-1.2-1.7-2s-.6-1.8,0-2.3,1.6-.6,2.4-.2,0,.7,0,.9c-.7-.2-1.5-.5-1.8.3s0,.6.3.8l1.2.7c.5.3.7.9.7,1.4,0,.8-.3,1.3-.9,1.5Z"/>
      <path class="st103" d="M141,67.5c.7.7.6,2-.2,2.6s-1.5.4-2.1,0c-.1-.2,0-.6,0-.8.4,0,.7.3,1.1.2s.6-.5.6-.8c0-.9-1.5-.9-1.8-1.9s-.1-1.3.3-1.7,1.5-.6,2.1-.2.1.8,0,.8l-.8-.2c-.3,0-.5.1-.7.4-.3.7.9,1.1,1.4,1.6Z"/>
      <path class="st179" d="M58.8,63.5c.3.5.2.9-.3,1-.2.2-1.3.2-1.3,0s0-.2,0-.3,1,.3.9-.3-.4-.2-.7-.2c-.1-.3,0-.5,0-.8-.9-.2-1.4-1-1.5-1.9s.1-1.7.9-2.2,1.4-.4,1.9-.2.1.7,0,.9c-.5-.2-1.1-.3-1.4.2s-.4,1.4,0,2,1,.5,1.5.3c.2.2.2.5.1.8s-1.3,0-1,.5c.2.2.6,0,.7.3Z"/>
      <path class="st55" d="M147.3,66.3c.2-.2.7-.1.9,0v3.9c0,.2-.4.1-.5.1-.2,0-.3-.1-.4-.4-.3.4-.7.5-1.2.4s-.7-.5-.7-1c0-1,0-1.9,0-2.9s.7-.2.8,0c.2.7-.3,3.2.5,3.2s.6-.2.6-.5v-2.7Z"/>
      <path class="st201" d="M51.7,62.8c-.9.1-1.8,0-2.6,0,0-.3-.2-.7,0-1l1.6-2.4h-1.5c-.2-.1-.2-.8,0-.8.9-.1,1.7,0,2.6,0,0,.4.1.7,0,1l-1.6,2.4c.6.2,1,0,1.5.1s.2.7,0,.8Z"/>
      <path class="st173" d="M112.1,66.3c0-.2.6-.1.8,0v3.7c0,.3-.1.3-.3.3-.3,0-.4,0-.6-.4-.3.4-.7.5-1.2.4s-.7-.5-.7-1c0-1,0-2,0-3s.8-.2.8,0v2.6c0,.2.3.5.5.5s.5-.2.5-.5v-2.7Z"/>
      <path class="st110" d="M119,79.9c-1.1-.1-.5,1.7-.7,3s-.6.2-.6,0v-2.7c0-.3-.5-.4-.7-.4-.8.1-.5,1.9-.6,3s-.6.2-.6,0v-3.4c0-.1.2,0,.3,0s.2.1.3.3c.6-.5,1-.5,1.6,0,.4-.2.8-.5,1.3-.3,1,.4.5,2.5.6,3.5,0,.1-.4.1-.6,0v-2.5c0-.3-.2-.6-.5-.6Z"/>
      <path class="st38" d="M113.7,69.9c.1-1.1.1-2.3,0-3.3,0-.4.2-.4.5-.4s.3.1.5.3c.4-.3.8-.5,1.2-.3,1.1.4.6,2.7.7,4-.1.2-.8.2-.8,0v-2.6c0-.3-.3-.6-.5-.5-1,0-.4,2.4-.6,3.3-.3,0-.6,0-.8,0s0-.2,0-.3Z"/>
      <path class="st25" d="M131.9,64.4c0,.6-.2,1.3.1,1.9s0,.1-.2.3-.2,0-.3-.1c0,0,.1,0,.2,0s.1-.1.1-.2v-1.9c-.4.1-1.3.2-1.2-.2s.4.1.7-.1.2-.2,0-.3-.4,0-.6-.2c0-.2,0-.4,0-.7-1.4-.3-1.6-2.5-.9-3.5s1.4-.8,2.1-.5,0,.6,0,.7c-.4,0-.8-.2-1.1,0-.5.5-.5,1.3-.2,2s.8.6,1.3.4c.2,0,.2.5,0,.7-.1.3-.9,0-.9.4s.5,0,.7.3,0,.8,0,1.1Z"/>
      <path class="st124" d="M62.2,69c.3.5.9.5,1.4.3s.2.4.2.6c0,.5-1.7.5-2.4-.2s-.7-2.7,0-3.4,2.3-.7,2.4-.2c.1,1.2-.9,0-1.5.8s-.5,1.4,0,2.1Z"/>
      <path class="st61" d="M124.5,61.7c-.1.1,0,.2.2.2.7-.1,1.1,0,1.2.3.1.7-1.6.4-2.3.4-.2-.2-.1-.8,0-1l1.3-2.2c-.5-.2-.9,0-1.3-.1s-.2-.7,0-.7c.7,0,1.5-.1,2.1,0,.3.4,0,1-.2,1.4l-1.1,1.7Z"/>
      <path class="st30" d="M33.4,60.2v2.5c-.3.1-.8.2-1,0v-3.7c0-.2-.2-.3,0-.5s.7-.1.8,0,0,.3.2.4c.2-.2.7-.7,1-.4.2.1.2.8,0,.9-.5,0-1,.2-1,.8Z"/>
      <path class="st38" d="M58.4,66.8c-.1.2-.6,0-.7.2s-.3.4-.3.8v2.5c-.4,0-.7,0-1,0v-4.3c.3,0,.4,0,.7,0s.2.2.3.5c.3-.4.6-.7,1.1-.5,0,.3.2.6,0,.9Z"/>
      <path class="st61" d="M91.2,54.1c.2.3.2.7,0,1.1.2.1.2.3,0,.5.2.3.2.6-.1.9.1.2.1.7,0,.9.4,0,.3.7,0,.8,0,.2,0,1.4-.1,1.5s-.6,0-.7,0l-.2-1.1c-.1,0-.1-.1.1-.4,0-.7-.1-1.4,0-2.1-.1-.3-.2-.5-.1-.7v-.4c0-.2,0-.6.1-.8.3-.4.7-.2,1.1,0Z"/>
      <path class="st111" d="M127,70.1c-.3.3-.6.1-.9,0v-5.7c0-.2.8-.2.9,0v5.7Z"/>
      <path class="st201" d="M99.6,69.3c-1,2.1-2.6,1.9-4.6,1.9.3-.9,1-2.7,2-3.1,0,.8-.4,1.6-.8,2.3,1.6-.3,2.1-.2,3.5-1.1Z"/>
      <path class="st200" d="M100.6,66.8h0c.2-.3.4,0,.2.3-.7,1.9-2.1,2.4-3.9,2.7.5-1.3.4-2,.8-3.2,0-.2.3-.6.5-.6s.1,1.6,0,1.9c0,.3.2.3.5.2.6-.4,1.2-.8,1.7-1.2Z"/>
      <path class="st110" d="M84.5,68.1c.9.8,1.4,1.9,1.8,3-1.5,0-3.1.2-4.1-1-.4-.5-.4-.7,0-.5,0,0,.2-.1.3-.1s1.7.4,1.8.4c.2.4,1.4.7.6.3h0c0-.1-.6-1.9-.6-1.9-.2-.3,0-.4.2-.2Z"/>
      <path class="st136" d="M83.2,66.2c.5.7.5,1.5.8,2.3l.4,1.4c0,0-.1,0-.2.1-.4,0-2.4-.6-2.6-1.1-.5-.3-.8-1-1-1.5,0-.3-.2-.5.1-.4h.2c.3.2,1.6,1.3,1.9,1.1s.1,0,.1-.2c-.1-.3-.1-2.1.2-1.9s.1,0,.2.1Z"/>
      <path class="st210" d="M46.3,76.4c0,.2,0,.3.3.5-.3,0-.6,0-.6.3.5,0,.9,0,1.2.1,0,0,0,0,0,.1-.4.2-.8.3-1.2.1s-.7-.6-.7-1.1v-3.3c.4,0,.6,0,1,0v3.1Z"/>
      <path class="st8" d="M89.4,55.5c.1-.1.3-.2.4,0,.3.2.2.3-.1.4l-.3.3c-.9.1-2.8.8-3.3,1.6s.3.4.4.5l.9-.7h.3c0,.4,0,.7-.3,1-.2.1-.4.3-.4.6.1,0,.1,0,0,.1,0,.1,0,.1-.2,0-.5.3-.9.8-1.2,1.5h-.3c-.2,0-.2-.1,0-.6v-.3c-.1,0,.6-1,.6-1,0,0-.3-.4-.4-.4-.3,0-1.2,1.8-1.4,2.2h-.3c-.2.2-.2,0,0-.3.9-2.6,3.2-4.3,5.9-4.8Z"/>
      <path class="st201" d="M60.1,70.2c-.3.2-.7,0-1,0v-4.3c.3-.1.6,0,1,0v4.3Z"/>
      <path class="st105" d="M48.3,62.7c-.2.2-.7.2-1,0v-4.2c.3-.1.6-.1,1,0v4.2Z"/>
      <path class="st61" d="M100.3,65.4c0-.4.6-1.1,1-1h.2c0,.2,0,.6-.1.9-.2.4-.4.9-.8,1.3-.2.6-1.1,1.2-1.7,1.2h-.1c0-.5-.1-1-.2-1.5l-.2-.3c0-.6,0-1.2.2-1.7,0,0,0-.1,0-.1.3-.7.6.1.7.6l.3,1.3c.2-.2.5-.5.7-.5Z"/>
      <path class="st184" d="M82.5,64.4c.1.6.1,1.3,0,1.9,0,0,.1,0,.2,0s.1,1.4-.2,1.4c-.2,0-.4,0-.7-.3-.4.2-1.2-.5-1.2-.9-.3-.4-1.4-2.2-.8-2.6.2,0,.3.3.5.5.4.6.8,1.1,1.4,1.4.1-.7.3-1.5.6-2.2.3,0,.4.4.3.6Z"/>
      <path class="st207" d="M92,55.5c0,.3-.4.1-.3.1,1.3.2,2.3.7,3.4,1.4s.2.2.2.3c.3,0,.6.4.3.6-.6,1.2-1.1.7-1.6-.3-.5.3-1,.1-1.5-.5-.4-.1-.7-.3-.9-.6,0-.2,0-.2-.3,0,0,.2-.1.2-.2,0,0-1.2.3-1.3.1-2.5.4.2.3.6,0,1.1.3,0,.5.3.7.4Z"/>
      <path class="st228" d="M101.4,61.7c0,.7.1,1.5-.2,2.2-.1.6-.5,1-1,1.4,0,.4-.5.7-.7.2,0-.6-.2-1.2-.6-1.7.1-.2.1-.4,0-.6v-.6c-.4-1.9.8,0,1.2.9.4-.6.8-1.2,1.1-1.8h.2Z"/>
      <path class="st27" d="M134.8,82.9c-.6.3-1.6,0-1.6-.1-.1-1,.7,0,1.3-.4s.3-.5,0-.7c-.4-.3-.9-.4-1.2-.8s-.2-.9,0-1.2c.5-.7,1.5-.4,1.6-.3s.1.3,0,.4c-.1.2-.9-.4-1.2.3s1.2.7,1.4,1.4,0,1-.5,1.3Z"/>
      <path class="st110" d="M82.4,63.2c0,.1-.2.3-.1.4v.3c-.2.4-.4,1-.5,1.6-.1.4-.2.4-.5.2-.5-.4-1.2-1.4-1.3-1.9,0-.1,0-.3-.1-.4-.2-.2-.2-1.6,0-1.7s.2.1.3.2c.3.6.6,1.2,1,1.7,0-.4,1.1-2.1,1.4-1.7s0,1-.2,1.3Z"/>
      <path class="st58" d="M108.8,83c-.4,0-.8,0-.9-.2s0-.4,0-.4c.2,0,.7.2,1.1,0s.3-.2.3-.5c0-.7-1.5-.5-1.5-1.6s.2-.9.7-1,.8-.1,1.1,0,0,.3,0,.4c0,.2-1-.4-1.2.3s1.5.6,1.5,1.8-.4,1.1-1.2,1.1Z"/>
      <path class="st146" d="M80.9,60.5v.6c.2,0,.2,0,.1.1,0,.3.1.5.3.5,0-.2,0-.4.2-.5.2-.6.8-1.1,1.3-1.5s.2,0,.3,0c0,.7-.5,1.3-1,1.9v.3c0,.1-.7,1.2-.8,1.3s-.1.1-.2.1c-.1,0-.9-1.4-.9-1.6.1,0,.2-.2,0-.4-.2-.7,0-1.5.4-2.1h.2c0,.4,0,.7.1,1.1Z"/>
      <path class="st171" d="M100.7,59.3c0,.1.1.4.2.5.4,1,.2,2.6-.6,3.4s-.2.2-.4,0c-.4-.7-.8-1.4-1.2-2,0-.3-.4-.6-.4-.9,0-.1,0-.2.1-.2.3-.3,1.2.6,1.1,1,.2.1.4,0,.6-.1,0,0,0,0,0-.1,0-.6,0-1.2.1-1.8l.2.3Z"/>
      <path class="st76" d="M121.8,70.2c-.3.1-.6,0-.9,0v-3.9c0-.2.7-.2.9,0v3.9Z"/>
      <path class="st222" d="M128.2,82.1c.5.8,1.7-.2,1.4.7s-1.5.5-2-.5-.4-1.7,0-2.4,1.2-.7,1.8-.5.1.3.1.3c0,.5-1-.2-1.4.5s-.4,1.3,0,1.9Z"/>
      <path class="st211" d="M122.9,62.6c-.3.2-.6,0-.9,0v-3.9c.2-.2.7-.2.9,0v3.9Z"/>
      <path class="st23" d="M84.1,66.2c.2-.1.2,0,.1.1.1.2.3.3.4.3.5,1,.9,1.2,1.2.6-.1-.2,0-.4,0-.6.2-.6,1.1,0,1.4.2,0,.2,0,.3-.1.3.4.2.6.5.6.8.1.3,0,.2-.3.1-.3.2-.7,0-1.1-.4l-.4.5c.6.5,1.3,1,2.1,1.3v.3c.3,0,.3.2,0,.2-.9-.4-1.8-.7-2.5-1.4-.2-.2-.4-.3-.5-.5-.7-.7-1.3-1.6-1.5-2.5,0-.2-.2-.5.1-.4.3.2.4.6.4.9Z"/>
      <path class="st41" d="M94.7,60.7c.4,0,.5.7.5,1,.3.2.4.9.2,1.1.2,0,.3.2.2.3-.2,1-.4,2-1,2.8.2,0,.3.2.4.4.5-.5.8-1.2,1.1-1.9l.3-.2c0-.2,0-.2.2,0l.3.2c-.1,1-.6,1.9-1.3,2.7,0,.2.2.4.4.4l.9-1.1h.3c.3-.4.3-.1,0,.3-.4.7-.8,1.3-1.4,1.9-.1.2-.4.5-.6.4-.1,0-.1,0-.1-.1-.2-.1-.1-.4.2-.7-.2-.5-.5-.5-.9-.1h-.3c-.2,0-.4,0-.3-.2,0-.2.2-.5.5-.7-.2-.1-.2-.3,0-.5-.2,0-.3,0-.5-.3l-.5-1.2c0-.4,0-.6.3-.7.3,0,.4.2.5.7.3-.5.6-1,.8-1.6,0-.3,0-.5,0-.6-.3,0-.2-.2,0-.3,0,0,0-.1.1-.1-.3-.1-.5-.2-.7-.4-.4-.1-.5-.3-.4-.5,0-.4,0-.5.4-.6-.2-.2-.3-.6,0-.7-.1-.3,0-.4.2-.2.2-.2.4,0,.2.3Z"/>
      <path class="st197" d="M82.1,57.6c-.1.1,0,.5-.1.6,0,.2,0,.4-.1.5v.6c.1-.3.3-.6.6-.6l1-.8h.2c.8-.2-.3,1-.4,1.1-.6.6-1.3,1.2-1.8,1.9h-.2s-.1,0-.1,0v-.7c-.3-.2-.3-.7-.1-1l.4-1.3.5-.6c.2,0,.2,0,.1.2Z"/>
      <path class="st76" d="M100,58.7c.1.7.1,1.4,0,2.1h-.2c-.3,0-.6-.3-.9-.7-.5-.3-.8-.6-1-1-.4-.3-.7-.9-.9-1.3.3,0,.5.2.6.3.3,0,.6.1.9.4.3.1.4.3.3.4,0,0,.2.2.3.3,0,0,.1,0,.1-.1h0c0-.1-.1-.8-.1-.8v-.2c-.1-.2-.1-.4,0-.5-.2-.2-.1-.3.1-.1.4.3.4.7.6,1.1Z"/>
      <path class="st113" d="M125.5,79.9c-.6,0-.9.3-.9.8v2.1c0,.1-.6.1-.6,0,0-1.1-.1-2.3,0-3.4s.5,0,.7,0c.2,0,.6-.4.9-.2,0,0,0,.3,0,.5Z"/>
      <path class="st82" d="M80.3,61.5c.2.6.5,1.1.8,1.8.3-.6.6-1.1,1-1.5,0,0,0,.2,0,.3,0-.2.5-.4.6-.2,0,.5,0,1-.3,1.3,0-.4.2-.8,0-1.2-.7.7-1,1.5-1.2,2.4l-1.3-2.5c-.3.5,0,1,0,1.6-.4-.1,0-2.4.1-2s0,.1,0,.2.2.1.2,0,0-.2,0-.2Z"/>
      <path class="st88" d="M98.9,58.2c0,.2,0,.4-.1.3-.3,0-.8-.3-.9-.6-.6-.6-1.1-1.4-1.5-2.1,1.3.3,2.2,1.2,2.5,2.4Z"/>
      <path class="st43" d="M101.4,61.7l-1.4,2.5c-.2-.9-.5-1.7-1.2-2.4,0,.3-.1.5,0,.8-.2,0-.2-.4-.2-.6s.1-.3.4-.4c-.1-.1-.2-.3-.3-.4.6.5,1,1.2,1.4,2,.7-1.3,1.1-2.1.7-3.4.4.3.2.8.3,1.3s.2.4.2.6Z"/>
      <path class="st189" d="M126.7,82.8c0,.2-.6.2-.6,0,0-1.2,0-2.3,0-3.5s.6-.1.6,0c0,1.1,0,2.2,0,3.4Z"/>
      <path class="st84" d="M92.3,82.8c0,.2-.6.2-.6,0,0-1.1,0-2.3,0-3.4s.6,0,.6,0c0,1.1,0,2.2,0,3.3Z"/>
      <path class="st88" d="M84.6,55.9c.2-.1.4-.1.2.1-.4.5-.8,1.1-1.1,1.6-.3.4-.8.8-1.3,1.1-.2,0-.2-.3,0-.6.5-1,1.2-1.9,2.3-2.3Z"/>
      <path class="st132" d="M95,68.9s0,0,.1.1c0,0,0,.2-.1.3-2.1,1.3-4.6,1.8-6.9.9v-.2s.4-.2.4-.2c2.1.5,4.2.2,6-1h.4Z"/>
      <path class="st185" d="M98.6,66.3v.3c0,.9,0,1.3.3,1.3.5-.4,1.2-.8,1.7-1.2v.2c-.2.6-.8,1-1.4,1.3l-1,.5c.1-.8.3-1.6,0-2.5-.3,0-.3.3-.4.4,0-.3.3-.5.5-.8s-.3-1.2.3-1.5c0,.7,0,1.3,0,2Z"/>
      <path class="st75" d="M82.7,64.3h0c0,.2,0,.2-.1.1,0-.1,0-.3-.2-.4-.4.9-.5,1.8-.4,2.8l-1.7-2.1c-.2-.2-.3-.4-.4-.7,0,0,0-.2.1-.3.5.6.9,1.3,1.5,1.9.2-.8.4-1.5.8-2.1.3.2.4.4.4.8Z"/>
      <path class="st43" d="M83.2,66.2c-.4-.3-.2,2.2,0,2.4-.7-.3-2.2-1.1-2.5-1.6-.2,0-.3-.1-.1-.3,0,0,.2,0,.1-.1.3.3.9.6,1.2.9l.6.3c0,.2,0,.1,0,0v-1.4c0-.6,0-1.3.1-1.9h0c0,.1.2.4.1.8-.2.5.1.7.4,1Z"/>
      <path class="st163" d="M62.3,57.5c-.6,1.1-1.1-.4-2.2.6-.2-.4,0-.7.2-.9.6-.8,1.2.6,2-.4.2.3.1.6,0,.8Z"/>
      <path class="st194" d="M84.9,70.2c.1.1.3.2.4.4-1.3-.6-1.9-.3-3-.9-.3,0-.4,0-.5-.3,0-.2-.1-.3-.1-.5.8.5,1.8.7,2.7.9-.2-.6-.3-.9-.3-1.3,0,0,.2.1.1.2,0,.4.2.7.3,1.1s0,.4.2.4.2,0,.3,0Z"/>
      <path class="st32" d="M40.6,68.3c-.6,0-1.1.1-1.7,0s-.1-.6,0-.8h1.7c0,.3,0,.4,0,.9Z"/>
      <path class="st143" d="M92,55.5c1.3.4,2.6.8,3.6,1.8,0,.3,0,.3-.3,0-1.2-.8-2.5-1.4-4-1.6.2-.4.5-.2.7-.2Z"/>
      <path class="st193" d="M135.1,57.2c.3,0,0,.6-.1.8-.3.2-.7.1-1,0l-.7.3c-.2-.3,0-.6.1-.8.3-.3.7-.2,1,0s.4-.3.8-.2Z"/>
      <path class="st188" d="M100.2,65.3c.1,0,.1,0,.1.1l-1,1.4c.1-.3,0-3.5-.6-2.7,0,0,0-.2,0-.3s.2-.1.3-.1v-.5c.3.7.6,1.5.8,2.3l.5-.3Z"/>
      <path class="st223" d="M91.1,58.3c.2,0,.3,0,.2.2.1,0,0,0,0,.1.2.2,0,.2-.1.1l.3.2c0,.3,0,.5.1.7.1.4-.7.7-.9.3-.2,0-.3,0-.4-.1-.4,0-.6-.8-.3-1-.2,0-.4-.1-.5-.3,0-.3.2-.4.4-.4,0-.2,0-.4,0-.5-.4,0-.4-.8,0-.9,0-.3-.1-.6-.2-.9,0-.1.1-.2.1-.4,0-.1,0-.1.1-.1,0-.1,0-.3,0-.4.4,1,.2,3,.3,4.6s.4.1.5.1.2-.2.2-.5c0-.4.1-.6.1-.9Z"/>
      <path class="st121" d="M58.6,64.6c.3-.3.3-.7.3-1,0,.2.2.3.3.5.3,0,.7,0,.9,0,.1.2.2.7,0,.9s-.6,0-.9,0v-.7c-.3.1-.4.2-.5.2Z"/>
      <path class="st142" d="M98,61.4c0,.4,0,.5-.2.5l-.3-.3c-.2-.9-.6-1.8-1.1-2.6v-.4c-.1-.2,0-.3.2-.1.8.8,1.2,1.9,1.4,2.9Z"/>
      <path class="st85" d="M47.8,71.6c-.3.5-.6,1.1-.9,1.2s-.4,0-.4-.2c.1-.4.2-.8.5-1s.8-.2.8,0Z"/>
      <path class="st98" d="M95.2,78.6c-.5.7-.8-.5-1.7.3-.2-.3,0-.6.1-.7.4-.4,1,0,1.2,0s.2-.3.4-.3c.4,0,.1.4,0,.6Z"/>
      <path class="st153" d="M91.1,71.9c-1.7-.7-2.2,2-2.9,1.1l1-.9h0c.3-.2.4-.3.3-.4.4-.5.4.3,1.1,0s.4.1.5.2Z"/>
      <path class="st33" d="M48.3,57.6c-.3,0-.6,0-1,0,0-.3,0-.6,0-1,.3,0,.6,0,1,0,0,.3,0,.6,0,1Z"/>
      <path class="st69" d="M83.7,57.7c0,0-.1.1-.1.2s.2.1.2,0c0,0-2.5,2-2,1.4v-.6c0-.2.1-.3.2-.5,0,.1,0,.3,0,.4,0-.2,0-.4.2-.4,0,.1,0,.4,0,.4.5-.3.8-.7,1.3-.9Z"/>
      <path class="st115" d="M99.9,60.9c.3.3.1.4-.2.2-.4-.3-.7-.8-1.1-1h-.2c0-.3-.2-.3-.2-.2-.3-.2,0-.5-.2-.8.7.5,1.4,1,1.9,1.7Z"/>
      <path class="st167" d="M83.4,59.1c-.1.2-.4.5-.4.8-.7.3-1.1,1-1.6,1.4-.2,0-.2,0,0-.1-.2,0-.2-.1,0-.2.4-.8,1.2-1.4,2-1.9Z"/>
      <path class="st107" d="M98.1,64.1c0,1-.4,1.8-.9,2.7,0,0,0-.1,0-.2s0-.1-.1,0c-.1-.5.2-1.6.4-2.1l.3-.3c0-.1,0,0,.1,0,0,0,0,0,.1,0Z"/>
      <path class="st138" d="M121.8,65.4c-.3,0-.6,0-.9,0-.1-.3-.1-.6,0-1,.3,0,.6,0,.8,0,0,.3,0,.5,0,.9Z"/>
      <path class="st117" d="M122.9,57.9c-.3,0-.6,0-.9,0,0-.3,0-.6,0-1,.3,0,.5,0,.8,0,.1.3,0,.5,0,.9Z"/>
      <path class="st137" d="M147.5,64.6c0,.4-.7,1.5-1.1,1,0-.3.2-.7.4-.9s.6-.1.8,0Z"/>
      <path class="st112" d="M83.5,61.6c.1,0,.1,0,0,.1,0,.2-.1.5-.1.8h.4c.3,0,.6.1.8.2.3,0,.2.4,0,.4-.1.2-.4.3-.9.3l-.3.4c0,.2.1.6-.2.5,0,0,0,0,0-.1v-.9c-.2-.2-.1-.3-.1-.5v-.9c0-.2.2-.5.2-.7.3-.3.3.1.2.4Z"/>
      <path class="st169" d="M38.2,76.8h-.1c0,.2,0,.3-.2.3.5.2,1.1.3,1.6,0,.1,0,.2.1.3.2-.6.3-1.5.4-2.2,0-.1-.1-.1-.6,0-.8s.6,0,.7.2Z"/>
      <path class="st129" d="M100.3,61c0,.3,0,.7-.2,1.1-.2-.3-.3-.7-.4-1,0,0,.2-.2.2-.2.3-.7,0-1.4.1-2.2.4.8,0,2.1.3,2.3Z"/>
      <path class="st100" d="M122.7,77.9c0,.1-.7,1.4-1,1s0-.3,0-.4c.1-.4.3-.8.9-.6Z"/>
      <path class="st52" d="M120.6,58.6c-.5-.2-.9,0-1.3.3-.2-.2-.6-.4-.9-.2v3.9c.3,0,.6.1.9,0,.2-.7-.3-3.2.6-3.2.4,0,.5.3.5.6v2.6c.3.1.6.1.9,0-.1-1.1.4-3.6-.7-4Z"/>
      <path class="st181" d="M95.6,57.3c.4.4.8.6,1,1.1h-.1c-.3.2-.7,0-.8-.2-.3,0-.3,0-.1-.2,0-.2-.1-.4-.3-.6,0-.1.2,0,.3,0Z"/>
      <path class="st14" d="M126,78c0-.1.4-.1.6,0s.1.4,0,.6-.3.2-.5.1-.2-.4-.1-.7Z"/>
      <path class="st199" d="M101.3,64.2c.2,0,.2.3,0,.3l-1,1s0,0-.1-.1c.2-.5.8-.9,1-1.4,0,.1,0,.2.1.3Z"/>
      <path class="st28" d="M81.1,60.2c0,.4.1.7.3.9,0,0,0,0,0,.1,0,.3-.2.3-.3,0,0,.1,0,.1-.1,0,0,0,0,0,0-.1v-.6c-.2-.5-.2-1-.3-1.5,0,0,0-.2.2-.3,0,.3-.1.5.1.7,0-.6,0-1,.4-1.4-.2.7-.4,1.5-.4,2.3Z"/>
      <path class="st220" d="M92.4,78.4c0,.3-.2.3-.3.3-.3,0-.3,0-.3-.4s0-.4.3-.4.3,0,.3.5Z"/>
      <path class="st150" d="M113.7,69.9v-3.3c.2,0,.4,0,.7,0-.1.1-.3,0-.5.1v2.9c0,.1,0,.3-.1.3Z"/>
      <path class="st184" d="M31.9,68.3c0,.2,0,.4,0,.6v.3s.3,0,.9.3c0,.1,0,.3.3.2.3-.2,0-.5.3-.5v1c-.2,0-.2-.2-.4-.2s-.2,0-.3.1c0-.1,0-.3,0-.4-.3.2-.5.1-.8,0s-.6-.5-.4-1.1.3-.3.5-.3Z"/>
      <path class="st172" d="M98.8,58.5c0,0,.2,0,.2,0,.2.1,0,.4,0,.6l-1.3-.9c0,0,.1-.1.1-.2.3.2.6.4.9.6Z"/>
      <path class="st224" d="M83.6,64.7c.2,0,.2.3.1.5,0,0,0,0,0,.1-.1,0-.1.3-.1.4-.3-.4-.3-.9-.4-1.4.1-.1.2-.3.2-.5.5,0,.5.7.2.9Z"/>
      <path class="st169" d="M32.5,75c.4,0,.7,0,1.1-.2,0-.2-.1-.7-.3-.8-.5-.2-1,0-1.5.2-.1-.3-.2-.7,0-.8-.1,1.2.9,0,1.7.6s.3.6.3.9c-.5.2-.9,0-1.3,0Z"/>
      <path class="st178" d="M100.7,59.3h-.2c-.1.5.2,1-.1,1.5v-2.1c.4.1.3.4.4.6Z"/>
      <path class="st224" d="M83.7,60.7c.4.1.3.9-.2.9,0-.2,0-.3-.2-.4,0-.3.2-.6.3-.9,0,.1,0,.3,0,.4Z"/>
      <path class="st158" d="M124.5,61.7c.2.3,1.3,0,1.4.2s0,.2,0,.3c-.3-.6-1.1.2-1.7-.5.1-.1.2,0,.3,0Z"/>
      <path class="st87" d="M98.1,64.1c0-.4,0-.7-.3-1,.2-.3.2-.6.3-1,.2-.2.2,2.2,0,2.1Z"/>
      <path class="st184" d="M30.8,69.5c-.2-.4-.2-.7,0-1.1.1,0,.1.2.2.4.2-.3.2-.2.2,0,0,0-.3,0-.4.2s0,.3,0,.4Z"/>
      <path class="st2" d="M80.9,60.5c-.3-.2,0-.9-.3-1.1,0-.1,0-.3.1-.4.1,0,.1.1.1.2v1.3Z"/>
      <path class="st169" d="M34.1,73.5c-.5-.2-1-.3-1.6-.3.5-.2,1.2-.2,1.6.3Z"/>
      <path class="st46" d="M82.2,69.7h-.3c.2.2.3.3.3.5-.2-.2-.6-.4-.5-.8.2,0,.3.2.5.3Z"/>
      <path class="st87" d="M101.3,65.3c-.1-.3.3-.7,0-.9v-.3s.2-.1.2-.1c.1.4,0,.9-.2,1.3Z"/>
      <path class="st184" d="M32.4,70.2c-.4.2-1,.2-1.3-.1h1.3Z"/>
      <path class="st169" d="M38.3,76.8c.4,0,.8-.1,1.2-.4,0,.3-.2.5-.5.5s-.5.1-.7-.1Z"/>
      <path class="st187" d="M84.7,71.7c-.3.3-.7-.2-.9.1,0,0-.3,0-.3-.4.4,0,.8.2,1.2.2Z"/>
      <path class="st182" d="M155,70.2c.1-.2.2-.5.1-.7-.1,0-.2,0-.2,0,.1-.1.1-.4.3-.2.2.2.1.7.1.9s-.1.1-.3,0Z"/>
      <path class="st125" d="M98.5,60.1c0,0,0,.1-.1.2,0,0-.2,0-.2,0,0,0,0-.2,0-.3,0,0,0-.1,0-.2.2,0,.2.3.3.4Z"/>
      <path class="st238" d="M95,69.3c0,0,0-.2.1-.3.2,0,.4-.2.6-.4,0,.4-.5.5-.8.6Z"/>
      <path class="st7" d="M89.2,72.1c0-.2-.2-.2-.4-.2.2,0,.5-.1.6-.2,0,0,.1,0,.3,0,0,.3-.4.3-.5.4Z"/>
      <path class="st128" d="M80.5,66.8v.3c0,0,0,.2,0,.4,0-.1-.2-.2-.2-.4s0-.3.2-.2Z"/>
      <path class="st99" d="M47.6,73.3v2.8c0,.3-.3.6-.6.7-.3,0-.5-.1-.7-.4-1.2,1,0,1.2.9.9,0,0,.2,0,.2-.1.1-.1.2,0,.3,0,0,.2,0,.3,0,.4.2,0,.5,0,.9,0v-4.3c-.4,0-.7,0-1,0Z"/>
      <path class="st72" d="M92.1,71.8c-.1,0-.3,0-.4.1,0,0-.3,0-.3-.1.1-.4.5,0,.6,0Z"/>
      <path class="st235" d="M82.1,57.6c0,0,0-.1-.1-.2,0,0,.2-.4.3-.2s-.1.3-.2.4Z"/>
      <path class="st152" d="M99.4,57.6c0,0-.1,0-.1.1,0,.1-.2,0-.3-.3,0,0-.1-.1-.1-.2.4-.1.4.3.5.4Z"/>
      <path class="st172" d="M99.3,57.7c0,.2,0,.3,0,.5-.2-.2-.2-.5-.3-.8l.3.3Z"/>
      <path class="st224" d="M83.1,62.8c0-.3,0-.6.1-.9,0,.3.1.7-.1.9Z"/>
      <path class="st216" d="M110.9,58.6c-.2-.2-.6,0-.7.3,0,.1-.2.4-.3.2-.1-.1,0-.4,0-.5-.1-.1-.6-.1-.7,0v3.9c.3.1.6.1.9,0v-2.4c0-.5.4-.6.9-.8.2,0,.2-.7,0-.8Z"/>
      <path class="st157" d="M85.6,68.8c-.2-.2-.6-.1-.5-.5.2.2.4.3.5.5Z"/>
      <path class="st224" d="M83.2,64.2c-.3-.2,0-.6-.1-.9.2.2.1.6.1.9Z"/>
      <path class="st11" d="M100.9,67.1c0,0,0-.1,0-.2s-.1,0-.2,0c0,0,.1-.2.2-.2.2,0,.2.2.2.3s-.1.1-.2.2Z"/>
      <path class="st59" d="M84.8,56c0,0-.1-.1-.2-.1,0,0,.1-.2.3-.2s.3.2.1.3-.2,0-.2.1Z"/>
      <path class="st157" d="M84.5,68.1c0,0-.1,0-.2,0s0,.2,0,.2c-.2,0-.2-.4,0-.5.1,0,.3.2.3.2Z"/>
      <path class="st120" d="M99.3,59.3c0,0,0-.1.1-.1.1.1.1.3,0,.5-.3,0-.1-.3-.2-.4Z"/>
      <path class="st123" d="M98.1,62c0,.1,0,.1-.1,0,0,.1,0,.1-.1,0-.2,0-.3,0,0-.1.1-.1.2-.3.2-.5,0,.2.1.4.1.6Z"/>
      <path class="st192" d="M99,58.4c0,0,0,.1,0,.2,0,0-.1,0-.2,0s0-.1,0-.2c0,0,.1-.2.1-.3,0,0,.1.2.1.3Z"/>
      <path class="st237" d="M117,62.6c-.1,0-.3-.1-.4-.1,0,0,.4-.3.4-.2s0,.2,0,.3Z"/>
      <path class="st172" d="M99.4,59.1c-.3,0-.1-.4-.1-.6.2.2.1.4.1.6Z"/>
      <path class="st81" d="M151.2,70.3c-.2,0-.3,0-.4-.2,0,0,.1-.3.2,0s0,.2.1.3Z"/>
      <path class="st176" d="M89.9,55.4c0,0,0,.1-.1.1-.1,0-.3,0-.4,0,0,0,.1-.2.2-.2s.2,0,.3,0Z"/>
      <path class="st135" d="M106.7,82.9c-.2,0-.3,0-.4,0,0,0,.1-.2.2-.3.2,0,.2.1.2.3Z"/>
      <path class="st180" d="M97.6,71.7c0,0,0,0-.1-.1,0,0,0-.1.2-.1s.2,0,.2.2-.2,0-.3,0Z"/>
      <path class="st165" d="M40.7,27.5c-.8-3.9-3.2-7.2-6.6-9.2-4.2-2.5-9.4-3.1-14.3-2.9-5.8.2-11.9,1.9-15.4,6.9-1.6,2.3-2.3,4.9-2.5,7.7-.7,9.5,4.2,15.8,13.6,17.4,5.8,1,13.1.7,18.3-2.2,3.4-1.9,5.8-4.9,6.7-8.7.8-3,.8-6.1.1-9.1ZM26.9,33.8c-.2,3-1.1,6.3-4.7,6.6-3.2.3-5.1-1.5-5.7-4.4-.7-3.2-.9-9.4,1.8-11.8,1.9-1.7,5-1.5,6.7.3,2,2.1,2.1,6.5,1.9,9.3Z"/>
      <path class="st165" d="M108.9,16h-18.7s-12.4,31.5-12.4,31.5h13.5s2.2-6.8,2.2-6.8h11.4s2.3,6.8,2.3,6.8h14.2s-12.6-31.5-12.6-31.5ZM95.4,33.1l3.9-10.4,3.9,10.3h-7.7Z"/>
      <path class="st165" d="M80.8,25.5c-.3-3.6-2.4-6.6-5.7-8.1-2.1-1-4.3-1.4-6.7-1.4h-23.8s0,31.5,0,31.5h13.6s0-9.1,0-9.1h11.1c2.3-.3,4.4-.7,6.5-1.8,4.1-2.3,5.5-6.6,5.1-11.1ZM65.4,30.3c-1,.5-2.2.8-3.4.8h-4.2s0-7.7,0-7.7c2.4,0,5.4-.3,7.6.7,1.2.5,1.8,1.5,1.9,2.9,0,1.5-.6,2.7-1.9,3.4Z"/>
      <g>
        <path class="st103" d="M3.7,61.2l-.2-.2c.3.3,0,.8-.4.5.1.1.3.3.4.4.2.2.9.6.5.3.4-.8.2-1.1-.3-1Z"/>
        <path class="st103" d="M21.9,59.4c-5.3-5.6-14.6-5.1-19.2,1.1-3.1,4.3-2.9,10,.4,14,4.6,5.5,13,6,18.2,1.1,4.7-4.4,4.9-11.6.5-16.2ZM21.5,74.7c-4.8,5.2-13.1,5-17.8-.4-3.1-3.6-3.5-8.9-.9-12.8l.4-.6s0,0,0-.1c2.2-3,5.7-4.7,9.4-4.7,3.6,0,7.1,1.6,9.4,4.5,3.3,4.2,3,10.2-.6,14.1Z"/>
      </g>
      <path class="st195" d="M37.7,58.5c-.2,0-.2.2-.3.5-.4-.4-.8-.6-1.3-.5-1.4.2-1.6,2.4-1,3.7.2.4.6.7,1,.7.5,0,.9,0,1.2-.4.2.3,0,.7-.1,1-.3.6-1.4.5-2.1,0,0,.2-.2.8,0,.9.7.3,1.5.3,2.2.1.6-.2,1-.8,1-1.5v-4.6c-.2-.1-.4,0-.7,0ZM36.7,62c-.8,0-.9-1.6-.6-2.4.1-.2.4-.4.6-.4.2,0,.4.2.5.4.3.6.4,2.3-.5,2.4Z"/>
      <path class="st103" d="M31.4,58.2c-.4-.9-1.1-1.4-2.1-1.4-.9,0-1.6.6-1.9,1.5-.3,1-.3,2,0,3,.3.9,1.1,1.5,2,1.6.9,0,1.7-.4,2.1-1.4.4-1.1.4-2.3,0-3.3ZM29.4,62.1c-1.3,0-1.4-2.4-.9-3.7.2-.4.6-.6.9-.6.4,0,.7.3.9.7.4,1.1.4,3.6-.9,3.7Z"/>
      <path class="st103" d="M30.7,71.3c-.3,0-.8-.2-1,0v2.3c-.5-.4-.9-.6-1.4-.5-1.4.3-1.3,2.5-1,3.6.2.5.6.9,1.1.9.5,0,.9-.2,1.2-.4.2.5.6.4,1.1.3v-6.3ZM29,76.8c-.2,0-.6,0-.7-.3-.2-.6-.4-2.4.5-2.6.3,0,.6,0,.7.4.3.8.2,2.4-.5,2.4Z"/>
      <path class="st24" d="M52.8,71.3c-.2-.2-.7-.2-1,0v2.4c-.5-.3-.8-.5-1.3-.4-.3,0-.8.3-1,.7-.5,1.2-.5,3.6,1,3.8.5,0,.9-.1,1.2-.4.2.5.6.3,1.1.3v-6.2ZM50.9,76.8c-.2,0-.4-.2-.5-.4-.2-.6-.3-2.3.4-2.4.2,0,.5,0,.7.3.6,1.3,0,2.8-.6,2.6Z"/>
      <path class="st103" d="M44,64.4c-.4,0-.9-.2-1.2,0l-1.9,5.8c.4.1.7,0,1.1,0l.4-1.4c.6,0,1.3,0,1.9,0,.2.5.2,1,.5,1.3.2.2.7,0,1,0l-1.8-5.8ZM42.6,67.9l.5-1.9c.1-.5.3-.5.4,0,.1.7.4,1.2.4,1.9-.4.1-.9.1-1.3,0Z"/>
      <path class="st103" d="M114.4,58.8c0-.2-.4-.2-.6-.2-.2,0-.3.2-.3.4-.3-.4-.7-.5-1.1-.5-.3,0-.7.3-.8.7-.5,1.2-.4,3.3.8,3.4.4,0,.7,0,1-.3.2.4,0,.8-.2,1.1-.6.6-1.6-.4-1.7.1,0,.1-.2.5,0,.6.5.3,1.3.3,1.8.2.7-.2,1-1,1-1.7,0-1.3,0-2.5,0-3.8ZM112.8,61.9c-.7,0-.9-1.6-.4-2.4,0-.2.3-.1.5-.1.7.1.8,2.5,0,2.5Z"/>
      <path class="st21" d="M29.1,64.3c-.6,0-1.2,0-1.8,0v5.9c.4,0,.7,0,1,0v-2.2c.5,0,1,0,1.5-.2.7-.3.9-1,.9-1.7,0-1-.6-1.7-1.6-1.8ZM29.3,66.9c-.2.2-.5.2-1,.2,0-.5,0-1.1,0-1.8,0-.2.6-.1.8,0,.5.2.6,1.3.1,1.6Z"/>
      <path class="st62" d="M108.3,58.3c-.3-.8-1-1.3-1.8-1.2-2,.2-2,2.9-1.6,4.2.2.8.9,1.4,1.6,1.4.8,0,1.5-.3,1.8-1.1.4-1.1.4-2.3,0-3.3ZM106.7,62c-.3,0-.6-.1-.8-.5-.5-1.2-.4-3.6.7-3.6.3,0,.7.2.8.6.4,1,.5,3.3-.7,3.5Z"/>
      <path class="st21" d="M151.9,64.4c-.1-.2-.8-.2-.8,0v2c-.4-.2-.7-.4-1-.4-1.4.2-1.4,2.5-.8,3.7.3.6,1.2.7,1.7.3l.4.2c.2,0,.4,0,.7,0v-5.8ZM150.4,69.5c-.9,0-.8-1.7-.5-2.4,0-.2.3-.3.5-.3.8,0,.9,2.6,0,2.7Z"/>
      <path class="st24" d="M120.2,64.4c0-.2-.8-.2-.8,0v2c-.5-.3-.8-.4-1.2-.3-1.4.4-1.3,3.9,0,4.1.5.1.8,0,1.2-.4.1.3.3.4.6.4.2,0,.4,0,.4-.3v-5.5ZM118.6,69.5c-.2,0-.4-.2-.5-.5-.1-.6-.2-2,.5-2.2.2,0,.5.1.6.4.2.6.3,2.3-.6,2.2Z"/>
      <path class="st10" d="M65.5,58.4c-1,0-1.9.5-2,1.7,0,.7,0,1.6.4,2.2.7.8,2.1.9,2.8,0,.5-.5.4-1.1.4-1.7,0-1.2-.5-2.1-1.6-2.2ZM65.4,62.1c-1,0-1-1.6-.7-2.4.1-.3.3-.5.6-.5.3,0,.5.1.7.4.3.8.3,2.4-.5,2.5Z"/>
      <path class="st215" d="M132.7,64.4c0-.2-.6-.1-.7,0-.1.6-.1,1.3,0,1.9,0,.2-.2.2-.4.1-.1-.3-.5-.4-.8-.3-1.3.2-1.3,2.4-.9,3.5.2.4.5.6.8.7.5.1.7-.2,1.1-.4,0,.2.9.6.9.2.1-1.9,0-3.8,0-5.7ZM131.3,69.5c-.2,0-.5,0-.6-.2-.3-.8-.3-2.4.4-2.5.9,0,.9,2.4.2,2.6Z"/>
      <path class="st103" d="M62.8,60c0-.5-.1-1.1-.7-1.4-.7-.3-1.6-.3-2.2.1-.2.2,0,.6,0,.8.5-.2,1.3-.6,1.7-.1.1.1.3.6,0,.7-.6.2-2.1,0-2.3,1.3,0,.6.2,1.2.7,1.4.5.2,1.1.1,1.6-.3.2.4.7.5,1.1.3v-2.8ZM61.6,61.9c-.2.3-.7.3-.9,0-.2-.2-.3-.7,0-.9.3-.3.7-.4,1.2-.3.1.4,0,.9-.2,1.2Z"/>
      <path class="st24" d="M44.5,74.5c0-.8-.5-1.4-1.4-1.4-.5,0-1.1,0-1.5.3-.2.2,0,.6,0,.8.6-.3,1.4-.5,1.7,0,.6,1.1-.9.2-1.9,1-.5.5-.6,1.4,0,1.9.6.7,1.4.4,2,0,.1.4.8.4,1.1.3,0-.9,0-2,0-2.9ZM43.4,76.5c-.1.3-.4.4-.7.4-.3,0-.5-.2-.6-.5,0-.3,0-.6.3-.8.2-.1.8-.3,1-.2.3.2,0,.7,0,1Z"/>
      <path class="st24" d="M42.3,59.6c0-.7-.6-1.2-1.2-1.2-.5,0-1.1,0-1.6.3-.2.1-.2.7,0,.8.5-.1,1.4-.5,1.7,0,.6,1.1-1,.2-1.9,1.2-.5.5-.5,1.5,0,1.9.6.6,1.4.4,2,0,0,.4.9.5,1,.2.2-1,0-2.1,0-3.1ZM41.2,61.9c-.2.3-.7.4-1,.2-.2-.2-.3-.6-.1-.9.3-.3.7-.4,1.2-.4.1.4,0,.8-.1,1.1Z"/>
      <path class="st24" d="M54.9,58.6c-.7-.3-1.6-.2-2.2.1-.2.1-.1.7,0,.8.5-.2,1-.4,1.5-.2.3.1.4.6.4.8-.6,0-1,0-1.5.2-.6.2-1,.8-.9,1.5,0,.6.5,1,1,1.1.5,0,1,0,1.4-.5.1.2.1.4.3.4.3,0,.5,0,.7,0-.3-1.2.4-3.7-.7-4.2ZM54.4,61.8c-.2.4-.8.5-1.1.2-.3-.2-.3-.7.1-1,.3-.2.7-.3,1.1-.2.1.2,0,.7-.1,1Z"/>
      <path class="st55" d="M67.4,67.1c0-.8-.5-1.3-1.3-1.3-.5,0-1.1,0-1.5.3-.2.2,0,.6,0,.8.4-.2.8-.4,1.3-.3.4,0,.5.5.5.8-.8.2-1.7,0-2.2.7-.3.4-.3.9,0,1.4.4.8,1.5.9,2.2.3.1.4.8.5,1.1.3v-3.1ZM65.8,69.5c-.4,0-.7-.2-.7-.6,0-.4.2-.7.7-.8.2,0,.4,0,.6,0,.2.1,0,1.3-.6,1.4Z"/>
      <path class="st21" d="M75.4,67.1c0-.5-.3-1.1-.8-1.2-.5-.1-2-.2-2.1.4,0,.2,0,.4.2.6.4-.3,1-.5,1.5-.2.3.1.2.5.3.8l-1.3.2c-.8.1-1.2.8-1.1,1.7.1.5.6.9,1,.9.5,0,1,0,1.4-.5,0,.2.1.4.3.4.3,0,.5,0,.8,0v-3.1ZM74.2,69.4c-.3.3-.8.2-1,0-.2-.2-.2-.7.2-.9.2-.1.8-.4,1.1-.1.2.2,0,.9-.2,1.2Z"/>
      <path class="st55" d="M55.6,68.4c.1-1.1-.2-2.4-1.4-2.5-.8,0-1.4.2-1.7,1-.4.8-.4,1.8,0,2.6.7,1.4,2.8.9,2.9.5,0-.2,0-.6,0-.7-.5.1-1,.4-1.5.1-.4-.2-.6-.6-.5-1h2.3ZM53.4,66.9c.1-.2.4-.4.7-.3.4.1.5.6.5,1-.5,0-.8.1-1.3,0-.2,0,0-.5,0-.7Z"/>
      <path class="st10" d="M54.6,75.7c.7-.3,1.5,0,2.2-.1,0-1.2-.3-2.4-1.6-2.5-.5,0-1.1.2-1.4.8-.5.9-.6,2.2,0,3.1.6.8,1.9.9,2.6.4.2-.1,0-.6,0-.7-.5.1-.9.2-1.4.2-.5,0-.9-.9-.5-1.1ZM54.7,74.2c.1-.2.3-.4.7-.3.3,0,.7.6.4,1-.2.3-.9.1-1.2,0-.1-.2,0-.5.1-.7Z"/>
      <path class="st55" d="M34.1,73.5c-.5-.3-1-.4-1.6-.3-.2,0-.5,0-.7.3-.2.8.2.6.8.5,1.4-.2,1.7,1.4,0,1-.5.1-1.1.3-1.2.9-.1.7,0,1.3.7,1.6.5.2,1.2.1,1.6-.3.1.5.6.4,1,.3,0-.7.3-3.8-.6-4ZM33.3,76.7c-.2.2-.6.2-.8,0-.3-.2-.3-.6-.2-.9.2-.4,1.1-.5,1.2-.4.3.2,0,1-.2,1.3Z"/>
      <path class="st106" d="M38,76.8c.1.4.9.4,1.4.4,0,.4-1.7.3-1.8,0s.1-.4.1-.6c0,.1.1.2.2.2s0,0,.1,0Z"/>
      <path class="st182" d="M32.7,65.8c-.5,0-1.1,0-1.5.3-.2.2-.1.6,0,.9.4-.2.9-.5,1.5-.3.3.1.4.6.3.8-1.3.1-1.8,0-2.2,1,0,.4,0,.7,0,1.1.1.2.2.3.4.5.4.2.9.2,1.3.1,0,0,.2,0,.2-.1.2,0,.2-.1.2-.2,0,0,.2.2.3.3.3.2.6.1.9,0-.3-1.5.7-4.4-1.4-4.4ZM32.7,69.4h-.1c0,.1,0,.1,0,.1-.9.4-1.6-.8-.7-1.3.3,0,.7-.2,1.1-.1,0,.5,0,.9-.2,1.3Z"/>
      <path class="st24" d="M139.2,59.8c-.2-.8-.7-1.3-1.5-1.3-.7,0-1.3.4-1.5,1.1-.2.7-.2,1.4,0,2.1.2.7.9,1,1.6,1,1.4,0,1.6-1.8,1.4-2.9ZM137.6,62c-.8,0-.8-2.5-.1-2.7.2,0,.6,0,.7.2.3.7.4,2.5-.5,2.4Z"/>
      <path class="st182" d="M135.5,59.7c0-.6-.5-1.1-1.1-1.1-.5,0-1,0-1.3.3-.2.2,0,.5,0,.8.4-.3.8-.4,1.3-.3.3,0,.4.7.2.8-.5.1-1.1,0-1.5.4-.3.2-.4.6-.4,1,0,.6.2,1,.6,1.2.5.2.9,0,1.3-.3.1.3.8.4.9.2.1-.9,0-1.9,0-2.9ZM134,62.1c-.3,0-.5-.4-.5-.6,0-.7.9-.7,1.1-.7.1,0,.1.2.1.4,0,.5-.2.9-.7.9Z"/>
      <path class="st55" d="M129.2,59.7c0-.4-.2-.9-.6-1-.6-.2-1.4-.2-1.9.2-.2.1,0,.6,0,.7.5-.3,1.1-.5,1.4,0,.1.1.2.5,0,.6-.1.2-1-.2-1.7.5-.3.3-.4.7-.3,1.1,0,.5.4.8.8,1,.5.2.9-.2,1.2-.2.2,0,.8.5.9.1.2-.9,0-1.9,0-2.9ZM128.2,61.8c-.2.2-.4.3-.6.2-.3,0-.4-.4-.4-.7,0-.5.5-.6,1.1-.6.2.4,0,.8-.1,1.1Z"/>
      <path class="st93" d="M125.3,67.4c0-.7-.5-1.2-1.2-1.3-.4,0-1,0-1.3.3-.2.1,0,.6,0,.7.5-.2,1-.5,1.4,0,.1.2.2.5.1.6-.1.2-1.6-.2-2,1-.2.5,0,1.2.5,1.5.5.3,1.1.1,1.4-.3.2.2.2.4.4.4.1,0,.6,0,.6-.1v-2.8ZM124.5,68.7c0,.5-.3,1-.8.9-.4,0-.4-.5-.4-.8,0-.5.9-.6,1.1-.5,0,0,0,.2,0,.4Z"/>
      <path class="st24" d="M117.7,59.8c0-.4-.2-.9-.6-1.1-.6-.2-1.3-.2-1.8,0-.2.1-.1.7,0,.8.4-.2,1-.4,1.4-.1.2.1.2.4.2.5-.1.4-.9,0-1.7.6-.3.3-.3.7-.3,1.1,0,.4.3.8.7.9.4.2.8.1,1.1-.2.2,0,.3,0,.4.1.2,0,.5,0,.8,0v-2.8ZM116.6,61.9c-.1.1-.4.2-.7,0-.3-.2-.3-.5-.2-.8.1-.4.8-.6,1.1-.5,0,0,.2.8-.2,1.2Z"/>
      <path class="st61" d="M90.9,79.4c0-.2-.4,0-.7.3-.3-.3-.7-.4-1.1-.3-1,.3-1,2-.7,2.8.1.4.5.7.8.8.5,0,.8,0,1.1-.4.1.4,0,.9-.2,1.1-.7.6-1.4-.1-1.6,0,0,0-.1.4,0,.5.5.3,1.1.3,1.7.1.5-.2.8-.6.8-1.2v-3.8ZM89.5,82.5c-.3,0-.5-.2-.6-.5-.2-.6-.2-2.1.5-2.2.2,0,.6,0,.7.3.4.8.3,2.3-.6,2.3Z"/>
      <path class="st215" d="M136.1,67.3c0-.4-.2-.9-.6-1.1-.6-.3-1.5-.3-1.9.2-.1.1,0,.5,0,.6.2.2.7-.5,1.3,0,.2.1.3.4.3.7-.3.1-.6,0-1,.1-.7.1-1.1.6-1.1,1.4,0,.6.4.9.7,1,.5.2.9,0,1.3-.4.1.2.2.4.3.4.2,0,.4,0,.6,0v-2.9ZM135.1,69.3c-.2.3-.5.3-.7.2-.3-.2-.4-.5-.3-.8.1-.4.8-.6,1.1-.4.1.2,0,.8-.2,1Z"/>
      <path class="st55" d="M144.7,67.3c0-.5-.3-1-.8-1.2-.6-.2-1.2-.1-1.7.2-.2.1,0,.5,0,.7l.8-.3c.2,0,.5,0,.7.2.7,1-.8.4-1.4,1-.6.5-.7,1.6,0,2.1.5.3,1.1.1,1.5-.2.1.2.2.3.3.3.2,0,.5,0,.6,0v-2.8ZM143.8,69.1c-.1.4-.4.5-.7.5-.3,0-.5-.4-.4-.8.1-.4.6-.6,1.1-.5.2.3,0,.6,0,.8Z"/>
      <path class="st225" d="M83.6,80.5c.5-.3.9-.7.8-1.3-.2-1.3-1.5-1.2-2.6-1.1v4.8c0,.2.5.1.6,0,.2-.6-.1-1.4.1-2,.1-.3.8,0,.9.3.4,1.1.3,2.1,1.3,1.8-.2-.8-.4-1.7-1-2.4ZM82.5,80.1c-.1-.4-.1-1,0-1.4.2-.3.8-.1,1,0,.3.3.3.8,0,1.1-.2.3-1,.5-1.1.2Z"/>
      <path class="st182" d="M155.4,68.5c0-.7,0-1.4-.4-2-.3-.4-.8-.5-1.2-.4-.4,0-.8.4-1,.8-.4.9-.5,2.7.7,3.2.5.2,1,.1,1.6,0,.3-.2.3-1.1-.1-.8-.3.1-.7.2-1.1,0-.3-.1-.5-.7-.4-.9.6-.2,1.3,0,2,0ZM153.7,66.9c.2,0,.4,0,.6.1.1.2.2.3.2.8-.4.2-.7,0-1.2,0,0-.3,0-.8.4-.9Z"/>
      <path class="st105" d="M113.8,78.2c0-.2-.7-.2-.8,0l-1.6,4.7c.1.2.6.2.6,0,.2-.4.2-.8.4-1.1.6,0,1.2,0,1.8,0,.2.4.2.8.4,1.1.1.2.5.1.7,0l-1.5-4.7ZM112.7,81c.2-.7.3-1.2.6-1.7h0c0-.2,0-.3,0-.4.1,0,.2,0,.2.2,0,0,0,.1,0,.2h0c.2.6.4,1.1.5,1.8-.5,0-1,.1-1.4,0Z"/>
      <path class="st76" d="M103.4,77.8v1.8c-.4-.3-.9-.4-1.3-.3-1,.3-.9,2-.7,2.7.1.5.5.7.8.8.4.2.8-.2,1.1-.2.2,0,.7.3.7,0v-5.1c0-.2-.6-.2-.6,0ZM102.7,82.5c-.3,0-.6-.1-.7-.4-.3-.8-.2-2.2.6-2.2.3,0,.6.2.6.5.1.6.3,2-.5,2.1Z"/>
      <path class="st90" d="M132.6,80.5c0-.7-.5-1.2-1.2-1.2-.4,0-.8,0-1,.3,0,.1,0,.3,0,.4.1,0,.7-.5,1.2-.1.2.1.4.5.3.7l-1.2.2c-.4,0-.7.5-.8.8,0,.4,0,.9.4,1.1.5.3,1.2.2,1.6-.2.1.2.2.2.3.3,0,0,.4,0,.4-.1,0-.8,0-1.5,0-2.3ZM131.6,82.4c-.3.2-.6.1-.8-.1-.2-.2-.1-.6.1-.9.3-.3.6-.2,1.1-.2.1.5,0,1-.4,1.2Z"/>
      <path class="st204" d="M91.4,57.5c.5-.6,1.9.6,1.2,1.1-.2.2-.6.1-.7,0-.2,0-.5,0-.6,0,0,0-.1-.2-.2-.2v-.8c0-.3.1-.3.3,0Z"/>
      <path class="st213" d="M91.4,57.5h-.3c0-.3,0-.6,0-.9h.2c.3.2.3.6,0,.9Z"/>
      <path class="st184" d="M97.9,79.4c-.6,0-1.1.1-1.4.7-.4.8-.4,1.8,0,2.5.3.5.7.5,1.2.5.4,0,.8-.2,1.1-.6.6-1,.4-2.9-.9-3.1ZM98.3,82.2c-.2.3-.5.3-.8.3-.7-.2-.6-1.6-.4-2.1,0-.3.4-.5.7-.6.9,0,1,1.5.6,2.4Z"/>
      <path class="st198" d="M107.1,80.1c-.2-.9-1.5-1-2.1-.5,0,0-.1.5,0,.4l.9-.2c.2,0,.4.1.5.2.1.1.2.6,0,.6-.4.2-1,0-1.4.3-.6.4-.7,1.2-.3,1.7.4.4.9.3,1.4.2.2-.1.3-.1.4,0,.1,0,.3.2.5,0,0-.9.1-1.9,0-2.8ZM106.3,82.3c-.2.2-.7.4-1,.1-.3-.3-.1-.8.1-1,.2-.2.9-.3,1,0,.1.3,0,.7-.2.9Z"/>
      <path class="st86" d="M95,79.4c-.5-.2-1-.1-1.5.1-.2,0-.2.4,0,.5.2.1.6-.4,1.3-.1.2,0,.5.5.2.7-.5.2-1.8,0-1.9,1.1,0,.4,0,.9.3,1.1.5.4,1.1,0,1.5,0,.2,0,.7.4.7,0v-2.3c0-.5-.2-1-.6-1.1ZM94.6,82.4c-.3.1-.6.1-.8-.1-.2-.2-.2-.6.1-.9.3-.3.7-.3,1.1-.2,0,.5,0,1-.4,1.2Z"/>
      <path class="st206" d="M87.7,81.3c0-.5,0-1-.2-1.5-.3-.5-.8-.6-1.4-.5-1,.2-1.1,1.6-.9,2.6.2.9,1.1,1.3,2,1,.2,0,.4,0,.4-.3,0-.8-.7.2-1.4-.3-.2-.2-.5-.7-.3-.9h1.9ZM85.9,80.1c.2-.2.4-.3.8-.2.2.2.3.4.4.9-.4.2-.9.1-1.3,0-.1-.2,0-.5.2-.7Z"/>
      <path class="st228" d="M121.4,81.5c.6-.3,1.2,0,1.8-.1.1-.6,0-1.4-.5-1.8-.4-.3-1.1-.3-1.5,0-.8.7-.8,2.7.1,3.2.6.4,2,.2,1.7-.4-.1-.3-.9.4-1.5-.1-.2-.2-.4-.7-.2-.8ZM121.9,79.9c.3,0,.5,0,.6.2.2.2.2.4.1.8-.4,0-.8,0-1.3,0,0-.4.1-.8.5-1Z"/>
      <path class="st176" d="M85.2,60.2c-.1.3-.2.6-.2,1h-.2c0,.5-.1,1-.1,1.5h-.1c-.2.3-1.1.3-1.2.1s0-.2,0-.3c0-.3,0-.5.1-.8,0,0,0,0,0-.1.2-.2.2-.6.2-.9.5-.9.9-1.9,1.7-2.7.3.2.5.4.8.8-.4.4-.7.9-.9,1.4Z"/>
      <path class="st176" d="M89.9,56.8c-.2.3-.5.5-1,.5-.4.3-.7.4-1.1.4-.1.2-.2.2-.2,0-.4.2-.8.5-1.2.9-.3-.2-.6-.5-.8-.8,1.1-1,2.5-1.8,4-1.9.1,0,.3,0,.4,0,0,.5,0,.7-.1,1Z"/>
      <path class="st176" d="M86.8,59.3c.4.2.7.3.4.8,0,.2-.1.5-.4.7l-.5,1.3c0,.5-.1.8-.4.8-.2.2-1,.2-1-.1-.3-.2-.2-1,.1-1.1,0-.4,0-.6.2-.8.3-.6.6-1.3,1.2-1.8.1,0,.3.2.4.2Z"/>
      <path class="st194" d="M87.9,57.7c.2.3,0,1.2-.4,1.4,0,.3-.2.3-.5.2-.7-.8.8-.7.7-1.5,0,0,.1,0,.2,0Z"/>
      <path class="st148" d="M85.2,60.9c0,.3,0,.5-.2.8-.1,0-.2-.2-.1-.4.1-.3.2-.7.4-1,0,.2-.2.5,0,.7Z"/>
      <path class="st60" d="M87,59.3c.3-.2.5-.2.4.2,0-.2.2-.2.2,0,.1.4-.1.6-.5.5.1-.3-.2-.5-.4-.8,0,0,.1,0,.2,0Z"/>
      <path class="st17" d="M87.5,59.2c.2.1,0,.3-.1.4,0-.2-.2-.3-.4-.2h0c.2-.2.3-.2.5-.3.1,0,.1,0,.1.1Z"/>
      <path class="st209" d="M98.9,67.9c0,.2-.3.2-.3,0,0-.5,0-1,0-1.5.3-.1,0,1.5.3,1.5Z"/>
      <path class="st136" d="M82.5,66.3v-1.9h.1v1.7c0,.1,0,.3-.1.2Z"/>
      <path class="st136" d="M82.6,67.7c0,0,.1.1,0,.3-.3-.1-.6-.3-.8-.5.2.1.5,0,.7.3Z"/>
      <path class="st24" d="M91.6,56.6c.7,0,1.3.4,1.8,1,.2,0,.4-.2.7-.3l.8,1.2.7-.6c0,0,0,.2.1.2.2.1.1.4-.2.6.3.4.6.8.8,1.2.1.3.4,1.1.1,1.3,0,.3,0,.4-.1.4-.3,0-.4-.2-.5-.6-.5-.3-.7-.6-.8-1-.1.2-.2,0-.3-.1-.1-.1-.3-.3-.5-.4-.3.2-.4,0-.2-.2-.3,0-.4-.3-.2-.5-.2-.1-.2-.4,0-.5-.3-.4-.4-.1-.4,1,.2.3,0,.5-.4.6.1.2,0,.3-.3.5l-.9.2c0,.3-1,.7-1.1.3-.1.2-.4.2-.7.2,0,.2,0,.4-.4.4-.2.3-.1.6.3.9v.3c0,.2,0,.8-.3.7-.2.3-.9-.2-1.1-.5-.5-.6-.7-1.8,0-2.2-.3-.5,1.1-1.1,1.3-.7.1-.2.3-.3.5-.1.3,0,.6,0,.9-.3,0-.2.1-.4.5-.5-.2,0-.2-.2-.1-.4.2,0,.4-.1.8-.2,0-.7-.6-1.2-1.2-1.1-.2-.2-.1-.6,0-.9,0-.2.2-.3.3,0Z"/>
      <path class="st126" d="M91.6,56.6c-.1,0-.2,0-.3,0,0-.3,0-.4.3-.4s.5-.1.6.2l-.6.2Z"/>
      <path class="st166" d="M81.3,61.8s0,.1,0,.2-.2.1-.2,0c0-.3,0-.5,0-.7h.1c.1,0,.2.2.1.5Z"/>
      <path class="st74" d="M81.4,61.3c0,.2,0,.4-.2.5-.2,0-.1-.3-.1-.5h.3Z"/>
      <path class="st166" d="M81,61.1c-.2-.1-.1-.4-.1-.6.2.1.1.4.1.6Z"/>
      <path class="st238" d="M87.5,68.2c.5,0,1.2.3,1.4.6.4.2.7.2,1.2.3h.1s.1.6.1.6c0,0,0,0,.2,0,.1-.2.2-.5.2-.8h.2c.1,0,.3,0,.5,0,0-.2.3-.3.6-.3l1.7-.8h.4c.2-.2.6-.3.7-.5.3,0,.6.5.8.7l-.6.6c-2.7,1.5-3.8,1.7-6.9,1.1-.8-.6-1.8-.9-2.5-1.7.2-.4.5-.6.8-.8.3.4.7.5,1,.7Z"/>
      <path class="st195" d="M86.4,63.8c0-.1,0-.1.1,0,.3-.3.6,0,.6.8.4,0,.5,1.1.2,1.3.4,0,.6.2.5.5.3-.2.5-.1.3.3.1.2,0,.3-.4.3,0,.4-.3.4-.5,0-1.1,0,0-.2-1.4-.2-.4.2-1.2-.6-1.5-.9s0,0,0-.2c0,.2-.1.1-.2,0-.2.2-.3-.2-.3-.4-.2,0-.2-.4,0-.4,0-.3.2-.4.7-.4h.2c0-.3-.1-.7.1-.6.2,0,.4.3.4.6,0-.4.2-.9.6-.7v-.2c-.1-1.4.8-.5.6-.4-.3.2-.3.3-.1.6Z"/>
      <path class="st212" d="M89.7,67.6c.2,0,.4.1.6,0,0,0,.1,1.2-.2,1.2-.7,0-1.8-.2-2.3-.8-.4-.2-.7-.5-1.1-.9l.6-.3c.1,0,.3,0,.5,0h.4c0,0,1.4.5,1.5.5s0,0,0,.2Z"/>
      <path class="st40" d="M85.9,66.7l.3.5c-.1.3-.4.6-.8.8-.5-.6-.9-1.1-1.1-1.7,0-.3,0-.5.1-.7.4,0,.5.3.8.5l.7.6Z"/>
      <path class="st202" d="M90,68.9c.1,0,.1,0,0,.1-.3.2-.8,0-1.1-.1-.5-.1-1-.4-1.4-.6.1,0,.2,0,.3-.1.7.4,1.5.5,2.3.8Z"/>
      <path class="st186" d="M84.3,65.7c0,.3.2.5.4.9-.3.1-.3-.4-.5-.2,0,0,0,0-.1-.1,0-.3,0-.5,0-.6,0,0,.2,0,.2,0Z"/>
      <path class="st149" d="M84.1,65.6c0,.2.1.5,0,.6-.2-.3-.3-.6-.4-.9h0c0-.2,0-.2.1-.1,0,.2.2.3.3.4Z"/>
      <path class="st37" d="M93.8,61.9c0,0,0,.2.2,0s0-.2.2-.2c0,.3,0,.5,0,.7.3,0,.3.2,0,.2,0,.1,0,.2-.3.3h.2c0,0,0,.2,0,.6.4-.1.5.2.1.4-.2.3-.6.5-.9.7,0,.6-.1,1.2.7,1.5-.2.2-.5.1-.5.3.2,0,.5.3.2.5.3.2-.1.8-.2.8-.1,0,0-.3,0,0,0,0,.2.1.3.1-.5.5-1.9,1-2.7,1.1-.2.3-.6-.2-.3-.5.8,0,1.2-.4,1.1-1-.2-.2-.4-.4-.6-.7-.2,0-.3-.2-.4-.4-.2,0-.2,0,0-.2v-.6c.5-.2,1-.5,1.4-.9.2-.5,0-1-.2-1.5-.2,0-.2,0,0-.1-.1-.1-.2-.2-.4-.3,0,.2-.5,0-.6-.2-.2-.4-.1-.9,0-1.3,0-.3.2-.5.5-.3.3,0,.6-.1.8-.3l.3.4c.2-.6.8,0,1,.5Z"/>
      <path class="st176" d="M97.9,63.2c.1.3.1.6,0,.9-.2.8-.4,1.6-.7,2.4s-.8,1-1.2,1.5c-.4-.3-.7-.5-.8-.9.7-.8,1.4-1.8,1.3-2.8,0,0,0-.1.1-.1,0-.3,0-.6.1-.9,0-.4,1-.3,1.1-.1Z"/>
      <path class="st212" d="M95.6,63.2c0-.2.7-.2.7,0,.1.3.2.8,0,1.1-.3.9-.7,1.9-1.5,2.6l-.2-.7c0-.2-.4,0-.6,0,.7-.8,1.1-1.8,1.2-2.9s.2-.1.3-.2Z"/>
      <path class="st73" d="M93.8,67.9c0,0-.3,0-.2,0,.2-.3.1-.6.3-.8-.1-.3,0-.4.3-.2,0,.2.3.2.4.5-.2.3-.5.5-.8.6Z"/>
      <path class="st14" d="M96.5,64.3h-.2c.1-.3,0-.8,0-1.1.4-.3.2.8.2,1.1Z"/>
      <path class="st36" d="M94.2,66.8c0,.1-.2.1-.3.2,0-.2-.2-.3-.2-.5.3,0,.4,0,.5.3Z"/>
      <path class="st166" d="M81.4,61v.2c0,0-.3,0-.3-.1,0-.3,0-.5,0-.8l.3.7Z"/>
      <path class="st170" d="M81.8,59.3c-.1-.2,0-.5,0-.6,0,.2,0,.5,0,.6Z"/>
      <path class="st160" d="M82.7,67.7c-.1-.4,0-.7,0-1.2.1.3.1.7,0,1.2Z"/>
      <path class="st89" d="M89.9,56.8v.9c0,.5-.7.9-1.1.9,0,0,0,.1,0,.1-.2.1-.6.3-.8.4s0,0-.1,0c0,.2-.3.3-.4,0,0,0,0,0-.1-.1,0-.5.2-.9.4-1.4.6-.5,1.3-.8,2-.9Z"/>
      <path class="st212" d="M89.9,58.8l.3,1c.2,0,.1.1-.1.3-.4.1-1,.3-1.3.7-.2.2-.3.2-.2,0-.2.1-1-.8-.9-.9.1-.3,1.3-1.1,1.6-.9.3-.2.6-.3.8-.1Z"/>
      <path class="st204" d="M91.7,58.9c0-.1,0-.1.1,0,0,.2.3.1.5.3-.2.4-.6.4-.8.5h-.4c0-.3,0-.6,0-.9.2,0,.4,0,.6,0Z"/>
      <path class="st43" d="M89.9,57.7c.1.2.3.7,0,.7s-.4.1-.5.2c0,0-.2.1-.4.1-.3.1-.4,0-.2-.1.4-.3.6-.8,1.1-.9Z"/>
      <path class="st154" d="M89.4,58.6c.1,0,.3,0,.4,0s0,.2,0,.2c-.2.1-.5,0-.8.1-.2-.2.2-.3.3-.2s-.5,0-.4,0c.1-.1.2,0,.4-.1Z"/>
      <path class="st190" d="M91.9,58.7c.2,0,.2.1,0,.2h-.1c-.2,0-.5,0-.5-.2h0c.2-.3.5-.2.6,0Z"/>
      <path class="st140" d="M91.7,58.9c-.2.1-.5,0-.6,0h.1c.2,0,.3,0,.5,0Z"/>
      <path class="st167" d="M90.6,60c-.2,0-.4,0-.5.1v-.3c.3,0,.5,0,.5.1Z"/>
      <path class="st176" d="M96.4,58.6c.6,1,1.2,2.1,1.4,3.3h0c0,.4.1.8,0,1-.2.2-1,.2-1.1,0-.1,0-.1,0,0-.1-.2-.5-.3-.9-.2-1.4-.6-1.7-.1-.9-1.3-2.5l.5-.7c.2,0,.6.1.8.4Z"/>
      <path class="st1" d="M98.1,64.1s0,0-.1,0c0-.3,0-.6-.1-.9-.4,0-.8,0-1.1.1,0,.1,0,.1-.1,0-.3-.2-.2-.4.1-.4.4,0,.8,0,1.1,0,0-.3,0-.6.1-.9h.1v2.1Z"/>
      <path class="st87" d="M98,64.1h-.1c0-.3,0-.6,0-.9.3.1,0,.7.1.9Z"/>
      <path class="st116" d="M84.5,63.2c.3,0,.3.3.1.5h.1c0,.3,0,.5,0,.7,0,0,0,.3,0,.3-.3,0-.6,0-.8.1-.1.2-.2.1-.3-.1-.1-.3,0-.6-.2-.9,0-.2,0-.4,0-.6.4,0,.7,0,1.1,0Z"/>
      <path class="st95" d="M85,61.6c-.2.3-.1.8-.1,1.1.3.2.4.3,0,.4.4,0,.3.3,0,.3,0,.2-.1.3-.3.1,0-.2-.1-.3-.1-.5,0-.1.1-.3,0-.4,0-.5,0-1.1.3-1.6.2,0,.1.3.1.4Z"/>
      <path class="st224" d="M83.3,62.5c0-.3-.2-.6.1-.8,0,.3,0,.6-.1.8Z"/>
      <path class="st208" d="M83.8,64.8v.4h-.1c-.2-.1,0-.4-.1-.5,0,0,.2,0,.3.1Z"/>
      <path class="st87" d="M97.9,62.9v-.9h.1c0,.3.2.8-.1.9Z"/>
      <path class="st25" d="M9.8,59.2c-.1.2-.5.1-.5.5.2,0,1.7-.5,1.7-.3l-.3.3c-4,1-6.8,4.8-6.1,8.9l-.2.4c-.1,0-.2-.2-.3-.2-.2,0-.3.2-.3.3-1.2-4.5,1.7-8.9,5.9-10.1Z"/>
      <path class="st193" d="M17.6,77c-.3-.5-.6-1-.8-1.5s1.3.3,1.3.2c-.2-.5-.5-.7-.2-.9s.9,1.1.9,1.4c.1.6-1.3-.5-1.3-.3.2.4.7.6.1,1Z"/>
      <path class="st229" d="M18.5,74.2c0-.2.2-.2.4-.2.3-.2.8-.2,1.1.1s.5.6.3,1-.6.6-.8.6c-.3-.2-1.3-1.3-.9-1.5Z"/>
      <path class="st168" d="M22.1,61.1c.2.3,0,.5-.4.6-.2.3-.4.3-.5.2-.1-.3-.4-.6-.7-.4l.5.8c0,.1-.2.2-.3,0s-.1-.1-.2-.2c-.2,0-.3-.2-.3-.4-.5-.5.7-.9,1.2-1.3.3.2.4.5.7.7Z"/>
      <path class="st5" d="M15.4,77.4c-.5-.6-.5-2,0-1.5s.1,1.3.7,1.3,0-.9,0-1.4.2-.2.3-.2c.2.1.6,1.2.3,1.6s-1,.5-1.2.1Z"/>
      <path class="st1" d="M18.6,58.4c.1-.2.3-.2.4-.1.3.1-.5,1.1-.6,1.2-.2.2-.5.2-.8,0s-.5-.3-.4-.6.7-1.5,1-1.1-1.1,1.1-.3,1.5.3,0,.3-.1l.5-.7Z"/>
      <path class="st71" d="M14.3,58.4c-.2,0-.2-.4-.7-.5s-.3.1-.5.3-.4,0-.3,0c0-.3.6-1.5.9-1.6s.3,0,.4.2c.2.7.6,1.5.2,1.6Z"/>
      <path class="st156" d="M3.1,61.5c.2,0,.3-.3.4-.5.3-.2.8-.1,1,.1s0,.7-.2,1c.2.1.3.2.4.3s0,.2-.1.3c-.3-.1-1.9-.9-1.4-1.2Z"/>
      <path class="st48" d="M14.2,77.8c-.1,0-.2,0-.3,0-.2,0-.4,0-.5-.1-.3,0-.2-.4-.1-.7-.2-.2-.2-.2.1-.3,0-.1,0-.1.1,0v.2c0,.5.3-.6.4-.8s.4-.2.5-.1c.2.5.1,1.1.1,1.6s-.3.1-.4.1Z"/>
      <path class="st119" d="M9,76.5c.2-.1.7-1.1,1-.7s-1.6,2.1-1.5,1.1v-1.3c.1-.2.2-.3.3-.3.4,0,0,.8.2,1.1Z"/>
      <path class="st196" d="M20.2,59.8c-.4.2-.7,1.2-1.1.8s.8-.9.7-1.2c-.9-1.2,1,0,1.1.4-.3.2-.5,0-.7,0Z"/>
      <path class="st79" d="M15.8,58.2c0,.2.6.2.7.4.2.5-1,0-1.3-.1.2-.6.4-1.8.8-1.5s-.2.9-.2,1.3Z"/>
      <path class="st91" d="M4.2,72.6c-.2,0-.4-.3-.5-.2s-.3.2-.4.4c-.1-.2,0-.4,0-.6s-.2-.2-.4-.4c.4,0,.6-.4.8-.6.2.2.3.7.8.5-.2.3-.3.5-.3.9Z"/>
      <path class="st127" d="M22.9,64.1c-.1,0-.3-.2-.4-.2s-.3.2-.5.2c-.2,0,0-.3,0-.4,0-.2-.3-.1-.4-.4.5.2.6-.4.8-.5.2,0,.3.7.8.5-.2.3-.3.4-.3.8Z"/>
      <path class="st118" d="M2.8,64.4c-.2.2-.2,0-.2-.3,0-.2-.3-.2-.4-.5.5,0,.6-.3.8-.6,0,.3.5.5.7.6-.1.2-.3.6-.2.9-.3-.2-.5-.4-.7-.2Z"/>
      <path class="st232" d="M22,71.8c.2,0,.4,0,.6,0-.3.2-.4.5-.3.8-.3-.2-.6-.3-.7-.2-.2.1-.4.1-.3-.1,0-.2-.3-.4-.4-.6.2,0,.5,0,.6-.2.2-.4.3-.3.4.1Z"/>
      <path class="st141" d="M7.8,74.7c-.5-.2-1.1,0-1.4.4,0,.2-.1.5,0,.7.1.4.5.6.9.6.4,0,.7-.3.9-.6.2-.4,0-.8-.3-1.1Z"/>
      <path class="st151" d="M23.7,67.8c-.1.1-.4,0-.4-.1-.1,0-.2.2-.5.2-.2-.3,0-1.2.5-1.2s.5.9.4,1.1Z"/>
      <path class="st148" d="M2.8,70.3c0,0-.2,0-.2,0s-.1-.1,0-.2.2,0,.3-.2c-.1-.1-.4-.2-.3-.4s.1-.4.4-.4.3,0,.4,0-.1.2,0,.3c0,.2.2.3.2.5,0,.2-.2.3-.5.3Z"/>
      <path class="st217" d="M10.7,76.3c-.2.8-.3,1.5-.7,1.4s.2-1.5.3-1.7.2,0,.2,0c0,0,.2.2.1.3Z"/>
      <path class="st31" d="M23.1,68.7c.1-.5.3-.5.4-.2,0,.3,0,.6,0,1l-.5-.5c0,.2,0,.4-.2.4s-.2,0-.3,0c0-.2-.2-1.1.2-1.1s.2.4.3.5,0,0,.2,0Z"/>
      <path class="st139" d="M13.3,76.2c.2.2.2.4.1.6,0,0,0,.2-.1.3,0,.2,0,.4,0,.7h-.1c-.6.7-.5-1.2-.4-1.5h.5Z"/>
      <path class="st22" d="M23.3,65.7c-.2.2-.5.3-.7.6-.3-.3-.3-.9,0-1.2s.5,0,.6,0,.3.3.1.5Z"/>
      <path class="st94" d="M20.9,74.4l-1.1-.9c0,0,0-.2,0-.2s.2-.2.3,0c.7.6,1.4.9,1.1,1.2s-.2.1-.3,0Z"/>
      <path class="st226" d="M2.9,67.9c0,.3-.6.5-.8.8-.1-.4-.1-.7,0-1s.3-.2.5-.2.5.1.4.4Z"/>
      <path class="st107" d="M23,70c0,.2-.1.2-.3.1,0,.2,0,.4,0,.7.2-.3.3-.2.3.1-.3.2-.7.2-.9,0s-.1-.6,0-.8.6-.2.8,0Z"/>
      <path class="st39" d="M22.1,61.1c.1,0,.2.3.2.4-.7,0-.9.8-1.1.3.1,0,.3,0,.3,0s-.6-.8-.2-.8.4.4.7.6c.2-.1,0-.3,0-.5Z"/>
      <path class="st161" d="M23,70c.2.2.3.3.2.5s0,.3-.2.3c-.1,0-.2,0-.3-.1-.2-.1-.1-.5,0-.7,0,0,0-.1,0-.1,0,0,.2,0,.2,0Z"/>
      <path class="st114" d="M12.1,57.3c-.3,0-.8.1-.9-.2,0-.5,1,.5.9-.3-.4-.3-1-.4-1.3,0-.2.2,0,.5,0,.7l1.1.2c-.3.5-.6.2-.9,0,0,0-.2.3,0,.4.4.4,1.1.3,1.4-.2.2-.3,0-.5-.2-.7Z"/>
      <path class="st92" d="M14.2,77.8c0,0-.2,0-.3,0,0-.3,0-.5.2-.8,0,.3,0,.5,0,.8Z"/>
      <path class="st77" d="M18.6,73.9c0,.1.2.1.3.1-.1,0-.2.2-.4.2,0,0-.2,0-.2-.1,0,0,.3-.1.4-.2Z"/>
      <path class="st164" d="M13.4,77.7c0,.1-.2.1-.3.2h0c0-.4,0-.7.1-.9,0,.2,0,.4.1.7Z"/>
      <path class="st147" d="M22,71.8c0,0-.1-.1-.2-.2s-.2,0-.2,0c0-.2.1-.4.4-.4,0,.2,0,.4,0,.5Z"/>
      <path class="st159" d="M3,66.7c-.3.2-.6.2-.8,0,.1,0,.3,0,.4-.2,0-.1,0,0,.1,0,0,0,.2.1.3.1Z"/>
      <path class="st68" d="M23.5,68.5c0,0-.1,0-.2-.1,0,.2,0,.4-.2.4v-.4c0-.2.2-.1.3-.1s0,.2,0,.3Z"/>
      <path class="st51" d="M20.4,62.1c0,0-.1,0-.1,0,0,0,0,.1,0,.2,0,0-.2-.3-.3-.4,0,0,.1-.1.1-.2,0,0,.2.2.3.4Z"/>
      <path class="st218" d="M2.8,64.4c0,0,0,.2-.2.3,0-.2,0-.5,0-.5,0,0,0,.2.2.3Z"/>
      <path class="st4" d="M21.6,72.6c0,0-.2.2-.3.2-.2-.1,0-.3,0-.4,0,0,0,.1,0,.1s.2,0,.2,0Z"/>
      <path class="st122" d="M92.6,58.7c0,0,0,.1,0,.3-.2-.2-.5-.1-.7,0v-.2c.3,0,.5,0,.8,0Z"/>
      <path class="st132" d="M89.2,59c-.5.2-1,.5-1.4.9l.7.9c0,.3-.2.5-.3.1-.2,0-.4,0-.7-.4-.4.4-.7,1-.8,1.5-.2.4,0,.6.3.4.2-.1.3,0,.1.2.2,0,.3.2.4.4.2,0,.3.2,0,.3,0,.3-.3.3-.4,0,0,.4-.5.5-.6.1,0,0-.1,0-.1.5-.4,0,.1-1.3-.3-.8s.2.2,0,.6-.1,0-.2,0c-.3-.1-.2-.4,0-.6-.4,0-.3-.2,0-.3.4-.9.3-1.9,1.2-2.8s.3-.3.5-.5c-.2-.2.1-.4.4-.4.1-.3.7-.4,1-.5.1,0,.3,0,.5,0-.1.1-.3,0-.4.2Z"/>
      <path class="st203" d="M85.9,62.9v.3c-.2.3-.8.4-1,0v-.4c.3.2.7.1,1,.1Z"/>
      <path class="st19" d="M87.9,59.1c.2-.1.3,0,.1.1l-.4.4c0,0-.2,0-.2,0,0-.1,0-.3.1-.4h.4Z"/>
      <path class="st47" d="M96.3,61.7c.3.3.3.7,0,1.1-.1.3-.7.2-1,0-.1-.3-.3-.8-.2-1.1l-.2-.8v-.2c-.2-.1-.2-.2,0-.4-.1-.2-.1-.4.1-.3l.9.7c.3.2.2.7.4.9Z"/>
      <path class="st214" d="M93.9,58.3c0,.1-.2.3-.3.4l.2.2c0,.3,0,.4.3.5,0,0,.1.1.2.2.2,0,.2.1,0,.2.2.1,0,.2-.1.3.2,0,.3.2.3.4.1,0,.1,0,0,.1l-.2.2c-.2,0-.3-.2-.3-.4-.1.2-.2.3-.4.3,0,.2,0,.3-.2.5.2,0,.3.1.2.4.4,0,.5.2.3.5l-.7-.6c-.1.4-.1.4-.5.5,0,0,0-.2-.1-.5-.2.2-.5,0-.7.1-.2-.3,0-.4.4-.4,0-.2,0-.3.2-.4.3,0,1.4-.6.9-.8.8-1.1,0-2,.7-1.8s0,.2,0,.3Z"/>
      <path class="st186" d="M90.2,61.1c.2,0,.3,0,.3.1-.1,0,0,.1.2.1,0,0,0,2.2-.2,2.2s-.1,0-.2,0c0,.2,0,.3-.2,0-.1,0-.2-.2,0-.4v-.4c-.2-.2-.3-.3-.5-.5-.2-.2-.1-.6,0-.8s.4-.2.6-.4Z"/>
      <path class="st0" d="M88.8,60.8c-.4.5-.4,1.1-.2,1.7s.8.9,1.3,1c.2-.2.2,0,.3.1.1.2,0,.4-.1.2-.1.4-.8.2-.8-.2-.2.1-.3.1-.4,0-.6-.3-1.3-1.8-.6-2.3-.3-.1-.3-.2,0-.4.1,0,.2,0,.3-.1h.2Z"/>
      <path class="st131" d="M92,60.6c.1,0,.2-.1.3,0,0,.2.2.5,0,.6s-.5,0-.5.2c-.1,0-.3.3-.5.3,0,.2,0,.2-.2,0,0,.1,0,.1-.1,0-.3-.2-.4-.3-.1-.6-.2,0-.2-.1,0-.2.4,0,.7-.3,1.1-.3Z"/>
      <path class="st9" d="M92.3,60.6c0,0-.2,0-.3,0,.1-.3.7-.1,1.2-.7,0,0,.2,0,.3,0s0,.3-.1.3c-.3.5-.6.6-1.1.5Z"/>
      <path class="st14" d="M96.7,62.8c-.3.2-.2,0-.2-.3s.2.8-.2.4c.1-.4,0-.8,0-1.1.1,0,.1-.2.1-.4.1.4.3.9.2,1.4Z"/>
      <path class="st7" d="M93.9,58.8c0,.2.2.3.2.5,0,.1-.4.3-.5,0s0-.5,0-.7c0-.2.2-.2.3.1Z"/>
      <path class="st177" d="M90.8,60.9v.2c0,.4-.2.4-.4.1,0,0-.2-.1-.3-.1.2-.1.4-.2.7-.2Z"/>
      <path class="st50" d="M93.9,58.3c0,.2,0,.4,0,.5h-.3c0-.3,0-.4,0-.6.1,0,.2.1.2.1Z"/>
      <path class="st83" d="M90.1,63.6c-.1,0-.2,0-.3-.1.2-.2.1-.5.1-.7.2.2,0,.5.1.8Z"/>
      <path class="st13" d="M94.8,60c0,.1,0,.1-.1,0,0,.1,0,.1-.1,0-.1,0-.2-.1-.3-.3v-.2c.3,0,.5.2.5.4Z"/>
      <path class="st236" d="M95.1,60.1c0,0-.1.2-.1.3-.3.1-.4,0-.3-.4h.1c.1,0,.2,0,.3.1Z"/>
      <path class="st207" d="M88.9,65.7c0,0,.2.1.4,0,0,.3,0,.5.2.7.3-.1.4,0,.2.2.3,0,.4,0,.5.2,0,1,0,1.9,0,2.9-.2-.2,0-.5-.3-.6-.2,0-.2,0,0-.1,0,0,0,0,0-.1.2-.3.2-.7.1-1.1-.2,0-.3-.1-.5-.2,0-.3.2-.3.3,0,.2-.1.2-.2,0-.4-.3.3-1.4-.2-1.8-.5s0,0,0-.2c0,0-.2-.2-.3-.3,0,0-.1-.1-.2-.2s1.3-1.7,1.3-.5Z"/>
      <path class="st47" d="M91.2,67.4l.2.2c.3.5.4.5.5,0,0,0,.1,0,.1,0,0,.3.2.7,0,1s-.7.1-1.1.4c0,.1.2.1.4.2-.1,0,0,.3,0,.4-.4,0-.2-.4-.5-.4-.3-.3-.3-1.1,0-1.4,0-.3.1-.5.3-.4,0-.1,0-.1.1,0Z"/>
      <path class="st162" d="M90.8,67.7c0,.5,0,.9,0,1.4,0-.3,0,.9-.4.7,0-1-.1-1.9-.1-2.9-.4,0-.2-.6,0-.8.7-.8.8,1.1.5,1.7Z"/>
      <path class="st130" d="M90.4,66.1c-.1.4,0,.7,0,1.2v2.6c0,0,0,0-.1,0v-2.8c-.2,0-.3,0-.4,0s0-.2-.1-.2c0-.2,0-.4,0-.7h.3c.2-.2.3-.2.1,0Z"/>
      <path class="st130" d="M90,69s0,.1,0,.1c-.4,0-.9.1-1.2-.3.4,0,.7.2,1.1.1Z"/>
      <path class="st83" d="M90,63.8c.3,0,.3.6.1.8l-.2.2c-.2-.2-.4,0-.7.4.6.3.2,1.1-.2.5-.1,0-.2-.2-.3-.2s-.8.6-.8.9c-.2,0-.5-.3-.5-.5,0,0,0-.1,0-.2.2-.2.7-.7.9-.6-.1-.2-.1-.4.1-.3v-.3c.3-.2.6-.3.8-.5-.4-.1-.5-.5,0-.5.2.1.5.2.8.2Z"/>
      <path class="st204" d="M87.7,63.8c.2,0,.2,0,.1.2.2.2.5.7.5,1-.2.3-.6.9-1,.8l-.2-1.3c-.1-.2-.1-.5.1-.4,0-.3,0-.5.1-.7,0-.5.2,0,.3.3Z"/>
      <path class="st12" d="M85.9,63.2c.1.2,0,.4,0,.6-.6.4-.2.7-.5.9s-.3.1-.3,0c-.1-.3-.2-.6-.3-.9-.2,0-.2-.2,0-.3v-.3c.4,0,.7,0,1,0Z"/>
      <path class="st155" d="M89.9,67.2c.2,0,.3.3,0,.4,0,0-.2,0-.3,0l-1.2-.5c-.2,0-.5-.3-.7-.3.1-.1.2-.2.4-.3.6.3,1.1.6,1.8.6Z"/>
      <path class="st199" d="M87.3,63.5c0,.2,0,.4,0,.7-.1.1-.2.2-.1.4-.2.2,0-.7-.6-.8-.1-.1-.1-.4,0-.5.2,0,.4,0,.6-.1.3,0,.4.2.1.4Z"/>
      <path class="st66" d="M84.8,63.8c-.1.1-.1.4-.1.5-.2-.2-.1-.4-.1-.7,0,0,.2,0,.3-.1v.3Z"/>
      <path class="st64" d="M86.5,63.3c0,.2,0,.3,0,.5h-.1c0-.2,0-.4,0-.6.1,0,.1,0,.2.1Z"/>
      <path class="st47" d="M94.8,63.2c.3.9-.3,2-1,2.8l-.4-1.2c0-.5.3-.8.9-.7.3-.2,0-.4-.1-.5-.4-.4.4-.5.6-.2Z"/>
      <path class="st174" d="M92.5,64.9c-.2,1-1.7.5-1.4,1.4-.1,0-.2,0-.3-.4-.3.1-.3,0,0-.2v-.3c.5-.1,1-.4,1.4-.6h.3c.1,0,.1,0,0,.2Z"/>
      <path class="st227" d="M92.5,64.9s0,0,0,0c-.3-.1-.3-.9-.2-1.3h.1c.4.2.6,1,.2,1.4Z"/>
      <path class="st231" d="M90.7,65.7l.3.6c0,0,0,.1,0,.2.2.1.2.2,0,.3.3.2.4.4,0,.5-.1,0-.2.3-.3.4,0-.6,0-1.1,0-1.8h-.4c0,0,0,0-.1,0-.2-.4.3-.6.5-.2Z"/>
      <path class="st96" d="M92.1,67.6s0,0-.1,0c0,.1,0,.1-.1,0-.3-.2-.6-.4-.7-.7,0,0,0-.2,0-.3.5.2.9.5,1,1Z"/>
      <path class="st53" d="M91.8,63c.2,0,.3.1.4.3h0c.2.2,0,.4-.1.2-.3.1-.8,0-.9-.4h0c-.1-.2-.1-.2,0-.2l.6.2Z"/>
      <path class="st43" d="M94.9,62.8c-.2.1-.9.2-.7-.1v-.2c.2,0,.4-.1.5,0s.2.3.2.4Z"/>
      <path class="st56" d="M94.8,62.9c0,0,0,.2,0,.3h-.4c-.1,0-.2,0-.2.2.1,0,.1,0,0,.1-.2-.1-.2-.4-.3-.6.2-.1.5-.1.9,0Z"/>
      <path class="st236" d="M91.3,62.9c0,0-.1,0-.2,0s0-1.1,0-1.2h.2c0,.3,0,.8,0,1.2Z"/>
      <path class="st29" d="M94.2,62.6c.1.3.5,0,.7.1,0,0,0,0-.1.1h-.9s0-.1,0-.2c0,0,.1,0,.2-.1Z"/>
      <path class="st104" d="M94.3,63.9c0,0,.1-.2,0-.3s-.1,0-.2-.1c0,0,0,0,0-.1.1,0,.5,0,.5.2,0,.3-.2.3-.3.3Z"/>
      <path class="st18" d="M92.7,65.4c.1,0,.2,0,.3,0s0,.2,0,.2-.2,0-.3,0-.1-.1,0-.2Z"/>
      <path class="st110" d="M92.2,63.3c-.2,0-.3,0-.4-.3,0,0,.2,0,.3,0s0,.2,0,.3Z"/>
      <path class="st91" d="M96.7,62.8s0,0,0,.1c0,.1-.1.3-.1.4.1.2,0,.6,0,.9,0,0,0,.1-.1.1,0-.7,0-1.1-.2-1.1s-.6,0-.7,0c0,0-.2-.2-.2-.3.3,0,.7,0,1,0s.1-.3.2-.5l.2.4Z"/>
      <path class="st14" d="M96.6,64.2v-.9s0,0,.1,0c0,.3.1.7-.1.9Z"/>
      <path class="st34" d="M89.1,58.7c-.3.2-.8.2-1,.5,0,0,0,0-.1-.1.2-.3.6-.3.9-.5,0,.1.2.1.2.1Z"/>
      <path class="st103" d="M20.3,62.4c0-.2,0-.5-.3-.4-2.6-2.8-6.5-4-10.2-2.8-.5.2-.7.4-.6.7.6-.2,1.2-.3,1.8-.4,2.8-.6,5.7.3,7.7,2.1,3.4,3.1,3.3,8.3-.1,11.3-2.6,2.3-6.4,2.8-9.6,1.3-2.2-1-3.7-2.9-4.5-5.2-.2-.7-.6-.6-.6.1.4,1.4,1.1,2.8,2.2,3.9,0,.4.4.9.7.6.1.4.5.7,1.2.8,2.6,2.1,8,1,10.2-.5.2,0,.5,0,.4-.2,3.5-3,4.5-7.5,1.7-11.5Z"/>
      <path class="st44" d="M7.9,57.9c-.5-.2-1.2,0-1.3.6,0,.5.2.9.6,1.1.3.1.8.1,1.1-.3.4-.5,0-1.2-.4-1.4ZM8,59.1c-.3.2-.6,0-.7-.1-.1-.2-.2-.5,0-.7.3-.2.5,0,.7.2.1.2.3.5,0,.7Z"/>
      <path class="st73" d="M19.6,75.3c-.2-.2-.7-.5-.7-.8s.6-.3.7,0,.4.5,0,.9Z"/>
      <path class="st3" d="M7.7,75.7c-.1.2-.3.3-.5.4s-.4,0-.5-.2,0-.4.2-.6.4-.3.7-.2.3.3.1.6Z"/>
      <path class="st57" d="M6.8,74.1c-.1,0-.3-.2-.4,0,0,0-.2.1-.3.2,0,0,0,.2-.3.2,0-.2,0-.5,0-.7,0-.1,0-.2,0-.3-.4-.5-1.1.6-1.4.9,0,0,0,.1,0,.2.2.2.3-.1.6-.3,0,0,0-.2,0-.2,0,0,.3,0,.3,0-.1.2,0,.4-.2.5,0,.2-.1.8.2.7.3,0,.5-.4.7-.6.3.1.9-.4.5-.6Z"/>
      <path class="st134" d="M6.7,60c-.4-.2-.6-.5-1-.8-.2-.2-.6,0-.8.3-.2.1-.6.4-.4.6.6.5,1,1.2,1.3.9.2-.3-.5-.4-.2-.7.2-.2.3-.2.5,0,0,0,.2.1.3.1,0,0,.3-.3.2-.3ZM5.6,60c-.3.2-.5.2-.6-.1l.3-.2c.4-.3.6,0,.4.3Z"/>
      <path class="st36" d="M13.9,57.7c-.3,0-.2-.2-.2-.3s.1-.1.2-.2c0,.2,0,.3,0,.6Z"/>
      <path class="st11" d="M3.7,61.3c.1-.1.3,0,.3.1,0,.1,0,.2-.1.3s-.2,0-.3,0c-.1-.1,0-.3,0-.4Z"/>
      <path class="st20" d="M3,65.8c-.2-.2-.6-.3-.9,0-.2.2-.2.6,0,.9.2.1.5.1.4-.2-.1,0-.2-.2-.2-.3,0,0,0-.3.2-.3.2,0,.3.2.3.3,0,0,0,.2-.1.3-.1.2,0,.2.3.1.3-.2.4-.6,0-.9Z"/>
      <path class="st219" d="M22.7,70.1c.2.2.2.5,0,.7-.2,0-.3-.1-.3-.3s.1-.3.3-.3Z"/>
      <path class="st198" d="M89.2,63.6c-.2.2,0,.3,0,.5-.2.3-.5.3-1.1-.2h-.2c.2.3,0,.3-.1.2,0,0,0-.1-.1-.2-.2-.3-.2-.5-.1-.7,0,0,0-.2,0-.3-.1,0-.3-.2-.4-.4v-.2c-.5-.4.7-1.4,1-1.1-.2,1,.2,1.8,1,2.3Z"/>
      <path class="st207" d="M88.2,60.9c0,.1,0,.3,0,.4-.4.3-1,.6-1.2,1.1s-.2.5-.6.5c-.1-1,.4-2,1.1-2.8.3.2.6.4.7.7Z"/>
      <path class="st144" d="M87.5,63.1c.1.2.1.4.1.7-.1,0,0-.5-.3-.3,0,.1,0,.1-.1,0,0-.1,0-.3-.1-.4h.4Z"/>
      <path class="st51" d="M87.5,62.9c-.1,0-.3,0-.3,0s0-.2,0-.3c0,0,.2,0,.3,0s0,.2,0,.3Z"/>
      <path class="st205" d="M95,60.7c.2.3.2.7.1,1-.2-.3-.4-.6-.5-1-.3-.4.2-.4.4,0Z"/>
      <path class="st108" d="M94.7,60c0,.2.1.3.3.4s0,.3,0,.4c0,0-.2,0-.2,0s-.1,0-.1.1c0-.1-.2-.2-.2-.3h0c0-.3-.1-.4,0-.5,0-.1,0-.1.1,0h.1Z"/>
      <path class="st221" d="M93.8,61.9c0-.2-.2-.4-.3-.5-.1-.3,0-.4.3-.2,0-.2-.1-.4,0-.4,0-.3,0-.4.3-.1,0,.3.1.5.4.7s.2.6,0,.6c-.1,0-.2-.4-.4-.3s-.2.2-.3.3Z"/>
      <path class="st115" d="M93.6,60.6c.1,0,.2.2.2.5,0,.1-.2.1-.3.2-.2,0-.5-.1-.5-.3s.3-.3.5-.5c.2-.2.2-.1.1.1Z"/>
      <path class="st129" d="M94.4,60c0,.1,0,.3,0,.4-.2,0-.2-.2-.3-.4,0-.2.3-.2.3,0Z"/>
      <path class="st133" d="M94.6,60s0,0-.1,0h-.3c0-.1,0-.2.1-.3,0,0,.1,0,.2,0,0,0,0,.2,0,.2Z"/>
      <path class="st230" d="M94.2,60.6c0,0-.2,0-.3.1-.1,0-.2,0-.1-.1-.2,0,0-.3,0-.4.2,0,.3.3.3.4Z"/>
      <path class="st45" d="M93.9,60.2c0,.1,0,.3,0,.4,0,.1,0,.1-.1,0h-.1c.1-.3.2-.4.4-.4Z"/>
      <path class="st67" d="M91,61.7c.1.2,0,.5,0,.7,0,.8,0,1.5-.1,2.3,0,.2-.2.2-.4.1,0,.1,0,.1-.1,0-.2-.3-.3-1,0-1.3,0,.5,0-2.9.2-2.3h.4c.1,0,.1.3.1.5Z"/>
      <path class="st80" d="M90.3,63.5v1.3c-.3.2-.4,0-.2-.2,0-.3,0-.5-.1-.8,0,0,.1-.1.1-.2h.2Z"/>
      <path class="st183" d="M89.9,62.3c-.1,0-.3-.2-.2-.3s0-.2.2-.5c.1.2,0,.4,0,.8Z"/>
      <path class="st0" d="M91.3,62.9h0c-.1.4-.2.7,0,1,.8-.4.9,1.3,0,.8q0-.3,0,0c.2.4-.3.6-.5.2-.3.1-.4.1-.3-.2.1,0,.3,0,.4-.1,0-.8.1-1.5.1-2.3v-.7s0,0,.1,0c0,.5-.2,1.1.2,1.2Z"/>
      <path class="st110" d="M92.2,63.6c.3.3.3.8.2,1.3-.4.5-1.1.6-1.7.9s-.4,0-.5.2c-.3.5,0,.9-.4.7-.1,0-.2-.2-.2-.2-.5-.5-.3-1.5.5-1.2.2-.2.4-.3.6-.3.2,0,.3,0,.5-.2s.5,0,.3-.4-.2-.2-.4-.3c-.1-.2-.1-.6,0-.8.3,0,.7.2.9.4Z"/>
      <path class="st49" d="M90.1,64.5c0,0,.1.2.2.2.3.1,0,.4-.3.4-.5.3-.8.7-.5,1.2-.2-.2-.4-.6-.7-.8,0,0,.2.1.3,0,.3-.3-.4-.3-.4-.6s.6-.7.7-.8.3.1.5.2Z"/>
      <path class="st130" d="M89.9,67.6c.1-.1,0-.3,0-.4,0,0,.1,0,.2,0,.1,0,0,.2,0,.3s-.2,0-.3,0Z"/>
      <path class="st229" d="M91.9,67.6c.2.5-.1.4-.4,0l-.3-.2h-.1s0-.5,0-.5c.3.1.6.4.7.7Z"/>
      <path class="st65" d="M91.9,67.6s0,0,.1,0c0,.2,0,.4,0,.7l-.7-.9c.3,0,.5.2.6.5.1-.1,0-.2,0-.3Z"/>
      <path class="st194" d="M89.2,64c0,.4-.4.8-.8.8-.3,0-.5-.6-.5-.9,0,0,0-.4.1-.4.5.2.8.5,1.2.5Z"/>
      <path class="st6" d="M88.4,64.8c-.1,0,0,.2-.1.3-.2-.3-.5-.6-.5-1h.1c.2.2.3.5.5.8Z"/>
      <path class="st78" d="M87.4,63.5c0,.2,0,.5-.1.7-.1-.2-.2-.5,0-.7h.1Z"/>
      <path class="st236" d="M91.3,63.1c0,.3,0,.5,0,.8-.2-.2-.2-.7,0-.9h0Z"/>
      <path class="st42" d="M13.3,65.1c.1.2,0,.4-.1.3,0-.4-1.3-.2-1.4-.2-.3,0-.2.5-.2.7.4,1,.7-.5,1.4,0-.2.5-.1.9.2,1.3s.7,0,1,0q.8.2,0,0c.2-.5,1.4,0,1.8.1,0,.8-.6,1-1.6.7-.3,0-.3,0-.2.4-.2.2-.2.4-.1.6v.3c.4.2.6.5.6.9-.2.2-.2.5,0,.9-.3.4,0,.6.8.6-.2-1.1,1.2-.9.6,0-.6,1.1-1,0-2.3,1.9s-.2.2-.3.4.2.3.2.4c-.2.2-.5,0-.6-.1-.6-.4.2-1.7.2-1.7q0,.8,0,0c.5-1.3.9-1.7.4-2.5-.1-.5,0-.5,0-.2s0,0-.1,0c-.8-1.3.4-1.9.1-2.4-.5-.1-.9-.3-1.3-.7s-1.7,0-2-1.2c-1.6.6-.4-3.1-1.9-2.9s-.7.3-1,.3c-.4.1-.5,0-.4-.2,0,0,.3-.1.3-.3,0-.3-.2-.7,0-.9,1.1-1.2,2.5-.5,3.1-.8s-.1-.3,0-.4c.3-.9,3.1-.7,3.5,0s0,.5,0,.8c0,.5.5-.7,1.5,1.2-2.3.8-.9,1.3-1.8,1.8s-.3.4-.3.6Z"/>
      <path class="st42" d="M16,67.4c.4.1.6.6,1,.9s1.2,0,1.4.9-.9.8-.9,1.7-.8.6-1.3,1c-.1,0,0-.3-.1-.5-.4,0-.2.4-.3.6,0,.4-1.2,0-1.3-.1-.2-.3-.4-.5-.3-.8.1,0,.2.3.4.3l-.4-1c.2,0,.4,0,.4,0s0-.4,0-.4c-.2-.2-.6-.2-.7-.6s.2-.2.2-.3-.2-.2-.1-.3c0-.2.2-.3.2-.4s-.3-.3-.2-.4c.3-.6,1.5.2,1.9-.2-.1-.2-.4-.2-.5-.6.3.2.5.3.8.1Z"/>
      <path class="st97" d="M16.1,66.5c-.2-.2-.4-.2-.8-.2,0-.2,0-.6.3-.6.4.7.8.3.5.8Z"/>
      <path class="st5" d="M14.2,65.7c-.4,0-.3-.2,0-.3.4,0,.8,0,1.1,0-.3.5-.7.2-1.1.2Z"/>
      <path class="st233" d="M14.2,65.4v.3c-.2,0-.4,0-.5.1,0,0-.1,0-.3,0,.2-.3.4-.4.8-.4Z"/>
      <path class="st35" d="M12.6,68.8c0,.2-.5.2-.5,0s.4-.2.5,0Z"/>
      <path class="st175" d="M14.4,74.2c-.2,0-.3,0-.3,0,0,0,0-.3.4-.2s.1.3-.1.3Z"/>
      <path class="st101" d="M13.7,65.9c.2,0,.3,0,.3,0s0,.2,0,.2c0,.1-.1,0-.2,0s0-.1,0-.2Z"/>
      <path class="st145" d="M7,63c0,.2.2.2.4.2-.2,0-.5.3-.6,0s.2-.1.3-.1Z"/>
      <path class="st42" d="M13.6,70.2s0,0-.1-.1c0-.1,0-.3,0-.4,0,.2,0,.4.3.4,0,.1-.2.2-.3.1Z"/>
      <path class="st191" d="M13.1,65.3c.1,0,.1-.2.1-.3.1,0,.1.1.1.2s0,.2-.2.3,0-.2,0-.2Z"/>
      <path class="st234" d="M93.9,60.7c0,.1,0,.3,0,.4-.2,0-.1-.3-.2-.5,0,0,0,0,.1,0,0,0,.2,0,.1.1Z"/>
      <path class="st236" d="M90.8,64.7v-2c0-.1,0-.3.1-.2v2c0,.2,0,.2-.1.3Z"/>
      <path class="st63" d="M90.7,64.9c-.2,0-.4.4-.6.3.1,0,.3-.3.3-.4h.1c0,.1.2.2.3.2Z"/>
      <path class="st70" d="M91.2,64.7c-.1-.2-.2-.4,0-.5,0,0,.3.2.2.3s0,.1-.1.2Z"/>
      <path class="st42" d="M13.3,72.7v.3c.2.5.4-.5.6-.6s.2.1.5.2c0,.2-.3.2-.5.3,0,.4-.3.6-.5,1-.3-.3-.3-.8-.1-1.3Z"/>
      <path class="st102" d="M12.7,61.6c.2.3,0,.7-.4.5-.2,0-.5-.3-.3-.4s.5,0,.7,0Z"/>
      <path class="st42" d="M14.2,67.2c.3,0,.6-.1.9,0s0,.3-.2.2c-.3-.2-.8,0-.7-.3Z"/>
      <path class="st109" d="M12.8,61.3c-.1.1-.4-.4-.3-.5s.5.3.3.5Z"/>
      <path class="st26" d="M12.4,62.1c.1,0,.3,0,.3-.1s0-.3,0-.4c.2,0,.2.4,0,.5s-.4.2-.5,0Z"/>
    </g>
  </g>
</svg>